<svg width="24" height="20" viewBox="0 0 24 20" fill="none" xmlns="http://www.w3.org/2000/svg">
    <path d="m22.584 13.654-7.7-12.158A3.493 3.493 0 0 0 12.027 0c-1.134 0-2.21.552-2.887 1.524L1.48 13.635c-.972 1.391-1.153 3.059-.477 4.345.667 1.286 2.067 2.02 3.82 2.02H19.23c1.763 0 3.153-.734 3.82-2.02.668-1.287.487-2.944-.466-4.326zm-11.51-7.937c0-.524.428-.953.952-.953s.953.43.953.953v5.717a.956.956 0 0 1-.953.953.956.956 0 0 1-.952-.953V5.717zm.952 11.434c-.79 0-1.429-.638-1.429-1.43 0-.79.638-1.429 1.43-1.429.79 0 1.429.639 1.429 1.43 0 .79-.639 1.429-1.43 1.429z" fill="#E9AC20"/>
</svg>
