<svg width="21" height="20" viewBox="0 0 21 20" fill="none" xmlns="http://www.w3.org/2000/svg">
    <path d="M10.31 1.667a8.36 8.36 0 0 1 5.935 2.5h-2.602a.833.833 0 0 0 0 1.666h3.453c.854 0 1.546-.693 1.547-1.548V.833a.833.833 0 1 0-1.666 0v1.732c-4.098-3.69-10.411-3.36-14.101.738A9.985 9.985 0 0 0 .35 9.083a.839.839 0 0 0 .834.917.819.819 0 0 0 .824-.732 8.345 8.345 0 0 1 8.3-7.601zM19.436 10a.819.819 0 0 0-.825.732 8.322 8.322 0 0 1-14.236 5.101h2.601a.833.833 0 0 0 0-1.666H3.524c-.854 0-1.547.692-1.547 1.546v3.453a.833.833 0 0 0 1.666 0v-1.731c4.097 3.69 10.41 3.36 14.1-.738a9.985 9.985 0 0 0 2.525-5.78.839.839 0 0 0-.834-.917h.002z" fill="#565F76"/>
    <path d="M6.198 9.875v2.25a2.027 2.027 0 0 0 2.025 2.025h3.75a2.027 2.027 0 0 0 2.025-2.025v-2.25a2.025 2.025 0 0 0-1.125-1.812v-.438a2.775 2.775 0 0 0-5.55 0v.438a2.025 2.025 0 0 0-1.125 1.812zm2.175-2.25a1.725 1.725 0 0 1 3.45 0v.225h-3.45v-.225zm4.575 4.5a.975.975 0 0 1-.975.975h-3.75a.975.975 0 0 1-.975-.975v-2.25c0-.539.436-.975.975-.975h3.75c.538 0 .975.436.975.975v2.25z" fill="#565F76" stroke="#565F76" stroke-width=".3"/>
    <path d="M10.098 10.099a.525.525 0 0 0-.525.525v.75a.525.525 0 0 0 1.05 0v-.75a.525.525 0 0 0-.525-.525z" fill="#565F76" stroke="#565F76" stroke-width=".3"/>
</svg>
