<svg width="21" height="22" viewBox="0 0 21 22" fill="none" xmlns="http://www.w3.org/2000/svg">
    <path d="m12.651 7.18-1.114-1.11h3.806a.567.567 0 1 0 0-1.135h-3.807L12.65 3.82a.567.567 0 0 0 .003-.802l-.001-.002h-.001v-.001a.567.567 0 0 0-.8 0l-1.789 1.793a.983.983 0 0 0-.29.694v.002a.984.984 0 0 0 .29.688l1.788 1.793h.001a.567.567 0 1 0 .8-.805zM9.032 13.82l1.115 1.11H6.34a.567.567 0 0 0 0 1.135h3.808L9.032 17.18a.567.567 0 0 0-.003.802l.002.002h.001v.001c.221.22.579.22.8 0l1.789-1.793a.983.983 0 0 0 .29-.694v-.002a.984.984 0 0 0-.29-.688l-1.789-1.793a.567.567 0 1 0-.8.805zM4.673 6.15a2.65 2.65 0 1 0-2.65-2.65 2.652 2.652 0 0 0 2.65 2.65zm0-4.167a1.517 1.517 0 1 1 0 3.033 1.517 1.517 0 0 1 0-3.033zM4.673 6.683a3.904 3.904 0 0 0-3.9 3.9.567.567 0 0 0 1.133 0 2.766 2.766 0 0 1 5.533 0 .567.567 0 0 0 1.133 0 3.903 3.903 0 0 0-3.9-3.9zM16.673 16.15a2.65 2.65 0 1 0-2.65-2.65 2.652 2.652 0 0 0 2.65 2.65zm0-4.167a1.517 1.517 0 1 1 0 3.033 1.517 1.517 0 0 1 0-3.033zM16.673 16.683a3.904 3.904 0 0 0-3.9 3.9.567.567 0 1 0 1.133 0 2.766 2.766 0 0 1 5.533 0 .567.567 0 1 0 1.133 0 3.903 3.903 0 0 0-3.9-3.9z" fill="#FAFAFA" stroke="#FAFAFA" stroke-width=".3"/>
</svg>
