<svg width="22" height="22" viewBox="0 0 22 22" fill="none" xmlns="http://www.w3.org/2000/svg">
    <path d="m12.999 7.18-1.115-1.11h3.807a.567.567 0 0 0 0-1.135h-3.808L13 3.82a.567.567 0 0 0 .003-.802L13 3.016l-.001-.001a.567.567 0 0 0-.8 0l-1.788 1.793a.984.984 0 0 0-.29.694v.002a.984.984 0 0 0 .29.688l1.788 1.793a.567.567 0 1 0 .8-.805zM9.38 13.82l1.115 1.11H6.688a.567.567 0 0 0 0 1.135h3.807L9.38 17.18a.567.567 0 0 0-.003.802l.001.002h.002v.001c.221.22.578.22.8 0l1.788-1.793a.984.984 0 0 0 .29-.694v-.002a.984.984 0 0 0-.29-.688l-1.788-1.793a.567.567 0 1 0-.8.805zM5.02 6.15A2.65 2.65 0 1 0 2.37 3.5a2.652 2.652 0 0 0 2.65 2.65zm0-4.167a1.517 1.517 0 1 1 0 3.033 1.517 1.517 0 0 1 0-3.033zM5.02 6.683a3.904 3.904 0 0 0-3.9 3.9.567.567 0 0 0 1.134 0 2.766 2.766 0 0 1 5.533 0 .567.567 0 0 0 1.133 0 3.903 3.903 0 0 0-3.9-3.9zM17.02 16.15a2.65 2.65 0 1 0-2.65-2.65 2.653 2.653 0 0 0 2.65 2.65zm0-4.167a1.517 1.517 0 1 1 0 3.033 1.517 1.517 0 0 1 0-3.033zM17.02 16.683a3.904 3.904 0 0 0-3.9 3.9.567.567 0 0 0 1.134 0 2.766 2.766 0 0 1 5.533 0 .567.567 0 0 0 1.133 0 3.903 3.903 0 0 0-3.9-3.9z" fill="#565F76" stroke="#565F76" stroke-width=".3"/>
</svg>
