<svg width="20" height="20" viewBox="0 0 20 20" fill="none" xmlns="http://www.w3.org/2000/svg">
    <path d="M9.962 1.667a8.36 8.36 0 0 1 5.935 2.5h-2.601a.833.833 0 1 0 0 1.666h3.452c.854 0 1.547-.693 1.547-1.548V.833a.833.833 0 0 0-1.666 0v1.732c-4.098-3.69-10.41-3.36-14.1.738a9.985 9.985 0 0 0-2.525 5.78.839.839 0 0 0 .833.917.819.819 0 0 0 .824-.732 8.345 8.345 0 0 1 8.301-7.601zM19.088 10a.819.819 0 0 0-.824.732 8.322 8.322 0 0 1-14.237 5.101H6.63a.833.833 0 0 0 0-1.666H3.177c-.855 0-1.547.692-1.548 1.546v3.453a.833.833 0 0 0 1.666 0v-1.731c4.097 3.69 10.41 3.36 14.1-.738a9.985 9.985 0 0 0 2.525-5.78.839.839 0 0 0-.834-.917h.002z" fill="#fff"/>
    <path d="M5.85 9.875v2.25a2.027 2.027 0 0 0 2.025 2.025h3.75a2.027 2.027 0 0 0 2.025-2.025v-2.25a2.026 2.026 0 0 0-1.125-1.812v-.438a2.775 2.775 0 0 0-5.55 0v.438A2.025 2.025 0 0 0 5.85 9.875zm2.175-2.25a1.725 1.725 0 0 1 3.45 0v.225h-3.45v-.225zm4.575 4.5a.975.975 0 0 1-.975.975h-3.75a.975.975 0 0 1-.975-.975v-2.25c0-.539.437-.975.975-.975h3.75c.539 0 .975.436.975.975v2.25z" fill="#fff" stroke="#fff" stroke-width=".3"/>
    <path d="M9.75 10.099a.525.525 0 0 0-.525.525v.75a.525.525 0 0 0 1.05 0v-.75a.525.525 0 0 0-.525-.525z" fill="#fff" stroke="#fff" stroke-width=".3"/>
</svg>
