<svg width="42" height="50" viewBox="0 0 42 50" fill="none" xmlns="http://www.w3.org/2000/svg">
    <g clip-path="url(#68bez903da)">
        <path d="m37.557 11.533-7.262-7.261A14.495 14.495 0 0 0 19.982 0h-9.406C4.826.008.168 4.666.16 10.416v29.166c.008 5.75 4.666 10.41 10.416 10.416H31.41c5.75-.008 10.41-4.666 10.416-10.416v-17.74a14.485 14.485 0 0 0-4.27-10.309zM25.16 5.59c.797.445 1.533.992 2.188 1.627l7.261 7.262c.635.654 1.182 1.39 1.627 2.187h-8.994a2.085 2.085 0 0 1-2.084-2.084V5.59h.002zm12.5 33.994a6.25 6.25 0 0 1-6.25 6.25H10.576a6.25 6.25 0 0 1-6.25-6.25V10.416a6.25 6.25 0 0 1 6.25-6.25h9.406c.344 0 .674.066 1.01.098v10.318a6.25 6.25 0 0 0 6.25 6.25H37.56c.032.338.098.666.098 1.01v17.742h.002z" fill="#717C98"/>
        <path d="M30.829 27.725a2.083 2.083 0 0 0-2.946-.067l-7.5 7.149-.091.088c-.86.765-2.176.689-2.942-.17l-3.303-2.948a2.085 2.085 0 0 0-2.775 3.112l3.209 2.863a6.25 6.25 0 0 0 8.805.035l7.476-7.113a2.082 2.082 0 0 0 .067-2.95z" fill="#42A6B8"/>
    </g>
    <defs>
        <clipPath id="68bez903da">
            <path fill="#fff" transform="translate(.16)" d="M0 0h41.666v50H0z"/>
        </clipPath>
    </defs>
</svg>
