<svg width="51" height="50" viewBox="0 0 51 50" fill="none" xmlns="http://www.w3.org/2000/svg">
    <g clip-path="url(#0f4vbbaana)">
        <path d="M47.2 8.292h-6.437a2.084 2.084 0 0 0-1.474 3.56l2.264 2.264-7.478 7.476c-.825.79-2.125.79-2.95 0l-.354-.356a6.404 6.404 0 0 0-8.85 0L11.287 31.872a2.095 2.095 0 0 0 .004 2.96c.82.816 2.143.814 2.96-.004l10.636-10.636a2.133 2.133 0 0 1 2.95 0l.354.356a6.407 6.407 0 0 0 8.849 0l7.478-7.478 2.264 2.264a2.085 2.085 0 0 0 3.545-1.478V11.42a3.124 3.124 0 0 0-3.127-3.128z" fill="#42A6B8"/>
        <path d="M48.242 45.83H10.704a6.257 6.257 0 0 1-6.257-6.257V2.086a2.085 2.085 0 1 0-4.17 0v37.487C.285 45.33 4.947 49.994 10.704 50h37.538a2.087 2.087 0 0 0 2.086-2.086c0-1.15-.935-2.084-2.086-2.084z" fill="#717C98"/>
    </g>
    <defs>
        <clipPath id="0f4vbbaana">
            <path fill="#fff" transform="translate(.277)" d="M0 0h50.051v50H0z"/>
        </clipPath>
    </defs>
</svg>
