<svg width="51" height="50" viewBox="0 0 51 50" fill="none" xmlns="http://www.w3.org/2000/svg">
    <g clip-path="url(#cv7a4il23a)">
        <path d="M48.193 45.834H6.527a2.085 2.085 0 0 1-2.084-2.084V2.084a2.083 2.083 0 1 0-4.166 0V43.75A6.25 6.25 0 0 0 6.527 50h41.666a2.083 2.083 0 1 0 0-4.166z" fill="#717C98"/>
        <path d="M31.527 41.666c1.15 0 2.084-.934 2.084-2.084V25a2.085 2.085 0 0 0-4.168 0v14.584c0 1.15.933 2.082 2.084 2.082zM14.86 41.666c1.151 0 2.085-.934 2.085-2.084V25a2.085 2.085 0 0 0-4.168 0v14.584c0 1.15.933 2.082 2.084 2.082zM39.86 41.666c1.151 0 2.085-.934 2.085-2.084v-25a2.085 2.085 0 1 0-4.168.002v25c0 1.15.933 2.082 2.084 2.082zM23.193 41.666c1.15 0 2.084-.934 2.084-2.084v-25a2.085 2.085 0 0 0-4.168 0v25a2.085 2.085 0 0 0 2.084 2.084z" fill="#42A6B8"/>
    </g>
    <defs>
        <clipPath id="cv7a4il23a">
            <path fill="#fff" transform="translate(.277)" d="M0 0h50v50H0z"/>
        </clipPath>
    </defs>
</svg>
