<svg width="420" height="488" viewBox="0 0 420 488" fill="none" xmlns="http://www.w3.org/2000/svg">
    <g clip-path="url(#7veones4ta)">
        <path d="M83.954 28.813H56.889v107.741h27.065V28.813zM123.763 52.322H96.697v84.232h27.066V52.321zM164.186 71.562h-27.065v64.992h27.065V71.562zM201.599 97.952h-27.066v38.602h27.066V97.952z" fill="#E7E7E7"/>
        <path d="M179.942 1.905s-.241.313-.747.904c-.518.603-1.277 1.47-2.241 2.58-1.999 2.266-4.89 5.57-8.588 9.777a91640.562 91640.562 0 0 1-30.883 34.937l-.169.181-.193-.145c-6.191-4.738-12.996-9.934-20.151-15.395l.409-.048c-8.708 11.055-18.248 23.147-28.185 35.757l-.337.434-.205.265-.253-.217a234739.761 234739.761 0 0 0-37.966-33.502l.434-.06C35.979 56.987 23.283 73.708 14.31 85.535A6130.185 6130.185 0 0 1 3.806 99.29L1 102.931c-.313.398-.554.699-.735.928-.168.217-.253.326-.265.314-.012 0 .072-.121.217-.338.169-.229.397-.554.699-.964.638-.856 1.553-2.098 2.734-3.701 2.42-3.243 5.938-7.933 10.37-13.852 8.938-11.863 21.561-28.62 36.377-48.295l.193-.241.24.205c11.696 10.295 24.536 21.615 37.99 33.466l-.457.036.337-.434 28.222-35.733.18-.229.229.181c7.143 5.486 13.936 10.694 20.116 15.443l-.362.037a51814.677 51814.677 0 0 0 31.04-34.793c3.734-4.16 6.673-7.426 8.697-9.68 1-1.098 1.771-1.942 2.301-2.532.542-.567.819-.844.819-.844z" fill="#E7E7E7"/>
        <path d="M175.461 26.932c-.024 0 0-.193.06-.542.085-.422.181-.928.301-1.543.314-1.435.723-3.34 1.241-5.667A1966.23 1966.23 0 0 1 181.399.386l.398.374c-.434.132-.892.277-1.361.421a1854.544 1854.544 0 0 1-19.369 5.86c-2.409.699-4.408 1.277-5.89 1.7-.638.168-1.168.313-1.614.433-.373.097-.566.133-.578.109-.012-.024.181-.097.542-.23.434-.144.952-.325 1.578-.542 1.469-.482 3.445-1.12 5.83-1.892 4.926-1.58 11.756-3.714 19.308-6.028.47-.145.927-.29 1.361-.422l.53-.169-.12.53a1991.028 1991.028 0 0 1-4.517 18.747c-.591 2.303-1.06 4.195-1.422 5.618-.168.603-.301 1.097-.421 1.519-.109.35-.169.518-.193.518z" fill="#E7E7E7"/>
        <path d="M388.984 184.114c14.996-.241 27.39 11.778 27.631 26.787.241 15.01-11.768 27.415-26.764 27.656-14.996.241-27.391-11.778-27.632-26.788-.241-15.009 11.768-27.414 26.765-27.655zm.65 40.241c7.167-.12 12.912-6.052 12.792-13.225-.121-7.173-6.047-12.923-13.214-12.803-7.166.121-12.912 6.052-12.791 13.225.108 7.173 6.034 12.912 13.213 12.803z" fill="#E1E1E1"/>
        <path d="M388.936 180.726c16.863-.265 30.799 13.237 31.076 30.115l-18.538.494c-.132-8.065-5.576-11.344-12.045-11.766-5.287-.338-12.346 3.689-12.225 11.766l-18.357.495c-.277-16.878 13.225-30.827 30.089-31.104z" fill="#F0F0F0"/>
        <path d="M168.752 304.067c19.32-20.482 51.854-21.579 72.536-2.447 20.681 19.132 21.789 51.357 2.469 71.827-19.321 20.483-51.854 21.58-72.536 2.448-20.681-19.121-21.789-51.345-2.469-71.828zm55.432 51.285c9.238-9.789 8.708-25.196-1.181-34.347-9.889-9.15-25.451-8.619-34.678 1.17-9.238 9.789-8.708 25.196 1.181 34.346 9.877 9.138 25.439 8.62 34.678-1.169z" fill="#F5F5F5"/>
        <path d="M168.752 304.067c19.32-20.482 51.854-21.579 72.536-2.447l-18.285 19.385c-9.889-9.15-25.451-8.619-34.678 1.17-9.238 9.789-8.708 25.196 1.181 34.346l-18.285 19.386c-20.681-19.133-21.789-51.357-2.469-71.84z" fill="#E1E1E1"/>
        <path d="M239.192 293.313c25.331 23.437 28.366 61.532 4.698 86.62l-25.704-22.182c11.31-11.996 13.767-28.005 1.662-39.217l19.344-25.221z" fill="#ECECEC"/>
        <path d="m215.523 359.354 15.262 30.212c6.781-2.689 12.442-6.257 16.646-10.959l-27.415-22.158-4.493 2.905z" fill="#E1E1E1"/>
        <path d="M273.086 80.483c-.602-37.746 29.583-68.946 67.296-69.56 37.713-.604 68.886 29.608 69.5 67.354.602 37.746-29.583 68.946-67.296 69.561-37.713.603-68.886-29.608-69.5-67.355zm101.106-1.627c-.289-18.047-15.2-32.502-33.232-32.2-18.031.289-32.473 15.213-32.184 33.26.289 18.048 15.2 32.503 33.232 32.213 18.044-.301 32.474-15.226 32.184-33.273z" fill="#FAFAFA"/>
        <path d="M273.086 80.483c-.602-37.746 29.583-68.946 67.296-69.56l.578 35.72c-18.031.29-32.473 15.214-32.184 33.262.289 18.047 15.2 32.49 33.232 32.2l.578 35.721c-37.713.615-68.886-29.596-69.5-67.343z" fill="#E1E1E1"/>
        <path d="M334.251 5.425c44.121-.711 79.317 33.406 80.028 77.566l-41.761.675c-.337-21.11-16.465-34.407-37.556-34.07l-.711-44.171z" fill="#F0F0F0"/>
        <path d="m135.94 320.535 223.196-1.615v3.134l-223.196 2.014v-3.533z" fill="#1A2E35"/>
        <path d="m131.074 93.407 5.071 228.997 222.991-1.748V89.573l-228.062 3.834z" fill="#fff"/>
        <path d="M131.074 93.407c2.313-.036 91.374-1.651 228.05-4.11h.277v.276c.012 66.15.024 144.21.036 227.49v3.906h-.313c-81.594.627-158.032 1.206-222.979 1.7h-.265v-.265c-2.879-137.229-4.758-226.67-4.806-228.997.048 2.327 2.144 91.756 5.348 228.985l-.277-.265c64.947-.519 141.385-1.134 222.979-1.785l-.313.314v-3.593c.012-83.28.024-161.34.048-227.49l.277.278c-136.688 2.133-225.749 3.52-228.062 3.556z" fill="#1A2E35"/>
        <path d="m130.171 94.95 229.941-1.314.277-9.668-230.218 1.446v9.536zM240.251 328.6c-.398.012-.795-1.784-.904-4.026-.108-2.242.121-4.087.518-4.099.398-.012.795 1.784.904 4.027.108 2.242-.121 4.086-.518 4.098z" fill="#1A2E35"/>
        <path d="M240.215 326.997c.024-.084.385-.108.987.133.302.12.651.313 1.012.602.362.29.735.688 1.024 1.218.626 1.037.795 2.725-.096 4.171-.217.362-.506.7-.855.989-.35.289-.783.506-1.229.639a4.117 4.117 0 0 1-2.807-.205 4.1 4.1 0 0 1-1.204-.82 3.688 3.688 0 0 1-.807-1.181 4.312 4.312 0 0 1-.217-2.592c.193-.808.59-1.519 1.12-2.038a3.997 3.997 0 0 1 1.747-.976 4.022 4.022 0 0 1 2.734.241c.578.301.795.591.747.663-.06.084-.374-.036-.928-.145-.542-.096-1.373-.144-2.252.193-.434.181-.867.446-1.205.844-.337.386-.59.904-.698 1.483-.097.579-.048 1.218.205 1.76.24.555.71.989 1.312 1.254a2.844 2.844 0 0 0 1.855.157c.579-.145 1.048-.519 1.374-.989.325-.47.505-1.037.542-1.555.024-.265 0-.519-.037-.76a4.148 4.148 0 0 0-.204-.687c-.362-.868-.976-1.447-1.41-1.784-.445-.362-.746-.518-.71-.615z" fill="#1A2E35"/>
        <path d="M273.327 218.725s-.049.012-.133.012c-.096 0-.229.012-.409.025-.362.012-.892.048-1.59.072-1.398.06-3.469.144-6.131.253-5.324.193-13.033.494-22.549.844-19.043.699-45.349 1.627-74.414 2.616-3.421.121-6.806.229-9.998.338l-.228.012-.013-.229c-2.035-26.728-3.83-50.502-5.095-67.608-.626-8.548-1.12-15.432-1.469-20.17-.169-2.374-.289-4.207-.374-5.449-.036-.627-.072-1.097-.084-1.41-.012-.157-.012-.277-.012-.362v-.12s.012.036.024.12c.012.085.024.205.036.362.024.313.073.795.133 1.41.108 1.242.265 3.075.458 5.449.385 4.738.927 11.622 1.614 20.157 1.349 17.095 3.204 40.869 5.251 67.596l-.253-.217c3.192-.108 6.577-.229 9.998-.349 29.052-1.001 55.371-1.869 74.414-2.484 9.528-.289 17.237-.53 22.561-.699 2.662-.072 4.733-.133 6.131-.169.698-.012 1.24-.024 1.602-.036h.409c.072.024.121.024.121.036z" fill="#375A64"/>
        <path d="M192.601 120.098v3.062l31.775-1.507v-2.591l-31.775 1.036z" fill="#1A2E35"/>
        <path d="M168.547 216.097h11.033l-1.734-30.006h-10.817l1.518 30.006z" fill="#42A6B8"/>
        <path d="M188.566 216.109h11.033l-1.735-41.941h-10.816l1.518 41.941z" fill="#96CFD9"/>
        <path d="M207.308 214.771h11.033l-1.722-54.913H205.79l1.518 54.913zM250.309 212.637h11.033l-1.735-74.841h-10.816l1.518 74.841z" fill="#42A6B8"/>
        <path d="M229.375 212.89h11.045l-1.734-64.413h-10.817l1.506 64.413z" fill="#96CFD9"/>
        <path d="M161.597 178.315c-.289-.446 19.441-13.611 44.061-29.404s44.82-28.234 45.097-27.776c.289.446-19.441 13.611-44.061 29.404-24.608 15.78-44.808 28.222-45.097 27.776z" fill="#42A6B8"/>
        <path d="M239.83 121.123c-.096-.518 7.046-2.303 15.984-3.99l2.264-.422-1.288 1.916-.073.109c-5.119 7.595-9.624 13.514-10.057 13.225-.446-.301 3.348-6.703 8.467-14.298l.073-.109.975 1.483c-8.937 1.676-16.249 2.604-16.345 2.086z" fill="#42A6B8"/>
        <path d="M167.029 226.236h11.539l.362 2.05h-11.901v-2.05zM187.457 225.38h11.539l.362 2.062h-11.901v-2.062zM208.488 224.777h11.539l.362 2.062h-11.901v-2.062zM228.193 224.295h11.54l.361 2.062h-11.901v-2.062zM252.597 223.572h11.551l.361 2.049h-11.912v-2.049z" fill="#1A2E35"/>
        <path d="M304.367 305.273c20.343 0 36.834-16.506 36.834-36.866 0-20.361-16.491-36.866-36.834-36.866-20.343 0-36.834 16.505-36.834 36.866 0 20.36 16.491 36.866 36.834 36.866z" fill="#FF4F5B"/>
        <path d="M304.367 305.273c20.343 0 36.834-16.506 36.834-36.866 0-20.361-16.491-36.866-36.834-36.866-20.343 0-36.834 16.505-36.834 36.866 0 20.36 16.491 36.866 36.834 36.866z" fill="#565F76"/>
        <path d="m304.367 268.407-35.942 8.089c-5.77-26.522 15.598-44.955 35.942-44.955" fill="#ACB3C3"/>
        <path d="m304.415 268.407-.241-36.866c27.125.012 40.568 24.834 36.231 44.726l-35.99-7.86z" fill="#FF4F5B"/>
        <path d="m304.415 268.407-.241-36.866c27.125.012 40.568 24.834 36.231 44.726l-35.99-7.86z" fill="#FF4F5B"/>
        <path d="m304.415 268.407-.241-36.866c27.125.012 40.568 24.834 36.231 44.726l-35.99-7.86z" fill="#717C98"/>
        <path d="M342.152 181.124c-.048.072-.723-.615-2.277-1.157-1.529-.567-4.011-.736-6.805.192-2.819.88-5.613 3.123-8.323 5.932-2.735 2.748-5.613 6.208-9.853 8.198-2.084.988-4.421 1.446-6.613 1.097-2.192-.338-4.083-1.29-5.866-2.11-1.77-.832-3.481-1.555-5.167-1.82-1.686-.278-3.288.024-4.625.578a9.897 9.897 0 0 0-4.939 4.63c-.699 1.494-.759 2.435-.831 2.423 0 0-.036-.953.614-2.52.675-1.507 2.18-3.665 4.987-4.931 1.385-.614 3.095-.952 4.878-.687 1.783.253 3.553.989 5.336 1.809 1.783.807 3.65 1.711 5.709 2.025 2.06.325 4.252-.121 6.252-1.061 4.071-1.905 6.926-5.28 9.708-8.041 2.746-2.797 5.661-5.1 8.6-5.956 2.891-.904 5.469-.651 7.023 0a7.218 7.218 0 0 1 1.686.941c.349.289.518.434.506.458zM345.259 204.946c0 .169-13.08.313-29.209.313-16.128 0-29.209-.144-29.209-.313s13.069-.314 29.209-.314c16.141 0 29.209.133 29.209.314z" fill="#1A2E35"/>
        <path d="M342.019 204.946c-.168 0-.313-7.451-.313-16.649s.145-16.649.313-16.649c.169 0 .313 7.451.313 16.649s-.144 16.649-.313 16.649zM292.731 190.925c-.036 0-.084-.12-.012-.349.06-.217.289-.495.663-.664.361-.144.927-.217 1.421.181.506.41.494 1.254.096 1.76-.349.531-1.144.82-1.698.483-.542-.326-.675-.868-.675-1.266.012-.41.193-.711.362-.856.168-.145.301-.157.325-.121.06.073-.325.35-.241.965.036.289.205.639.494.771.277.145.674.012.915-.337.241-.35.241-.76.012-.977-.216-.229-.602-.253-.879-.181-.59.145-.687.615-.783.591zM332.13 178.833c-.024-.024.024-.144.205-.265.181-.12.53-.193.903-.084.362.108.843.41.964 1.012.144.627-.373 1.266-.976 1.423-.59.205-1.385-.048-1.602-.639-.229-.579.012-1.085.253-1.374.265-.302.59-.434.807-.422.217 0 .325.084.313.108 0 .097-.457.06-.77.579-.145.241-.229.603-.085.88.121.277.506.398.904.277.397-.12.638-.434.59-.735-.024-.302-.301-.567-.554-.687-.53-.266-.904 0-.952-.073zM340.972 139.399c0 .169-12.672.314-28.294.314-15.635 0-28.294-.145-28.294-.314 0-.168 12.671-.313 28.294-.313 15.634 0 28.294.145 28.294.313zM340.972 147.272c0 .168-12.672.313-28.294.313-15.635 0-28.294-.145-28.294-.313 0-.169 12.671-.314 28.294-.314 15.634 0 28.294.133 28.294.314zM340.972 155.132c0 .169-12.672.313-28.294.313-15.635 0-28.294-.144-28.294-.313s12.671-.314 28.294-.314c15.634 0 28.294.145 28.294.314zM340.972 163.004c0 .169-12.672.314-28.294.314-15.635 0-28.294-.145-28.294-.314s12.671-.313 28.294-.313c15.634 0 28.294.144 28.294.313zM314.496 125.017h-30.112v2.544h30.112v-2.544zM190.192 251.312h-30.113v2.544h30.113v-2.544zM242.492 266.056c0 .169-18.273.313-40.809.313-22.548 0-40.821-.144-40.821-.313s18.273-.314 40.821-.314c22.524 0 40.809.145 40.809.314zM242.961 273.217c0 .169-18.597.313-41.531.313-22.946 0-41.532-.144-41.532-.313s18.598-.314 41.532-.314c22.934 0 41.531.145 41.531.314zM243.925 279.908c0 .168-18.706.313-41.773.313-23.078 0-41.772-.145-41.772-.313 0-.169 18.694-.314 41.772-.314 23.067 0 41.773.145 41.773.314zM203.814 287.081c0 .169-9.624.313-21.476.313-11.864 0-21.488-.144-21.488-.313s9.612-.314 21.488-.314c11.864 0 21.476.133 21.476.314z" fill="#1A2E35"/>
        <path d="M72.644 482.237v-10.898l-20.392-.133-.169 15.938 1.265.084c5.625.35 28.63 1.375 32.389.254 4.216-1.23-13.093-5.245-13.093-5.245z" fill="#42A6B8"/>
        <path d="M86.23 486.505c0 .193-7.624.35-17.031.35s-17.032-.157-17.032-.35c0-.193 7.624-.35 17.032-.35 9.395 0 17.032.157 17.032.35zM73.005 484.456c-.169-.097-.024-.676.421-1.242.434-.567.964-.856 1.096-.724.133.145-.144.627-.541 1.146-.41.518-.807.916-.976.82zM74.306 485.179c-.18-.072-.084-.723.314-1.411.397-.687.927-1.085 1.072-.964.156.12-.109.687-.47 1.314-.374.639-.735 1.133-.916 1.061z" fill="#1A2E35"/>
        <path d="M58.298 486.421c-.084.06-.385-.229-.83-.712-.446-.482-1.037-1.157-1.808-1.712-.758-.554-1.59-.831-2.192-.904-.614-.084-1.012 0-1.048-.096-.036-.073.338-.35 1.06-.398.711-.06 1.723.193 2.59.832.867.639 1.433 1.422 1.783 1.977.361.579.518.964.445 1.013zM73.065 482.406c.097.169-.253.555-.843.76-.578.205-1.096.12-1.132-.061-.024-.193.385-.41.891-.59.53-.181.988-.278 1.084-.109z" fill="#1A2E35"/>
        <path d="M72.752 481.357c.012.193-.53.35-1.217.362-.686.012-1.24-.145-1.228-.338.012-.193.554-.361 1.216-.361.663 0 1.205.144 1.229.337z" fill="#FF4F5B"/>
        <path d="M86.23 486.505c0 .193-7.624.35-17.031.35s-17.032-.157-17.032-.35c0-.193 7.624-.35 17.032-.35 9.395 0 17.032.157 17.032.35zM73.005 484.456c-.169-.097-.024-.676.421-1.242.434-.567.964-.856 1.096-.724.133.145-.144.627-.541 1.146-.41.518-.807.916-.976.82zM74.306 485.179c-.18-.072-.084-.723.314-1.411.397-.687.927-1.085 1.072-.964.156.12-.109.687-.47 1.314-.374.639-.735 1.133-.916 1.061z" fill="#1A2E35"/>
        <path d="M58.298 486.421c-.084.06-.385-.229-.83-.712-.446-.482-1.037-1.157-1.808-1.712-.758-.554-1.59-.831-2.192-.904-.614-.084-1.012 0-1.048-.096-.036-.073.338-.35 1.06-.398.711-.06 1.723.193 2.59.832.867.639 1.433 1.422 1.783 1.977.361.579.518.964.445 1.013zM73.065 482.406c.097.169-.253.555-.843.76-.578.205-1.096.12-1.132-.061-.024-.193.385-.41.891-.59.53-.181.988-.278 1.084-.109zM72.752 481.357c.012.193-.53.35-1.217.362-.686.012-1.24-.145-1.228-.338.012-.193.554-.361 1.216-.361.663 0 1.205.144 1.229.337z" fill="#1A2E35"/>
        <path d="m94.156 478.367 3.228-10.404-19.44-6.172-4.879 15.178 1.18.458c5.277 2.001 26.934 9.801 30.86 9.85 4.397.06-10.949-8.91-10.949-8.91z" fill="#42A6B8"/>
        <path d="M105.864 486.469c-.06.181-7.383-1.929-16.369-4.714s-16.225-5.196-16.165-5.377c.06-.181 7.384 1.929 16.382 4.714 8.973 2.785 16.212 5.196 16.152 5.377zM93.844 480.598c-.133-.133.18-.651.77-1.061.59-.41 1.18-.543 1.265-.362.084.169-.325.555-.867.941-.542.373-1.036.626-1.168.482zM94.88 481.671c-.145-.121.132-.712.722-1.254.59-.53 1.205-.76 1.313-.603.109.157-.301.627-.843 1.109-.554.507-1.048.868-1.193.748z" fill="#1A2E35"/>
        <path d="M79.22 478.126c-.096.037-.3-.337-.578-.928-.289-.591-.65-1.41-1.216-2.17-.566-.759-1.265-1.266-1.831-1.519-.566-.253-.976-.301-.976-.398-.012-.084.434-.229 1.133-.06.698.157 1.578.699 2.228 1.567.638.868.94 1.772 1.12 2.423.169.639.205 1.049.12 1.085z" fill="#375A64"/>
        <path d="M94.506 478.669c.048.181-.41.446-1.024.47-.615.024-1.084-.205-1.06-.398.024-.193.494-.277 1.036-.301.542-.024 1.011.036 1.048.229zM94.518 477.56c-.036.193-.603.181-1.265-.012-.662-.193-1.132-.507-1.072-.675.072-.181.638-.181 1.265.012.626.181 1.108.494 1.072.675z" fill="#1A2E35"/>
        <path d="m107.996 266.707-26.752-2.062-40.556-3.291 4.53 218.002 35.207-.458s-.036-2.423-.084-6.679l20.633 5.654s20.115-68.006 26.981-95.926c5.734-23.28-19.959-115.24-19.959-115.24zM79.968 438.319c-.543-50.321-1.145-135.879-.41-146.356 0 0 19.597 75.336 19.79 81.279.108 3.629-10.804 38.398-19.38 65.077z" fill="#375A64"/>
        <path d="M80.618 470.628c0 .193-7.877.349-17.586.349-9.72 0-17.586-.156-17.586-.349 0-.193 7.878-.35 17.586-.35 9.72 0 17.586.157 17.586.35zM80.316 462.792c.037-.097 1.157.313 3.228 1.024 2.289.796 5.035 1.76 8.059 2.821 3.023 1.061 5.77 2.014 8.058 2.809 2.059.736 3.324 1.206 3.3 1.302-.024.085-1.349-.229-3.445-.832a161.911 161.911 0 0 1-8.142-2.628 159.302 159.302 0 0 1-7.998-3.014c-2.036-.819-3.096-1.398-3.06-1.482zM112.561 372.591c.012.193-2.951.567-6.637.844-3.673.278-6.673.35-6.685.157-.012-.193 2.951-.567 6.637-.844 3.674-.277 6.673-.35 6.685-.157z" fill="#375A64"/>
        <path d="M110.273 376.546c-.048.18-2.325-.314-5.083-1.109-2.758-.796-4.939-1.592-4.89-1.773.048-.18 2.324.314 5.083 1.109 2.758.796 4.938 1.592 4.89 1.773zM82.786 264.922c.084 0 .156 1.592.193 4.16.036 2.568.036 6.112.012 10.018-.024 1.953-.049 3.809-.073 5.521-.024 1.7-.24 3.292-.83 4.497-.567 1.206-1.374 1.965-1.976 2.375-.614.41-1.012.506-1.024.482-.024-.048.337-.217.88-.675a6.185 6.185 0 0 0 1.722-2.363c.494-1.145.662-2.64.662-4.328.012-1.712.012-3.568.024-5.521.036-3.918.097-7.463.181-10.018.06-2.556.145-4.148.229-4.148zM62.647 263.705c.012 0 .012.181.012.53-.012.386-.024.904-.036 1.555-.048 1.411-.109 3.424-.193 6.004-.169 5.244-.41 12.779-.71 22.074a2943.509 2943.509 0 0 0-1.29 72.852c-.144 28.464.181 54.226.555 72.864.204 9.295.373 16.83.493 22.074.06 2.58.097 4.606.133 6.004.012.663.012 1.181.024 1.567 0 .35 0 .531-.012.531s-.024-.181-.048-.531c-.024-.386-.048-.892-.085-1.555-.06-1.398-.144-3.424-.253-6.004-.204-5.208-.445-12.754-.686-22.073-.482-18.651-.88-44.413-.735-72.889.145-28.463.795-54.214 1.47-72.864.337-9.319.65-16.866.915-22.074.133-2.58.241-4.593.313-5.992.036-.663.073-1.181.097-1.555 0-.337.024-.518.036-.518z" fill="#375A64"/>
        <path d="M99.251 269.19c.012 0 .073.169.181.494.108.362.265.844.458 1.471.385 1.302 1 3.195 1.674 5.678 1.385 4.955 3.252 12.153 5.336 21.11 2.084 8.957 4.409 19.651 6.818 31.562 2.397 11.911 4.95 25.027 7.251 38.867.289 1.724.542 3.46.783 5.184.036.458.084.928.084 1.374l-.217 1.278c-.156.856-.265 1.712-.458 2.544a195.557 195.557 0 0 1-2.3 9.837c-1.638 6.414-3.373 12.55-5.083 18.385-3.397 11.67-6.673 22.11-9.456 30.875-2.794 8.752-5.107 15.816-6.745 20.699a11021.5 11021.5 0 0 0-1.903 5.606 217.01 217.01 0 0 0-.506 1.447c-.12.325-.18.494-.193.482-.012 0 .037-.169.133-.507.108-.361.265-.843.458-1.47.421-1.314 1.023-3.219 1.794-5.642 1.554-4.931 3.795-12.008 6.553-20.748 2.722-8.777 5.962-19.229 9.323-30.899 1.686-5.835 3.409-11.971 5.035-18.372.819-3.195 1.602-6.474 2.276-9.802.193-.832.301-1.675.458-2.519l.217-1.266c-.012-.41-.061-.808-.085-1.206a157.06 157.06 0 0 0-.771-5.16c-2.288-13.827-4.83-26.944-7.19-38.855-2.385-11.911-4.662-22.616-6.685-31.574-2.036-8.957-3.831-16.178-5.144-21.145-.638-2.484-1.216-4.4-1.566-5.702l-.397-1.483c-.108-.374-.145-.543-.133-.543zM79.86 433.918c.047 0 .072.603.108 1.712.012 1.218.036 2.773.072 4.654.06 4.038.144 9.403.229 15.322.156 5.932.313 11.285.421 15.323.049 1.869.097 3.424.133 4.642.024 1.097.012 1.711-.036 1.711-.049 0-.12-.602-.217-1.699a192.74 192.74 0 0 1-.325-4.642c-.241-3.918-.482-9.343-.603-15.335-.12-5.991-.12-11.416-.048-15.346.036-1.965.085-3.557.133-4.654.036-1.073.084-1.688.132-1.688z" fill="#375A64"/>
        <path d="m107.996 266.707-26.752-2.062-40.556-3.291 4.53 218.002 35.207-.458s-.036-2.423-.084-6.679l20.633 5.654s20.115-68.006 26.981-95.926c5.734-23.28-19.959-115.24-19.959-115.24zM79.968 438.319c-.543-50.321-1.145-135.879-.41-146.356 0 0 19.597 75.336 19.79 81.279.108 3.629-10.804 38.398-19.38 65.077z" fill="#1A2E35"/>
        <path d="M80.618 470.628c0 .193-7.877.349-17.586.349-9.72 0-17.586-.156-17.586-.349 0-.193 7.878-.35 17.586-.35 9.72 0 17.586.157 17.586.35zM80.316 462.792c.037-.097 1.157.313 3.228 1.024 2.289.796 5.035 1.76 8.059 2.821 3.023 1.061 5.77 2.014 8.058 2.809 2.059.736 3.324 1.206 3.3 1.302-.024.085-1.349-.229-3.445-.832a161.911 161.911 0 0 1-8.142-2.628 159.302 159.302 0 0 1-7.998-3.014c-2.036-.819-3.096-1.398-3.06-1.482zM112.561 372.591c.012.193-2.951.567-6.637.844-3.673.278-6.673.35-6.685.157-.012-.193 2.951-.567 6.637-.844 3.674-.277 6.673-.35 6.685-.157z" fill="#375A64"/>
        <path d="M110.273 376.546c-.048.18-2.325-.314-5.083-1.109-2.758-.796-4.939-1.592-4.89-1.773.048-.18 2.324.314 5.083 1.109 2.758.796 4.938 1.592 4.89 1.773zM82.786 264.922c.084 0 .156 1.592.193 4.16.036 2.568.036 6.112.012 10.018-.024 1.953-.049 3.809-.073 5.521-.024 1.7-.24 3.292-.83 4.497-.567 1.206-1.374 1.965-1.976 2.375-.614.41-1.012.506-1.024.482-.024-.048.337-.217.88-.675a6.185 6.185 0 0 0 1.722-2.363c.494-1.145.662-2.64.662-4.328.012-1.712.012-3.568.024-5.521.036-3.918.097-7.463.181-10.018.06-2.556.145-4.148.229-4.148zM62.647 263.705c.012 0 .012.181.012.53-.012.386-.024.904-.036 1.555-.048 1.411-.109 3.424-.193 6.004-.169 5.244-.41 12.779-.71 22.074a2943.509 2943.509 0 0 0-1.29 72.852c-.144 28.464.181 54.226.555 72.864.204 9.295.373 16.83.493 22.074.06 2.58.097 4.606.133 6.004.012.663.012 1.181.024 1.567 0 .35 0 .531-.012.531s-.024-.181-.048-.531c-.024-.386-.048-.892-.085-1.555-.06-1.398-.144-3.424-.253-6.004-.204-5.208-.445-12.754-.686-22.073-.482-18.651-.88-44.413-.735-72.889.145-28.463.795-54.214 1.47-72.864.337-9.319.65-16.866.915-22.074.133-2.58.241-4.593.313-5.992.036-.663.073-1.181.097-1.555 0-.337.024-.518.036-.518z" fill="#375A64"/>
        <path d="M99.251 269.19c.012 0 .073.169.181.494.108.362.265.844.458 1.471.385 1.302 1 3.195 1.674 5.678 1.385 4.955 3.252 12.153 5.336 21.11 2.084 8.957 4.409 19.651 6.818 31.562 2.397 11.911 4.95 25.027 7.251 38.867.289 1.724.542 3.46.783 5.184.036.458.084.928.084 1.374l-.217 1.278c-.156.856-.265 1.712-.458 2.544a195.557 195.557 0 0 1-2.3 9.837c-1.638 6.414-3.373 12.55-5.083 18.385-3.397 11.67-6.673 22.11-9.456 30.875-2.794 8.752-5.107 15.816-6.745 20.699a11021.5 11021.5 0 0 0-1.903 5.606 217.01 217.01 0 0 0-.506 1.447c-.12.325-.18.494-.193.482-.012 0 .037-.169.133-.507.108-.361.265-.843.458-1.47.421-1.314 1.023-3.219 1.794-5.642 1.554-4.931 3.795-12.008 6.553-20.748 2.722-8.777 5.962-19.229 9.323-30.899 1.686-5.835 3.409-11.971 5.035-18.372.819-3.195 1.602-6.474 2.276-9.802.193-.832.301-1.675.458-2.519l.217-1.266c-.012-.41-.061-.808-.085-1.206a157.06 157.06 0 0 0-.771-5.16c-2.288-13.827-4.83-26.944-7.19-38.855-2.385-11.911-4.662-22.616-6.685-31.574-2.036-8.957-3.831-16.178-5.144-21.145-.638-2.484-1.216-4.4-1.566-5.702l-.397-1.483c-.108-.374-.145-.543-.133-.543zM79.86 433.918c.047 0 .072.603.108 1.712.012 1.218.036 2.773.072 4.654.06 4.038.144 9.403.229 15.322.156 5.932.313 11.285.421 15.323.049 1.869.097 3.424.133 4.642.024 1.097.012 1.711-.036 1.711-.049 0-.12-.602-.217-1.699a192.74 192.74 0 0 1-.325-4.642c-.241-3.918-.482-9.343-.603-15.335-.12-5.991-.12-11.416-.048-15.346.036-1.965.085-3.557.133-4.654.036-1.073.084-1.688.132-1.688z" fill="#375A64"/>
        <path d="m61.84 162.1 20.464 1.519c.277-2.375.675-11.573.675-11.573s8.54-.796 9.166-9.259c.626-8.463.361-28.005.361-28.005a29.413 29.413 0 0 0-29.775 1.892l-1.313.892.422 44.534z" fill="#F4BBAC"/>
        <path d="M89.664 129.212a1.236 1.236 0 1 1 1.747.024 1.246 1.246 0 0 1-1.747-.024z" fill="#1A2E35"/>
        <path d="M91.832 127.404c-.145.132-.928-.555-2.096-.627-1.168-.096-2.048.47-2.168.313-.06-.072.084-.325.482-.578.373-.253 1.023-.482 1.746-.434.723.048 1.325.373 1.662.687.326.301.434.579.374.639zM78.34 127.597c.555.385.688 1.157.302 1.712a1.232 1.232 0 0 1-1.71.301 1.234 1.234 0 0 1-.302-1.712 1.21 1.21 0 0 1 1.71-.301z" fill="#1A2E35"/>
        <path d="M79.112 127.645c-.144.133-.927-.555-2.096-.627-1.168-.096-2.047.47-2.168.314-.06-.073.084-.326.482-.579a2.905 2.905 0 0 1 1.746-.434c.723.048 1.325.374 1.663.687.325.301.433.579.373.639zM83.184 137.567c0-.085.722-.181 1.903-.265.3-.013.554-.061.602-.242.072-.192-.036-.53-.157-.904-.252-.783-.505-1.591-.77-2.423-1.06-3.46-1.795-6.293-1.627-6.353.17-.048 1.169 2.712 2.229 6.16.253.844.494 1.652.722 2.447.097.362.278.784.097 1.266a.787.787 0 0 1-.542.446c-.205.049-.374.037-.518.037-1.205-.025-1.927-.085-1.94-.169z" fill="#1A2E35"/>
        <path d="M79.317 138.616c-1.168-.796 3.228 1.989 5.613 2.013 0 0-1.494 2.098-3.879 1.049-2.469-1.085-1.734-3.062-1.734-3.062z" fill="#fff"/>
        <path d="M82.991 151.913s-5.372.108-10.84-3.822c0 0 2.228 6.257 10.72 6.016l.12-2.194z" fill="#EF8876"/>
        <path d="M63.032 125.065c-.18-.072-6.276-.868-5.697 6.341.578 7.198 7.648 4.244 7.648 4.027 0-.193-1.951-10.368-1.951-10.368z" fill="#F4BBAC"/>
        <path d="M62.574 133.094c-.036-.024-.12.097-.325.217a1.294 1.294 0 0 1-.94.097c-.783-.217-1.517-1.375-1.662-2.677a4.085 4.085 0 0 1 .205-1.82c.18-.543.494-.94.867-1.037a.638.638 0 0 1 .771.289c.108.193.084.338.12.35.025.012.145-.133.06-.422-.035-.145-.144-.301-.325-.434-.18-.132-.445-.181-.71-.132-.554.084-1.012.638-1.217 1.217a4.332 4.332 0 0 0-.277 2.038c.157 1.446 1.012 2.748 2.072 2.965.518.097.927-.096 1.132-.277.23-.205.253-.362.23-.374z" fill="#EF8876"/>
        <path d="M93.12 111.732c1.94-.061 3.505-2.231 2.951-4.087-.554-1.857-3.047-2.821-4.71-1.809.952-.904 1.928-1.844 2.422-3.05.505-1.205.397-2.773-.603-3.629-.975-.831-2.48-.723-3.661-.216-1.795.771-3.216 2.29-5.06 2.929-1.866.651-3.914.326-5.89.41-2.18.096-4.384.735-6.094 2.11-1.482 1.193-2.542 2.965-2.71 4.846a10.561 10.561 0 0 0-.783-.916c-1.674-1.736-3.541-2.435-3.59-2.279-.084.169 1.566 1.073 3.144 2.713.446.446.82.904 1.156 1.314-2.746-.338-5.77-.362-7.937 1.35-1.843 1.459-2.65 3.918-2.662 6.269 0 2.351.963 4.581 1.65 6.824v-.013c.41 1.315.843 1.773.843 1.773l1.024 6.076 3.77-.073-.24-12.646s-.374-5.329 4.203-4.858c4.577.47 10.804 5.63 19.73 4.328 1.445-.217 2.95-.374 4.155-1.194s2.072-2.254 1.903-3.701c-.156-1.459-1.578-2.737-3.01-2.471z" fill="#1A2E35"/>
        <path d="m169.715 174.132.555-3.822s.71-2.255 1.06-6.414a9.32 9.32 0 0 0-.29-3.207c-.337-1.265-.843-2.941-1.409-3.761-.698-1.025.217-2.363 1.277-1.989 1.06.374 3.047 3.146 3.71 7.077.662 3.93 3.758-1.519 4.914-3.484 1.169-1.966 5.047-7.885 5.938-8.005 1.301-.181 1.735 1.181.518 3.122-1.228 1.965-4.42 8.005-3.348 8.572 0 0 1.614-.242 2.433.108.277.121.458.301.458.579.012 1.121.204 1.796.204 1.796s1.566-.35 1.892.326c.325.687.301 2.182.301 2.182s1.204-.41 1.782.036c1.241.976-.337 2.664-.337 2.664-3.686 4.822-11.407 11.983-11.407 11.983l-8.299-8.005" fill="#F4BBAC"/>
        <path d="M185.169 164.981c.06.048-.433.844-1.409 2.014a29.863 29.863 0 0 1-1.795 1.965c-.361.349-.698.735-1.192 1.085-.47.349-1.253.578-1.903.193-.338-.181-.566-.579-.591-.929a1.689 1.689 0 0 1 .217-.964c.313-.543.675-.892.964-1.29a42.834 42.834 0 0 0 1.542-2.122c.831-1.242 1.301-2.049 1.385-2.013.072.036-.253.916-1 2.242a22.176 22.176 0 0 1-1.457 2.242c-.289.41-.663.82-.88 1.23-.216.398-.204.892.145 1.073.373.205.855.121 1.253-.157.397-.265.77-.663 1.132-.988a54.846 54.846 0 0 0 1.867-1.845c1.024-1.097 1.65-1.796 1.722-1.736z" fill="#EF8876"/>
        <path d="M187.266 167.453c.06.06-.434.723-1.35 1.724a14.046 14.046 0 0 1-1.77 1.603c-.374.277-.759.53-1.217.772-.241.12-.494.217-.795.253-.289.036-.674-.012-.951-.253-.554-.519-.458-1.278-.205-1.761.265-.494.59-.819.867-1.169.518-.615 1.024-1.218 1.518-1.796.879-1.013 1.457-1.616 1.518-1.555.072.048-.386.747-1.181 1.832-.458.603-.927 1.23-1.409 1.881-.265.349-.578.711-.759 1.085-.193.349-.169.807.072 1 .217.205.675.121 1.072-.072.398-.205.795-.446 1.145-.687.71-.494 1.301-1.013 1.794-1.447.976-.904 1.59-1.471 1.651-1.41z" fill="#EF8876"/>
        <path d="M187.771 170.901c.06.036-.024.53-.566 1.205-.278.314-.735.675-1.386.711a1.448 1.448 0 0 1-.951-.325c-.289-.217-.482-.639-.47-1.025.06-.771.458-1.242.723-1.7.289-.446.578-.832.831-1.145.506-.627.891-.94.951-.892.073.06-.192.482-.59 1.145-.253.422-.482.808-.698 1.182-.241.446-.579.952-.591 1.41-.036.434.398.736.795.748.41.012.807-.205 1.072-.446.53-.471.795-.929.88-.868z" fill="#EF8876"/>
        <path d="M168.824 169.165s-31.594 31.103-36.027 31.32c-5.059.241-20.621-21.845-20.621-21.845-9.949-15.383-23.103-17.866-27.885-18.252l.025-1.905-23.537-1.929s.037 2.026-.012 3.798l-10.419.012s-18.67-.856-21.476 24.244l13.418 10.621 5.505 20.494c1.915 7.125-4.915 18.506-8.19 36.903-.53 2.99-.073 5.594 1.457 8.969l67.994 7.824-3.589-52.02-1.096-12.031c5.589 7.655 15.682 18.481 27.98 18.252 21.019-.41 50.216-44.57 50.216-44.57l-13.743-9.885z" fill="#E1E1E1"/>
        <path d="M76.317 158.17c.073 0 .085 1.205-.048 3.219-.144 2.001-.397 4.81-1.084 7.969l-.084.397-.361-.193a54.92 54.92 0 0 1-2.542-1.41c-3.373-1.989-6.251-4.039-8.371-5.449-2.108-1.435-3.445-2.279-3.397-2.351.024-.036.385.133 1.012.458.626.338 1.53.844 2.626 1.519 2.192 1.326 5.107 3.315 8.443 5.28a68.11 68.11 0 0 0 2.506 1.399l-.446.205c.698-3.11 1.036-5.895 1.277-7.872.265-1.978.385-3.183.47-3.171z" fill="#FAFAFA"/>
        <path d="M84.352 160.533c.084.024-.241 1.181-.675 3.074-.229.94-.47 2.073-.879 3.315a18.39 18.39 0 0 1-.759 1.905c-.096.181-.204.374-.433.543-.23.18-.687.132-.88-.097-.349-.422-.373-.735-.542-1.085a299.772 299.772 0 0 1-2.854-7.028c-.699-1.809-1.096-2.954-1.012-2.99.084-.036.614 1.049 1.421 2.809.807 1.772 1.867 4.231 3.023 6.956.145.313.29.747.41.88.06.048.036.036.108.012a.79.79 0 0 0 .217-.277c.301-.615.554-1.23.76-1.821.42-1.193.71-2.314.999-3.243.542-1.856 1.012-2.977 1.096-2.953z" fill="#FAFAFA"/>
        <path d="M79.931 244.741c-.024 0-.048-.301-.096-.856-.036-.626-.084-1.446-.145-2.459-.096-2.206-.24-5.292-.41-9.066-.288-7.715-.686-18.264-1.132-29.91-.373-11.658-.698-22.194-.951-29.922-.084-3.773-.169-6.859-.217-9.066-.012-1.024-.024-1.844-.024-2.471 0-.567.012-.856.036-.868.024 0 .048.289.097.856l.144 2.459c.096 2.206.241 5.293.41 9.066.289 7.716.686 18.264 1.132 29.91.373 11.646.698 22.195.951 29.91.085 3.774.17 6.86.217 9.066.012 1.025.024 1.844.024 2.471-.012.579-.024.88-.036.88z" fill="#F5F5F5"/>
        <path d="m75.68 165.777 1.963 5.461 1.698-5.859-2.625-5.859-1.036 6.257z" fill="#42A6B8"/>
        <path d="m78.004 169.599-1.29 61.351 9.24 19.361 3.65-21.796-11.6-58.916z" fill="#42A6B8"/>
        <path d="M133.135 208.056c.048.012.048.181 0 .482l-.073.458-.204-.458c-.277-.639-.699-2.085-.795-3.797-.169-2.423.349-4.352.506-4.316.18.024-.049 1.941.12 4.268.096 1.663.361 3.086.446 3.773h-.265c.12-.289.216-.434.265-.41zM135.845 207.887c-.145.085-1.145-1.35-1.952-3.339-.807-1.989-1.084-3.725-.915-3.762.169-.048.711 1.58 1.494 3.521.782 1.953 1.517 3.484 1.373 3.58zM180.556 181.907c-.096.145-3.445-1.953-7.48-4.677-4.035-2.725-7.227-5.052-7.131-5.196.097-.145 3.445 1.953 7.48 4.677 4.036 2.725 7.228 5.052 7.131 5.196z" fill="#FAFAFA"/>
        <path d="M49.24 191.769s-5.01 34.925-2.637 36.914c13.105 11.031 31.305 16.806 37.821 18.626.94-.229 2.06-.53 3.337-.928a10.022 10.022 0 0 0 3.06-1.591c1.12-.856 2.565-2.038 3.155-2.942.723-1.109 2.42-.76 2.493.446.06 1.206-1.867 4.316-5.492 6.582 0 0 8.347 13.442 11.009 14.648 2.662 1.206 10.274 4.641 8.985 5.305-1.288.663-10.563-2.038-10.563-2.038l-18.79-5.027s-62.153-9.753-58.01-38.289c2.542-17.493 5.3-33.249 6.312-37.24l19.32 5.534z" fill="#F4BBAC"/>
        <path d="m28.86 184.608-5.577 38.096c-1.289 11.73 6.565 21.049 17.128 26.293 16.08 7.981 39.954 13.659 39.761 13.623-.325-.06 1.614-17.011 1.614-17.011s-33.473-14.515-34.521-20.747c-1.048-6.233 4.252-32.297 4.252-32.297l-22.657-7.957z" fill="#E1E1E1"/>
        <path d="M80.172 262.632c-.012 0-.012-.096 0-.301.012-.242.036-.531.048-.881.06-.819.157-1.953.265-3.387.265-2.99.627-7.234 1.084-12.454l.12.217c-4.793-2.326-10.502-5.087-16.826-8.161-1.59-.772-3.204-1.568-4.866-2.375a64.018 64.018 0 0 1-4.89-2.869 49.337 49.337 0 0 1-4.746-3.485 35.5 35.5 0 0 1-2.24-2.025c-.338-.325-.772-.771-.976-1.278a3.85 3.85 0 0 1-.277-.759 5.676 5.676 0 0 1-.17-.784c-.541-4.159.567-8.101 1.145-11.839.65-3.761 1.277-7.402 1.88-10.862 1.204-6.908 2.3-13.14 3.215-18.397.47-2.616.88-4.979.843-7.076 0-2.098-.457-3.87-1.084-5.196-.626-1.338-1.397-2.206-1.975-2.725-.578-.518-.94-.723-.915-.759 0 0 .385.156 1 .663.602.494 1.433 1.362 2.107 2.712.675 1.338 1.18 3.159 1.217 5.293.06 2.134-.313 4.545-.76 7.161-.878 5.256-1.926 11.501-3.083 18.421-.59 3.472-1.204 7.101-1.842 10.874-.17.94-.326 1.893-.494 2.857-.193.94-.362 1.905-.494 2.881-.241 1.929-.446 3.943-.145 5.896.024.241.084.482.157.711.048.241.132.458.24.663.17.434.483.735.844 1.097.71.699 1.445 1.362 2.192 2.001a46.74 46.74 0 0 0 4.686 3.448 66.815 66.815 0 0 0 4.842 2.857c1.65.82 3.276 1.616 4.854 2.387 6.3 3.111 11.985 5.92 16.755 8.283l.144.072-.012.157c-.542 5.22-.975 9.451-1.277 12.441-.156 1.423-.289 2.556-.373 3.376-.048.349-.084.639-.108.88-.049.156-.073.265-.085.265z" fill="#FAFAFA"/>
        <path d="M77.077 243.295c.084.012 0 1-.205 2.604a119.362 119.362 0 0 1-.987 6.196 87.077 87.077 0 0 1-1.362 6.137c-.41 1.555-.734 2.495-.819 2.471-.084-.024.085-1.001.386-2.58l1.18-6.148c.88-4.81 1.626-8.716 1.807-8.68z" fill="#FAFAFA"/>
        <path d="M80.172 262.632c0 .024-.205-.012-.59-.096-.446-.109-1-.242-1.65-.398-1.53-.398-3.566-.929-6.047-1.58-5.095-1.386-12.178-3.182-19.766-5.979-3.794-1.399-7.323-2.966-10.407-4.642-3.084-1.663-5.733-3.411-7.83-5.039a42.157 42.157 0 0 1-4.697-4.171 22.517 22.517 0 0 1-1.144-1.254c-.253-.301-.373-.458-.361-.47.036-.036.602.554 1.686 1.555a55.563 55.563 0 0 0 4.782 3.991c2.12 1.567 4.758 3.255 7.829 4.882 3.072 1.628 6.589 3.159 10.359 4.557 7.54 2.773 14.61 4.641 19.67 6.136a4102.5 4102.5 0 0 1 5.998 1.773c.65.205 1.18.373 1.626.518.361.121.554.193.542.217zM80.594 247.369a1.079 1.079 0 1 1-2.157.039 1.079 1.079 0 0 1 2.157-.039z" fill="#FAFAFA"/>
    </g>
    <defs>
        <clipPath id="7veones4ta">
            <path fill="#fff" d="M0 0h420v488H0z"/>
        </clipPath>
    </defs>
</svg>
