<svg width="1440" height="74" viewBox="0 0 1440 74" fill="none" xmlns="http://www.w3.org/2000/svg">
    <path fill="#006455" d="M0 0h1440v69.134H0z"/>
    <path fill="#8E908F" d="M0 69h1440v5H0z"/>
    <g clip-path="url(#0mht3h8pea)" fill-rule="evenodd" clip-rule="evenodd" fill="#fff">
        <path d="M841.328 38.972v-.661a1.944 1.944 0 0 0 1.401-.588c.364-.398.626-.88.762-1.401.14-.488.214-.991.221-1.498a4.018 4.018 0 0 0-.299-1.599 2.488 2.488 0 0 0-.781-1.107 2.105 2.105 0 0 0-1.208-.39h-.096v-.639h.022a5.35 5.35 0 0 1 1.866.322c.496.18.943.474 1.304.859.355.346.617.776.763 1.25.178.479.27.986.271 1.497a3.97 3.97 0 0 1-.345 1.65 3.253 3.253 0 0 1-.918 1.226 3.904 3.904 0 0 1-1.379.762 6.322 6.322 0 0 1-1.584.317zm0-7.883v.639a2.042 2.042 0 0 0-1.769 1.033 4.948 4.948 0 0 0-.616 2.628c.007.55.131 1.092.363 1.59.167.407.45.757.813 1.006.333.224.725.344 1.126.344h.101v.662h-.124a5.205 5.205 0 0 1-1.769-.317 3.436 3.436 0 0 1-1.621-1.153 3.492 3.492 0 0 1-.712-2.297.26.26 0 0 0 .027-.143c.005-.478.087-.953.244-1.405.174-.469.432-.902.762-1.278a3.452 3.452 0 0 1 1.3-.918 4.515 4.515 0 0 1 1.893-.368l-.018-.023zm-19.997 7.883v-.661a2.032 2.032 0 0 0 1.424-.588c.368-.396.63-.878.762-1.401.122-.49.188-.993.198-1.498a4.607 4.607 0 0 0-.271-1.599 2.753 2.753 0 0 0-.809-1.107 2.04 2.04 0 0 0-1.208-.39h-.096v-.639h.059a5.236 5.236 0 0 1 1.838.322 3.426 3.426 0 0 1 2.09 2.108c.169.481.251.988.244 1.498a3.895 3.895 0 0 1-.322 1.65 3.413 3.413 0 0 1-.919 1.226 3.935 3.935 0 0 1-1.378.762 6.267 6.267 0 0 1-1.622.317h.01zm9.922-1.865h.244c.065.333.238.635.491.86.292.232.656.354 1.029.344.336.014.664-.1.919-.317a1.15 1.15 0 0 0 0-1.622 3.5 3.5 0 0 0-1.102-.666 4.16 4.16 0 0 1-1.011-.565 2.088 2.088 0 0 1-.611-.712 2.176 2.176 0 0 1-.221-1.006 2.303 2.303 0 0 1 .294-1.153c.184-.366.476-.666.837-.86.45-.218.946-.328 1.447-.32.325 0 .649.05.96.146.267.071.517.197.735.368a4.872 4.872 0 0 1-.17.542c-.051.197-.124.367-.175.565h-.17a1.38 1.38 0 0 0-.459-.69 1.242 1.242 0 0 0-.809-.27c-.808 0-1.203.367-1.203 1.107 0 .418.321.786.96 1.107l.808.39a2.84 2.84 0 0 1 1.254 1.007c.213.383.323.815.317 1.254.005.355-.088.705-.271 1.01a2.148 2.148 0 0 1-.661.758c-.278.205-.589.36-.919.46a4.129 4.129 0 0 1-1.079.142 3.463 3.463 0 0 1-1.746-.46c.134-.465.239-.94.312-1.419zm-9.922-6.018v.639a2.11 2.11 0 0 0-1.769 1.029 5.244 5.244 0 0 0-.588 2.632c-.005.54.103 1.075.317 1.571.184.404.473.752.836 1.006.328.22.712.34 1.107.345h.097v.661h-.124a5.395 5.395 0 0 1-1.764-.317 3.671 3.671 0 0 1-1.622-1.153 3.632 3.632 0 0 1-.717-2.297.261.261 0 0 0 .028-.142 4.33 4.33 0 0 1 .271-1.406c.173-.463.421-.894.735-1.277.365-.405.82-.72 1.328-.919a4.385 4.385 0 0 1 1.865-.367v-.005zm-8.729 5.577v-1.915c.565-.175.859-.666.887-1.475a1.72 1.72 0 0 0-.198-.887.843.843 0 0 0-.459-.413.767.767 0 0 1-.22-.05v-.64h.243c.39-.012.78.03 1.158.125.272.104.516.271.712.487a1.536 1.536 0 0 1 .459 1.18 1.827 1.827 0 0 1-.537 1.379 2.78 2.78 0 0 1-1.181.615c.248.436.492.832.712 1.149.221.317.492.79.887 1.378.395.588.638 1.033.785 1.254a7.242 7.242 0 0 0-.983-.074 7.888 7.888 0 0 0-1.033.074c-.198-.372-.46-.836-.763-1.35a13.86 13.86 0 0 0-.459-.837h-.01zm0-5.38v.64a2.643 2.643 0 0 0-.491-.028h-.368v2.949h.244c.209.01.419-.023.615-.096v1.915c-.073-.147-.174-.294-.22-.395a21.692 21.692 0 0 0-.565-.955h-.074v3.537a5.626 5.626 0 0 0-.836-.074 5.89 5.89 0 0 0-.836.074v-7.566h2.531zm-55.727 7.466v-.712c1.203-.317 1.814-1.378 1.814-3.193 0-1.057-.22-1.837-.684-2.26a2.394 2.394 0 0 0-1.13-.588v-.712h.317a3.406 3.406 0 0 1 1.621.39c.528.259.965.67 1.255 1.18a3.83 3.83 0 0 1 .459 1.916 4.734 4.734 0 0 1-.496 2.063 3.136 3.136 0 0 1-1.378 1.429c-.543.3-1.149.466-1.769.487h-.009zm5.793.027v-7.492h4.203a26.25 26.25 0 0 1-.096.491c0 .124.046.271.073.46-.717-.1-1.44-.15-2.164-.152h-.367v2.334h1.424c.355.012.71-.02 1.057-.097v.317a.61.61 0 0 0-.028.22c.033.152.05.306.051.46a6.439 6.439 0 0 0-1.328-.124h-1.153v2.802c.853 0 1.706-.048 2.554-.147a4.73 4.73 0 0 0-.096.515c.035.137.059.277.073.418l-4.203-.005zm6.266-7.492.836.073c.107-.008.214-.008.321 0 .17-.028.342-.045.515-.05v6.707c.712 0 1.548-.05 2.531-.147-.028.12-.074.294-.101.487-.028.193.05.27.073.46h-4.175v-7.53zm9.973 5.82h.22c.071.33.243.63.492.86.294.231.659.353 1.033.344.336.017.666-.096.919-.317a1.02 1.02 0 0 0 .368-.813 1.108 1.108 0 0 0-.345-.809 3.325 3.325 0 0 0-1.102-.661 4.733 4.733 0 0 1-1.011-.57 2.172 2.172 0 0 1-.616-.712 2.231 2.231 0 0 1-.192-1.006c-.012-.401.081-.8.271-1.153.185-.372.487-.674.859-.86.441-.22.93-.33 1.424-.32.325.001.649.05.96.146.273.078.529.204.758.372a4.817 4.817 0 0 0-.17.538c-.074.197-.124.367-.198.565h-.147a1.588 1.588 0 0 0-.459-.69c-.22-.182-.5-.278-.786-.27-.808 0-1.226.372-1.226 1.107 0 .418.321.786.96 1.107l.808.395c.508.205.945.555 1.255 1.006.213.382.322.813.317 1.25 0 .351-.083.698-.244 1.01a2.565 2.565 0 0 1-.689.758 3.071 3.071 0 0 1-.919.46 4.007 4.007 0 0 1-1.056.147 3.6 3.6 0 0 1-1.769-.46c.136-.46.241-.928.317-1.4l-.032-.024zm6.339 1.672v-7.492h4.222c0 .124-.069.27-.096.491.032.152.056.306.073.46a16.285 16.285 0 0 0-2.159-.152h-.349v2.334h1.428c.355.012.71-.02 1.057-.097a1.26 1.26 0 0 1-.05.317.74.74 0 0 1 0 .22c0 .125.045.3.073.46a6.432 6.432 0 0 0-1.328-.124h-1.18v2.802c.853 0 1.706-.049 2.554-.147-.046.193-.069.368-.097.515-.027.147.051.27.074.418l-4.222-.005zm5.871-3.537c.007-.492.089-.98.244-1.447.146-.492.397-.946.735-1.332a3.8 3.8 0 0 1 1.405-.979 5.927 5.927 0 0 1 2.136-.395 5.27 5.27 0 0 1 2.674.662 3.97 3.97 0 0 0-.193.592 4.703 4.703 0 0 0-.124.538h-.147a2.194 2.194 0 0 0-.983-.86 2.96 2.96 0 0 0-1.176-.27 2.333 2.333 0 0 0-1.107.248 2.445 2.445 0 0 0-.859.689c-.258.33-.45.705-.565 1.107-.13.48-.205.973-.225 1.47a3.754 3.754 0 0 0 .321 1.622c.209.432.526.804.919 1.08a2.59 2.59 0 0 0 1.277.394c.468-.03.926-.147 1.351-.344V35.44c.277.037.556.052.836.046.279.005.559-.01.836-.046v3.045a9.476 9.476 0 0 1-2.949.492 5.59 5.59 0 0 1-1.548-.198 4.056 4.056 0 0 1-1.379-.615 3.25 3.25 0 0 1-1.065-1.185 3.774 3.774 0 0 1-.395-1.746l-.019.01zm9.826.735v-4.69c.267.047.538.072.809.073.28-.001.56-.026.836-.073v4.221a5.34 5.34 0 0 0 .096 1.108c.039.266.123.524.248.762a1.842 1.842 0 0 0 1.594.836c.33.017.658-.043.961-.174.274-.126.511-.32.689-.565.215-.324.35-.694.395-1.08.072-.463.104-.932.096-1.401v-3.707a.927.927 0 0 1 .221.023h.193a.6.6 0 0 1 .225 0c.096 0 .17-.023.243-.023v4.001a6.672 6.672 0 0 1-.17 1.672 2.061 2.061 0 0 1-.615 1.13c-.208.18-.43.344-.662.492-.249.13-.512.228-.785.294-.34.073-.687.105-1.034.096a3.677 3.677 0 0 1-2.651-.882 3.032 3.032 0 0 1-.689-2.113zm-44.068-4.69v.712a6.054 6.054 0 0 0-.689-.05h-1.13v6.192h1.033c.266.005.531-.029.786-.101v.712a2.81 2.81 0 0 1-.492.027h-2.949v-7.492h3.441zm-13.515 7.69v-.666a1.937 1.937 0 0 0 1.401-.588c.366-.397.628-.878.763-1.401.14-.488.214-.991.22-1.498a4.015 4.015 0 0 0-.294-1.599 2.46 2.46 0 0 0-.785-1.102 2.001 2.001 0 0 0-1.204-.395h-.101v-.639h.027a5.374 5.374 0 0 1 1.866.322c.495.181.942.475 1.304.859.352.354.621.783.786 1.254.16.483.244.989.248 1.498a4.436 4.436 0 0 1-.322 1.644c-.211.472-.525.891-.919 1.227a3.862 3.862 0 0 1-1.378.762 6.48 6.48 0 0 1-1.612.322zm0-7.888v.639a2.059 2.059 0 0 0-1.769 1.033 5.015 5.015 0 0 0-.611 2.628c.001.542.119 1.078.345 1.571.163.408.445.759.808 1.006a2.01 2.01 0 0 0 1.13.345h.097v.666h-.12a5.192 5.192 0 0 1-1.768-.322 3.528 3.528 0 0 1-1.622-1.153 3.48 3.48 0 0 1-.712-2.297.303.303 0 0 0 .023-.142c.003-.48.095-.955.271-1.401a3.613 3.613 0 0 1 2.026-2.196 4.513 4.513 0 0 1 1.888-.367l.014-.01zm-18.715 5.453v-.684h1.006l-.983-2.554-.023.073v-2.14l.023-.047c.073 0 .124.023.197.023h.221c.139 0 .279-.008.418-.023l3.091 7.626c-.119 0-.294-.028-.514-.028a3.043 3.043 0 0 1-.492-.022 2.247 2.247 0 0 1-.459.023c-.152.02-.306.03-.459.027a47.88 47.88 0 0 0-.763-2.297l-1.263.023zm5.788 2.274v-7.53h1.107c.322.345.689.763 1.107 1.204.418.441.809.92 1.254 1.379.446.459.832.886 1.227 1.327.395.441.762.836 1.13 1.254v-5.163c.046 0 .124.023.197.023a.498.498 0 0 1 .221.027.48.48 0 0 1 .22-.027c.097 0 .17-.023.221-.023v7.566l-.919-.023c-1.226-1.355-2.164-2.384-2.756-3.073-.593-.69-1.351-1.447-2.136-2.26v5.32c-.074 0-.147-.029-.244-.029a.674.674 0 0 1-.248-.022.458.458 0 0 1-.197.023c-.078.027-.152.027-.184.027zm-5.788-7.58v2.136l-1.011 2.486h1.011v.684h-1.305c-.046.12-.119.368-.266.758-.147.39-.248.666-.322.887-.077.209-.143.422-.197.638-.046 0-.147-.027-.267-.027a.88.88 0 0 1-.271-.023.67.67 0 0 1-.248.023.806.806 0 0 1-.243.027l3.119-7.593v.004zm-49.205 7.74v-.665a2.042 2.042 0 0 0 1.425-.588 3.26 3.26 0 0 0 .762-1.401c.122-.49.189-.993.198-1.498a4.513 4.513 0 0 0-.271-1.599 2.694 2.694 0 0 0-.814-1.102 2.016 2.016 0 0 0-1.199-.395h-.101v-.639h.051a5.325 5.325 0 0 1 1.837.322c.503.177.957.472 1.323.859.349.352.611.782.763 1.254.173.48.257.987.248 1.498a3.937 3.937 0 0 1-.321 1.644c-.205.478-.52.9-.919 1.231a3.797 3.797 0 0 1-1.378.758 6.247 6.247 0 0 1-1.594.322h-.01zm9.505-.123c.198-1.103.395-2.334.593-3.675.197-1.342.39-2.628.537-3.905.078 0 .175.023.248.023.074 0 .17.028.221.05.15-.039.304-.063.459-.073.565 1.227 1.401 2.95 2.531 5.182.244-.46.46-.919.689-1.35.23-.432.46-.837.616-1.181.156-.345.367-.758.611-1.25l.666-1.401c.164.011.327.036.487.073.152-.032.305-.057.459-.073.097.813.17 1.498.221 2.012.05.515.124 1.084.197 1.7.074.615.17 1.203.244 1.814.073.611.17 1.305.294 2.04a5.281 5.281 0 0 0-.919-.073c-.308 0-.615.024-.919.073a11.426 11.426 0 0 0-.073-1.254c-.028-.413-.051-.786-.101-1.08-.051-.294-.074-.762-.12-1.327s-.124-1.057-.174-1.475a198.056 198.056 0 0 0-2.43 5.053h-.418c-.124-.294-.345-.74-.639-1.327-.294-.588-.519-1.057-.666-1.35a59.525 59.525 0 0 1-.565-1.181c-.221-.469-.418-.832-.538-1.103-.073.492-.151 1.08-.22 1.741-.069.662-.124 1.305-.175 1.87-.05.565-.073 1.033-.073 1.424a1.086 1.086 0 0 0-.248-.023 1.745 1.745 0 0 0-.267-.05 2.97 2.97 0 0 1-.519.073l-.009.023zm11.025-.074v-7.492h4.204a4.29 4.29 0 0 0-.074.491c.017.155.041.308.074.46a16.72 16.72 0 0 0-2.187-.147h-.345v2.333h1.424c.355.01.71-.023 1.057-.1 0 .123 0 .22-.051.316-.05.097-.023.152-.023.225 0 .074.051.294.074.46a6.425 6.425 0 0 0-1.328-.124h-1.153v2.802c.846 0 1.691-.05 2.532-.147-.028.193-.051.367-.074.514-.023.148.046.272.074.419l-4.204-.01zm8.035-3.44-2.237-4.052c.395.023.712.05.96.073l.983-.073 1.378 2.678 1.644-2.678c.079 0 .175.023.271.023.092-.01.184 0 .272.027a.916.916 0 0 1 .294-.027c.124 0 .225-.023.271-.023l-2.334 3.316a297.736 297.736 0 0 1 2.297 4.25c-.175-.023-.492-.023-.919-.074-.459.05-.785.05-.978.074l-1.429-2.825c-.538.836-.919 1.4-1.13 1.745-.211.345-.391.69-.588 1.057-.051 0-.147-.028-.271-.028a.716.716 0 0 1-.244-.023.916.916 0 0 1-.294.023c-.098.021-.198.03-.298.028.248-.322.615-.86 1.13-1.622.514-.762.919-1.35 1.254-1.87h-.032zm5.871-4.052c.174.023.459.023.813.073.367-.05.638-.05.808-.073v7.566a5.132 5.132 0 0 0-.859-.074c-.256 0-.511.025-.762.074v-7.566zm3.675 4.029a4.302 4.302 0 0 1 .762-2.605 3.645 3.645 0 0 1 1.695-1.277 5.664 5.664 0 0 1 1.838-.345c.489-.003.976.063 1.447.198.323.063.634.18.919.344-.097.294-.175.685-.271 1.13h-.147a2.647 2.647 0 0 0-.836-.74 2.059 2.059 0 0 0-.983-.27 2.3 2.3 0 0 0-1.324.418c-.411.289-.73.69-.918 1.158a4.454 4.454 0 0 0-.322 1.814 4.128 4.128 0 0 0 .294 1.622c.174.459.483.855.887 1.134.431.278.934.422 1.447.414a3.106 3.106 0 0 0 1.966-.809l.147.05-.248.956c-.677.341-1.43.5-2.187.46a4.828 4.828 0 0 1-1.718-.294 4.466 4.466 0 0 1-1.323-.786 3.644 3.644 0 0 1-1.107-2.582l-.018.01zm-96.011-4.03c.17.024.459.024.809.074.367-.05.638-.05.813-.073v7.566a4.94 4.94 0 0 0-.859-.074c-.256 0-.512.025-.763.074v-7.566zm57.923-.197v.639a2.116 2.116 0 0 0-1.768 1.033 5.227 5.227 0 0 0-.588 2.628c-.008.54.1 1.076.317 1.571.174.411.465.762.836 1.01.328.22.713.338 1.107.34h.096v.667h-.156a5.431 5.431 0 0 1-1.768-.322 3.671 3.671 0 0 1-1.622-1.153 3.676 3.676 0 0 1-.712-2.297.287.287 0 0 0 .027-.147 4.44 4.44 0 0 1 .267-1.4c.162-.47.413-.904.74-1.278a3.414 3.414 0 0 1 1.327-.919 4.313 4.313 0 0 1 1.865-.372h.032zm-53.623 7.727v-7.53h1.098c.317.345.684.763 1.102 1.204.418.441.836.92 1.277 1.379.441.459.836.882 1.232 1.323.395.44.757.836 1.13 1.254v-5.16c.046 0 .119.024.22.024a.46.46 0 0 1 .198.027.457.457 0 0 1 .22-.027c.097 0 .17-.023.244-.023v7.566l-.919-.023c-1.227-1.35-2.164-2.384-2.756-3.073-.593-.69-1.351-1.447-2.141-2.26v5.32c-.074 0-.147-.029-.244-.029a.626.626 0 0 1-.243-.022.461.461 0 0 1-.198.023c-.073 0-.147.027-.197.027h-.023zm9.164-1.723h.203c.067.333.239.636.491.864.293.23.657.35 1.029.34.326.016.645-.098.887-.317a1.014 1.014 0 0 0 .367-.808 1.087 1.087 0 0 0-.321-.814 3.59 3.59 0 0 0-1.103-.661 4.355 4.355 0 0 1-1.006-.565 2.15 2.15 0 0 1-.615-.712 2.196 2.196 0 0 1-.221-1.01 2.303 2.303 0 0 1 .294-1.154c.183-.366.475-.666.836-.859a3.216 3.216 0 0 1 1.447-.321c.326 0 .65.052.96.151.268.071.518.196.735.368a4.817 4.817 0 0 1-.17.537c-.05.198-.124.372-.174.565h-.17a1.413 1.413 0 0 0-.46-.689 1.254 1.254 0 0 0-.813-.266c-.808 0-1.203.367-1.203 1.102 0 .418.321.786.96 1.107l.808.395a2.84 2.84 0 0 1 1.254 1.006c.215.383.324.816.317 1.255.004.353-.088.7-.266 1.005-.16.303-.388.564-.666.763a3.069 3.069 0 0 1-.919.46 4.133 4.133 0 0 1-1.079.146 3.511 3.511 0 0 1-1.746-.459c.137-.46.244-.928.322-1.401l.022-.028zm7.759 1.723v-6.744a10.85 10.85 0 0 0-2.062.175.863.863 0 0 1 .027-.248v-.46a.99.99 0 0 1-.027-.27h5.673c-.023.174-.046.344-.073.519-.028.174.05.317.073.459-.659-.1-1.323-.158-1.989-.175v6.744c-.096 0-.243-.028-.418-.028-.153.008-.307 0-.459-.022-.121.022-.245.03-.368.023-.174 0-.294.027-.395.027h.018zm5.628-7.543c.17.023.459.023.808.073.345-.05.639-.05.813-.073v7.566a5.123 5.123 0 0 0-.859-.073c-.256 0-.511.025-.762.073v-7.566zm5.673 7.543v-6.744a10.85 10.85 0 0 0-2.062.175.985.985 0 0 1 .023-.248v-.46a1.174 1.174 0 0 1-.023-.27h5.65c-.003.172-.02.344-.051.514.029.152.046.305.051.46-.651-.1-1.308-.159-1.966-.175v6.748c-.101 0-.244-.028-.418-.028-.154.008-.308 0-.46-.022-.121.022-.244.03-.367.023-.175 0-.322.027-.395.027h.018zm5.577-2.848v-4.681c.269.047.541.072.813.073.279-.001.557-.026.832-.073v4.226c-.005.372.029.743.101 1.107a1.808 1.808 0 0 0 1.865 1.594c.315.012.63-.047.919-.174.278-.118.517-.313.689-.56.225-.32.359-.695.39-1.085.075-.455.109-.917.101-1.378v-3.712a.893.893 0 0 1 .221.023c.096 0 .174 0 .197.028a.46.46 0 0 1 .221-.028c.096 0 .197-.023.243-.023v4.006a6.635 6.635 0 0 1-.17 1.668c-.076.433-.292.83-.615 1.13-.2.19-.422.355-.662.491-.24.132-.496.231-.762.294a4.666 4.666 0 0 1-1.057.101 3.677 3.677 0 0 1-2.651-.886 3.025 3.025 0 0 1-.689-2.109l.014-.032zm10.612 2.848v-6.744a10.86 10.86 0 0 0-2.063.175c0-.074.023-.147.023-.248s.028-.147.028-.198a2.211 2.211 0 0 1-.028-.243c0-.101-.023-.198-.023-.271h5.674c0 .174-.046.344-.074.519-.028.174.051.317.074.46a15.89 15.89 0 0 0-1.99-.175v6.725c-.096 0-.243-.028-.418-.028-.153.009-.307 0-.459-.022-.121.022-.245.03-.368.023-.156.027-.28.027-.376.027zM862.427 36.542v-.69h1.011l-.983-2.549-.028.074v-2.141l.028-.05c.073 0 .119.023.197.023h.216c.248 0 .395-.023.423-.023l3.068 7.63c-.124 0-.294-.028-.514-.028a3.032 3.032 0 0 1-.492-.023c-.152.023-.306.031-.459.023-.152.021-.306.03-.459.028-.221-.763-.492-1.525-.758-2.297l-1.25.023zm5.724-5.255c.294.023.565.046.813.073.114-.017.229-.026.345-.027.193 0 .367-.046.487-.046v6.706c.739 0 1.575-.05 2.558-.147a2.188 2.188 0 0 0-.101.488c.028.123.051.27.074.459h-4.176v-7.506zm-21.223 4.028a4.132 4.132 0 0 1 .739-2.604 3.776 3.776 0 0 1 1.691-1.277 5.808 5.808 0 0 1 1.869-.345c.482-.004.962.063 1.424.198.325.058.636.174.919.344-.073.294-.17.685-.271 1.126h-.124a2.703 2.703 0 0 0-.859-.735 2.007 2.007 0 0 0-.983-.271 2.3 2.3 0 0 0-1.328.418c-.413.287-.733.69-.918 1.157a4.517 4.517 0 0 0-.345 1.815 4.128 4.128 0 0 0 .294 1.621c.177.466.499.862.919 1.13.428.284.933.43 1.447.418a2.799 2.799 0 0 0 1.034-.22c.343-.132.655-.332.918-.588l.17.046-.271.96c-.666.341-1.411.5-2.159.46a4.895 4.895 0 0 1-1.745-.295 3.992 3.992 0 0 1-1.314-.776 3.598 3.598 0 0 1-.836-1.176 3.977 3.977 0 0 1-.271-1.401v-.005zm15.499-4.079v2.136l-1.006 2.48h1.006v.69h-1.3c-.05.124-.124.367-.271.762-.147.395-.243.662-.317.887-.08.208-.146.422-.197.639-.051 0-.147-.028-.272-.028a.922.922 0 0 1-.271-.023.668.668 0 0 1-.248.023.726.726 0 0 1-.216.028l3.092-7.594zm-6.656.05c.174.023.459.023.813.074.367-.05.638-.05.808-.073v7.566a4.911 4.911 0 0 0-.859-.074c-.256 0-.511.025-.762.074v-7.566zM752.024 46.988v-.524h.749l-.749-1.893v-1.57a.273.273 0 0 1 .147.027h.151c.108 0 .216-.01.322-.028l2.297 5.683a1.564 1.564 0 0 0-.395-.028c-.117.007-.234 0-.349-.023-.108.023-.217.03-.326.023a1.214 1.214 0 0 0-.35.028 22.11 22.11 0 0 0-.574-1.695h-.923zm3.675-3.914c.225.027.422.027.625.05.075-.002.15-.01.225-.023.147 0 .271-.027.372-.027v4.984c.546 0 1.171-.05 1.892-.124-.023.101-.05.225-.073.377.03.105.047.212.05.321h-3.091v-5.558zm-3.675 0v1.57l-.749 1.839h.749v.523h-.974a5.312 5.312 0 0 0-.198.547c-.101.276-.197.5-.248.675-.05.175-.101.299-.151.46-.023-.028-.097-.028-.198-.028a.546.546 0 0 1-.202-.023c-.023.023-.096.023-.17.023a.323.323 0 0 0-.174.028l2.296-5.633.019.019zm-13.984 5.71v-.5a1.343 1.343 0 0 0 1.048-.423c.267-.302.463-.66.574-1.048a4.56 4.56 0 0 0 .147-1.12c.005-.4-.062-.797-.198-1.172a2.078 2.078 0 0 0-.597-.822 1.415 1.415 0 0 0-.896-.299h-.078v-.45h.028c.472-.015.941.07 1.378.248a2.563 2.563 0 0 1 1.543 1.543c.131.36.2.739.203 1.121a2.67 2.67 0 0 1-.253 1.222c-.148.355-.378.67-.671.919a3.805 3.805 0 0 1-1.02.574 4.806 4.806 0 0 1-1.199.225l-.009-.018zm3.588-2.72a3.26 3.26 0 0 1 .551-1.915 2.905 2.905 0 0 1 1.268-.974 4.64 4.64 0 0 1 1.378-.248c.364-.004.726.046 1.075.147.238.054.464.147.671.276-.051.197-.124.5-.198.822h-.101a1.864 1.864 0 0 0-.62-.547 1.635 1.635 0 0 0-.749-.202c-.347 0-.686.104-.973.299-.308.222-.55.523-.699.872-.166.43-.25.886-.248 1.346-.009.41.068.817.225 1.195.131.346.365.643.671.85.318.205.692.309 1.07.298.266-.004.528-.053.777-.147.248-.113.475-.269.67-.46l.124.051-.197.699c-.49.26-1.041.38-1.594.349a3.585 3.585 0 0 1-1.296-.225 2.715 2.715 0 0 1-.973-.575 2.398 2.398 0 0 1-.598-.895 2.514 2.514 0 0 1-.225-1.025l-.009.01zm6.004-2.99c.129 0 .326.027.602.05.276.023.459-.05.597-.05v5.609a4.846 4.846 0 0 0-.625-.05c-.192.003-.384.02-.574.05v-5.61zm-9.592-.124v.46a1.532 1.532 0 0 0-1.318.748 3.753 3.753 0 0 0-.46 1.943c.012.402.096.8.249 1.172.14.299.355.557.624.748.241.169.529.255.823.248h.073v.501h-.096a4.273 4.273 0 0 1-1.3-.225 2.78 2.78 0 0 1-1.218-.873 2.833 2.833 0 0 1-.524-1.695.145.145 0 0 0 0-.096c0-.36.069-.715.203-1.048a2.76 2.76 0 0 1 .546-.946c.262-.308.595-.548.97-.698.438-.176.905-.27 1.378-.276l.05.037zm-12.83 5.705v-.546c.896-.225 1.346-1.025 1.346-2.37a2.207 2.207 0 0 0-.524-1.668 1.61 1.61 0 0 0-.822-.423v-.551h.225c.425 0 .845.102 1.222.298.384.196.703.5.919.873.237.435.358.924.349 1.42a3.326 3.326 0 0 1-.349 1.52c-.241.45-.604.823-1.048 1.075a3.57 3.57 0 0 1-1.318.372zm5.93-1.245h.147c.067.246.197.47.377.648.223.166.494.254.772.248a.99.99 0 0 0 .671-.225.789.789 0 0 0 .248-.62.797.797 0 0 0-.221-.574 2.981 2.981 0 0 0-.822-.501 2.496 2.496 0 0 1-.749-.423 1.509 1.509 0 0 1-.634-1.295c.005-.293.074-.582.202-.845.149-.268.375-.486.648-.625.332-.165.699-.25 1.07-.248.238.005.473.047.699.124.208.051.403.145.574.276a7.225 7.225 0 0 0-.152.395c-.05.147-.073.275-.124.4h-.124a1.102 1.102 0 0 0-.321-.497 1.046 1.046 0 0 0-.602-.202c-.597 0-.896.276-.896.822 0 .303.225.575.698.822l.62.3c.378.146.699.408.919.748.154.281.232.598.225.919a1.52 1.52 0 0 1-.67 1.295 2.532 2.532 0 0 1-.726.35c-.252.069-.511.103-.772.1a2.5 2.5 0 0 1-1.318-.349c.123-.345.21-.702.261-1.066v.023zm-5.93-4.313v.551a1.615 1.615 0 0 0-.501-.078h-.845v4.594h.749c.201.003.402-.021.597-.074v.547h-2.541v-5.559l2.541.019zm-6.262 3.89v-.523h.749l-.749-1.893-.027.051v-1.571l.027-.05a.279.279 0 0 1 .147.027h.152c.108-.002.215-.011.322-.028l2.269 5.683a1.503 1.503 0 0 0-.372-.028 1.847 1.847 0 0 1-.377-.023c-.106.022-.214.03-.321.023-.11-.008-.22.001-.327.028-.174-.574-.372-1.121-.574-1.695h-.919zm0-3.936v1.571l-.744 1.837h.744v.524h-.969l-.202.552a8.984 8.984 0 0 0-.221.67 2.391 2.391 0 0 0-.151.46.462.462 0 0 0-.198-.028.46.46 0 0 1-.202-.023.379.379 0 0 1-.174.023.383.383 0 0 0-.198.027l2.297-5.632.018.019zm-5.512 5.581v-.546c.896-.225 1.346-1.025 1.346-2.366a2.216 2.216 0 0 0-.524-1.672 1.625 1.625 0 0 0-.822-.423v-.547h.225c.424-.003.843.1 1.217.3.386.19.706.493.919.867.229.438.339.927.322 1.42a3.084 3.084 0 0 1-.345 1.525 2.53 2.53 0 0 1-1.024 1.07 3.606 3.606 0 0 1-1.314.372zm0-5.553v.546a1.655 1.655 0 0 0-.524-.078h-.822v4.594h.744c.203.003.406-.022.602-.074v.547h-2.545v-5.535h2.545zm-8.48 4.005v-1.42a.984.984 0 0 0 .647-1.07 1.53 1.53 0 0 0-.124-.67.726.726 0 0 0-.376-.303 1.355 1.355 0 0 1-.147-.051v-.46h.17c.294-.016.589.017.872.097.196.082.374.2.524.35a1.111 1.111 0 0 1 .326.872 1.293 1.293 0 0 1-.376 1.02 2.1 2.1 0 0 1-.896.46c.202.32.376.596.523.845.147.248.4.597.671 1.02.271.422.46.748.574.918a7.147 7.147 0 0 0-.721-.05c-.225 0-.459.022-.749.05-.174-.276-.349-.597-.569-.997l-.349-.624v.013zm3.261-3.983c.124 0 .326.023.597.051.271.027.46-.05.602-.05v5.604a4.832 4.832 0 0 0-.625-.05c-.192.002-.384.02-.574.05V43.1zm-3.261 0v.46a1.686 1.686 0 0 0-.349-.023h-.299v2.168h.197c.157.004.313-.023.46-.078v1.456c-.051-.096-.129-.197-.175-.298-.128-.225-.275-.46-.427-.699h-.046v2.619a5.642 5.642 0 0 0-.602-.05 6.085 6.085 0 0 0-.62.05V43.1h1.861zm-5.513 3.91v-.524h.749l-.726-1.893-.023.05v-1.57l.023-.05a.302.302 0 0 1 .152.027h.151c.108-.004.215-.013.322-.028l2.265 5.683a1.47 1.47 0 0 0-.373-.028 1.792 1.792 0 0 1-.372-.023c-.107.023-.217.03-.326.023a1 1 0 0 0-.321.028c-.175-.574-.377-1.121-.575-1.695h-.946zm0-3.937v1.57l-.749 1.839h.749v.523h-.974c-.023.074-.096.276-.197.551-.101.276-.175.496-.225.671a2.65 2.65 0 0 0-.147.46.465.465 0 0 0-.203-.028.457.457 0 0 1-.197-.023.406.406 0 0 1-.175.023.41.41 0 0 0-.202.028l2.32-5.633v.019zm-5.513 5.581v-.546c.896-.225 1.346-1.025 1.346-2.366a2.213 2.213 0 0 0-.519-1.672 1.638 1.638 0 0 0-.827-.423v-.547h.226c.425-.003.845.1 1.222.299.391.183.713.488.918.868.249.43.37.923.349 1.42a3.064 3.064 0 0 1-.349 1.525c-.226.45-.581.822-1.02 1.07-.419.201-.872.32-1.336.35l-.01.022zm0-5.554v.547a1.595 1.595 0 0 0-.519-.078h-.822v4.594h.744a2.14 2.14 0 0 0 .597-.074v.547h-2.544v-5.559l2.544.023zm-13.418 5.683v-.5a1.339 1.339 0 0 0 1.047-.423c.266-.303.46-.66.57-1.048a4.61 4.61 0 0 0 .152-1.12 2.79 2.79 0 0 0-.226-1.172 1.837 1.837 0 0 0-.569-.822 1.416 1.416 0 0 0-.919-.299H680.494v-.45h.023c.471-.015.941.07 1.378.248.368.128.7.342.969.625a2.4 2.4 0 0 1 .574.918c.13.361.197.742.198 1.126.015.42-.071.837-.248 1.217-.15.354-.38.668-.671.919a3.773 3.773 0 0 1-1.024.574 4.748 4.748 0 0 1-1.195.225l.014-.018zm4.038-5.706c.225.023.423.023.597.051a1.29 1.29 0 0 0 .248-.028c.152 0 .276-.023.372-.023v4.98c.552 0 1.172-.05 1.898-.124a4.722 4.722 0 0 0-.079.377c.033.104.05.212.051.321h-3.087V43.08zm4.185 0c.124 0 .321.023.597.051.276.028.459-.05.597-.05v5.604a4.686 4.686 0 0 0-.62-.05c-.192.002-.384.02-.574.05v-5.605zm-8.223-.151v.482a1.532 1.532 0 0 0-1.318.749 3.753 3.753 0 0 0-.46 1.943c.007.403.091.8.248 1.172.14.299.355.557.625.748.241.169.529.255.822.248h.074v.501h-.101a4.255 4.255 0 0 1-1.296-.225 2.795 2.795 0 0 1-1.222-.873 2.86 2.86 0 0 1-.519-1.695.15.15 0 0 0 .023-.096c.001-.359.067-.714.198-1.048.118-.349.306-.67.551-.946.263-.307.595-.546.969-.698.439-.176.906-.27 1.378-.276l.028.014zm-20.057 5.705v-.546c.896-.225 1.346-1.025 1.346-2.366a2.296 2.296 0 0 0-.5-1.672 1.782 1.782 0 0 0-.846-.423v-.547h.226a2.49 2.49 0 0 1 1.217.3c.391.183.713.487.919.867.238.435.358.924.349 1.42a3.346 3.346 0 0 1-.349 1.525 2.586 2.586 0 0 1-1.048 1.07c-.41.211-.858.338-1.318.372h.004zm7.249-2.296a12.008 12.008 0 0 0-.459-.8c-.161-.253-.299-.57-.459-.896-.161-.326-.349-.62-.46-.895-.11-.276-.275-.497-.372-.671.248.023.496.05.744.05.234-.003.467-.02.699-.05.122.187.222.387.298.597.124.248.225.46.349.721.11.194.21.393.299.597.081.18.173.355.276.524.125-.164.234-.339.326-.523.124-.226.22-.46.321-.648.101-.189.198-.423.322-.721.124-.3.225-.46.253-.547.174.023.298.05.372.05.141-.01.282-.026.422-.05a4.944 4.944 0 0 1-.349.597 9.915 9.915 0 0 1-.524.919l-.459.822c-.124.225-.248.46-.4.726v2.54c-.1.001-.2-.008-.298-.027a1.243 1.243 0 0 1-.326-.023 5.16 5.16 0 0 1-.598.05v-2.342h.023zm5.931 1.047h.152c.062.246.19.47.372.648.223.165.494.252.771.248.245.006.484-.074.676-.226a.876.876 0 0 0 .023-1.194 2.802 2.802 0 0 0-.85-.5 2.737 2.737 0 0 1-.721-.423 1.421 1.421 0 0 1-.46-.524 1.544 1.544 0 0 1-.174-.772c.003-.292.071-.58.197-.845a1.58 1.58 0 0 1 .648-.625 2.296 2.296 0 0 1 1.07-.248c.231.004.459.046.676.124.206.053.4.146.569.276-.046.124-.096.248-.147.395-.05.147-.073.276-.124.4h-.087a1.297 1.297 0 0 0-.299-.496 1.029 1.029 0 0 0-.62-.212c-.602 0-.919.276-.919.822 0 .304.226.575.699.823l.624.303c.366.143.672.405.869.744.174.274.262.594.252.919a1.83 1.83 0 0 1-.174.749 1.776 1.776 0 0 1-.501.546 2.291 2.291 0 0 1-.698.35c-.251.07-.511.104-.772.1a2.501 2.501 0 0 1-1.318-.349c.122-.333.211-.678.266-1.028v-.005zm-13.18-4.31v.547a1.607 1.607 0 0 0-.5-.078h-.846v4.594h.749c.202.004.403-.02.597-.073v.546h-2.54v-5.53l2.54-.005zm-6.279 3.915v-.524h.748l-.721-1.893-.027.051v-1.571l.027-.05a.279.279 0 0 1 .147.027h.152c.108-.002.215-.011.321-.028l2.27 5.683a1.503 1.503 0 0 0-.372-.028 1.843 1.843 0 0 1-.377-.023c-.107.023-.217.03-.326.023a1.012 1.012 0 0 0-.322.028c-.174-.574-.372-1.121-.574-1.695h-.946zm0-3.937v1.571l-.745 1.837h.745v.524h-.97l-.202.552a9.39 9.39 0 0 0-.22.67c-.046.175-.101.299-.152.46a.458.458 0 0 0-.197-.028.462.462 0 0 1-.203-.023.388.388 0 0 1-.174.023c-.074 0-.147 0-.175.027l2.297-5.632-.004.019zm-5.513 5.581v-.546c.919-.225 1.346-1.02 1.346-2.366a2.216 2.216 0 0 0-.524-1.672 1.625 1.625 0 0 0-.822-.423v-.547h.221c.425-.003.845.1 1.222.3.384.192.704.494.918.867.239.437.359.927.349 1.424a3.34 3.34 0 0 1-.376 1.52c-.224.453-.58.826-1.02 1.071-.41.207-.856.333-1.314.372zm0-5.553v.546a1.655 1.655 0 0 0-.524-.078h-.822v4.594h.744a2.18 2.18 0 0 0 .602-.074v.547h-2.545v-5.535h2.545zm-8.462 4.005V45.66a.98.98 0 0 0 .648-1.07c.009-.23-.033-.46-.124-.67a.74.74 0 0 0-.354-.3c-.046-.027-.119-.027-.17-.055v-.459h.193c.295-.017.59.016.873.096.195.082.373.2.524.35a1.13 1.13 0 0 1 .349.872 1.328 1.328 0 0 1-.4 1.025 2.008 2.008 0 0 1-.896.46c.203.32.377.596.547.845.17.248.377.597.648 1.02.271.422.459.748.574.918a6.708 6.708 0 0 0-.721-.05c-.225 0-.46.022-.749.05-.175-.276-.349-.597-.57-.997l-.349-.62-.023.01zm3.262-3.987c.124 0 .321.023.597.05.276.028.459-.05.597-.05V48.7a4.686 4.686 0 0 0-.62-.05 4.349 4.349 0 0 0-.574.05v-5.604zm-26.01 4.309h.174c.043.253.175.483.372.648.212.17.478.257.749.248.244.01.483-.07.671-.225a.8.8 0 0 0 .276-.62.725.725 0 0 0-.249-.574 2.322 2.322 0 0 0-.822-.497 3.558 3.558 0 0 1-.749-.427 1.51 1.51 0 0 1-.459-.52 1.932 1.932 0 0 1-.147-.776 1.726 1.726 0 0 1 .198-.845 1.49 1.49 0 0 1 .624-.625c.333-.165.699-.25 1.071-.248.245.006.488.047.721.124.201.053.388.147.551.276-.05.124-.078.248-.128.4-.05.129-.092.26-.125.395h-.124a1.138 1.138 0 0 0-.349-.496.917.917 0 0 0-.597-.198c-.597 0-.896.271-.896.818 0 .303.248.574.722.826l.597.3c.378.143.7.404.919.743.17.276.256.595.248.92-.001.262-.069.52-.198.748a1.778 1.778 0 0 1-.501.547 2.161 2.161 0 0 1-.698.349c-.259.07-.526.104-.795.1a2.427 2.427 0 0 1-1.295-.348c.099-.344.174-.694.225-1.048l.014.005zm22.748-4.31v.46a1.677 1.677 0 0 0-.349-.023h-.303v2.173h.202c.157.004.313-.023.459-.078v1.456c-.05-.1-.128-.202-.179-.303-.124-.225-.248-.46-.395-.698h-.078V48.7a5.495 5.495 0 0 0-.597-.05 5.973 5.973 0 0 0-.62.05v-5.604h1.86zm-18.591 5.555v-5.573h3.115a3.131 3.131 0 0 0-.074.373c.035.105.052.215.051.326a11.397 11.397 0 0 0-1.594-.101h-.276v1.745h1.047c.269.006.537-.02.8-.078 0 .078-.028.147-.028.225v.152c0 .124 0 .22.051.344a5.872 5.872 0 0 0-.997-.073h-.85v2.067a15.973 15.973 0 0 0 1.893-.124 3.444 3.444 0 0 1-.074.377c.033.104.05.212.051.321l-3.115.019zm3.79-2.614a3.36 3.36 0 0 1 .175-1.098c.102-.364.289-.697.546-.974a2.523 2.523 0 0 1 1.048-.721 4.593 4.593 0 0 1 1.571-.299 4 4 0 0 1 2.007.464c-.059.15-.11.304-.151.46-.051.174-.074.298-.101.372h-.097a1.64 1.64 0 0 0-.749-.62 2.137 2.137 0 0 0-.873-.198 1.673 1.673 0 0 0-.799.175c-.251.123-.472.3-.648.519a2.736 2.736 0 0 0-.422.822 4.978 4.978 0 0 0-.175 1.098c.001.411.087.818.253 1.194.159.315.389.588.671.8.286.174.611.276.946.298.356-.017.704-.11 1.02-.276v-1.887c.198.04.4.056.602.05.208.007.416-.01.62-.05v2.264a7.136 7.136 0 0 1-2.192.377 4.643 4.643 0 0 1-1.148-.152 3.137 3.137 0 0 1-1.043-.459 2.52 2.52 0 0 1-.767-.882 3.016 3.016 0 0 1-.276-1.295l-.018.018zm6.725.5v-3.459c.225.023.423.051.598.051.174 0 .399-.028.624-.05v3.137c-.002.268.022.536.074.8.026.21.093.412.197.596a1.383 1.383 0 0 0 1.172.62c.248.009.495-.041.721-.146.198-.099.37-.244.501-.423a1.95 1.95 0 0 0 .298-.8c.052-.337.076-.678.074-1.02v-2.755c.051 0 .102.007.151.023h.322a.553.553 0 0 1 .175-.023v2.963a5.66 5.66 0 0 1-.124 1.245c-.059.317-.22.606-.46.822a3.018 3.018 0 0 1-.496.377 2.074 2.074 0 0 1-.574.22 3.453 3.453 0 0 1-.772.078 2.638 2.638 0 0 1-1.966-.675 2.212 2.212 0 0 1-.515-1.58zM593.078 27.446a5.871 5.871 0 0 0-.216 1.667c.058.72.247 1.424.556 2.077 1.231 2.416 2.224 3.914 2.848 6.643.46 1.883.676 3 .579 4.929a10.25 10.25 0 0 1-.193 1.57 22.873 22.873 0 0 0-1.787-6.546 25.53 25.53 0 0 0-1.713-3.454c-.579-1.015-2.274-3.335-2.463-3.625a3.408 3.408 0 0 1-.606-1.764c.046-.748.34-1.111.965-1.667 1.571-1.277 3.215-2.462 4.52-3.625.009.005-2.288 2.876-2.49 3.795zM589.802 43.051a5.907 5.907 0 0 1-.505 2.899 3.26 3.26 0 0 1-.822 1.162c-.317.218-.668.38-1.039.482-.941.216-1.548-.17-2.007-.22a2.758 2.758 0 0 0-1.498.197c-.386.216-.868.653-1.571.602a2.063 2.063 0 0 1-1.231-.602 1.599 1.599 0 0 0 .992 1.447c.342.12.71.137 1.061.051.244-.074.46-.34.846-.386.386-.046.51-.073.583.069.12.22-.487.266-.459.533.023.409 1.497 0 2.003 0a.164.164 0 0 1 .106.056.164.164 0 0 1 .041.114c.023.239-.34.409-.584.556a1.777 1.777 0 0 1-1.203.17c.661.26 1.366.391 2.076.386a5.216 5.216 0 0 0 2.32-.823 6.8 6.8 0 0 0 1.787-2.682 7.027 7.027 0 0 0 .312-4.3 7.197 7.197 0 0 0-1.254-2.876 7.487 7.487 0 0 0-1.594-1.64 7.355 7.355 0 0 0-1.791-.992 4.026 4.026 0 0 0-2.509-.193 2.478 2.478 0 0 0-1.332.941c-.18.253-.304.541-.363.846-.165.703.607 2.32.46 3.091a4.95 4.95 0 0 1-.529 1.452c-.413.822-.482.795-.872 1.64-.151.251-.272.52-.359.8a1.642 1.642 0 0 1 1.135-.749c.328-.037.661.012.965.142.176.078.333.194.459.34.108.097.198.212.266.34a.746.746 0 0 1 .46.096c.09.056.158.14.193.24.051.134.093.272.124.413a1.048 1.048 0 0 0-.074-.676.958.958 0 0 0-.266-.385.696.696 0 0 1-.46-.584.53.53 0 0 1 .29-.505 1.355 1.355 0 0 0-.046-.124c0-.046-.051-.143-.051-.12a.878.878 0 0 1-.578.363c-.193.05-.46-.142-.772-.17a1 1 0 0 0-.533.028 3.414 3.414 0 0 1 1.231-1.838 4.031 4.031 0 0 1 1.236-.533c.459-.12.721-.073 1.157-.17.227-.028.447-.093.653-.193.397-.23.716-.575.918-.987a2.257 2.257 0 0 1-1.571.794 3.41 3.41 0 0 1-1.86-.725c-.335-.29-1.084-1.204-1.015-1.884a1.38 1.38 0 0 1 .68-1.084 2.234 2.234 0 0 1 1.713-.17 7.15 7.15 0 0 1 1.328.483c.516.276.995.617 1.424 1.015a6.53 6.53 0 0 1 1.258 1.69c.367.672.595 1.411.671 2.173z"/>
        <path d="M608.862 25.755c-.17-3.188-.579-5.604-1.061-6.569a4.699 4.699 0 0 0-2.32-2.393 10.215 10.215 0 0 0-3.142-.726c-2.582-.17-4.975-.193-7.295-.363a71.588 71.588 0 0 0-4.516-.12 53.031 53.031 0 0 0-2.706 0c-1.015.028-1.474.028-2.756.028-1.061 0-2.995.046-4.135.046-1.254 0-6.206 0-8.503.652a6.888 6.888 0 0 0-1.69.676c-.415.267-.783.6-1.089.987a6.66 6.66 0 0 0-1.378 3.483c-.294 2.439-.267 2.995-.317 3.601 0 .165-.097 1.81-.193 2.99-.096 1.668-.142 4.254-.119 6.189.046 3.215 0 4.566.046 6.33.05 1.06.169 1.81.22 3.427.046.969.193 2.467.363 3.601.112.637.265 1.267.459 1.884.085.282.192.557.322.822a5.21 5.21 0 0 0 1.378 1.64 5.421 5.421 0 0 0 2.026.919c1.213.251 2.44.429 3.675.533 1.378.096 2.922.073 3.404.096 3.046.05 5.825.05 8.241.074 1.061 0 5.214-.023 9.032-.216 3.817-.193 6.256-.22 7.589-.63 1.332-.409 1.47-.505 2.173-1.065a4.748 4.748 0 0 0 1.304-1.93c.329-.879.548-1.795.652-2.728.097-1.26.216-1.958.313-3.193a39.38 39.38 0 0 0 .147-2.389c.069-2.2.069-4.663.069-6.767.023-2.416-.023-5.893-.193-8.889zm-37.251-3.675a5.677 5.677 0 0 1 .918-2.852c.136-.195.29-.377.46-.543.329-.3.706-.542 1.116-.716a4.134 4.134 0 0 1 1.906-.216c.586.097 1.145.31 1.645.63.505.289 2.609 1.906 4.64 3.477a51.377 51.377 0 0 1 4.295 3.794c-.988.12-3.675.363-5.604.506-1.787.124-3.675-.023-5.651.147a6.559 6.559 0 0 0-1.713.459c-.687.32-1.31.762-1.838 1.305-.073-.8-.05-1.066-.073-1.86-.124-1.544-.101-2.486-.101-4.15v.02zm14.521 30.145c-1.741 0-3.675-.07-5.219-.749a9.261 9.261 0 0 1-4.18-4.033 30.247 30.247 0 0 1-2.247-5.582c-.675-2.173-1.015-3.307-1.474-5.241-.239-1.112-.46-2.054-.625-3.188a26.71 26.71 0 0 1 5.191.045c.907.05 1.81.148 2.706.295.919.165 1.957.528 2.053 1.787a2.675 2.675 0 0 1-.386 1.548 7.112 7.112 0 0 1 1.81-.8 5.67 5.67 0 0 1 2.444-.096 7.19 7.19 0 0 1 2.655 1.015 7.947 7.947 0 0 1 2.343 1.81 9.188 9.188 0 0 1 2.32 5.972c0 1.475-.142 3.698-1.98 5.512-1.621 1.64-4.736 1.686-5.411 1.686v.019zm19.422-22.877a56.488 56.488 0 0 1-1.281 7.465 48.092 48.092 0 0 1-1.447 5.218c-.487 1.328-1.259 3.721-2.127 5.315-1.328 2.417-2.683 3.018-3.381 3.381a10.86 10.86 0 0 1-4.401 1.135c1.065-1.686 1.548-2.366 2.081-4.033a9.34 9.34 0 0 0 .17-4.346 12.65 12.65 0 0 0-2.513-5.292 16.726 16.726 0 0 0-7.079-4.906 26.464 26.464 0 0 0-6.183-1.254c-1.889-.17-2.637-.244-4.254-.29-1.305-.023-2.706-.147-3.262.12-.253.093-.46.28-.579.523l-.629-1.208a.918.918 0 0 1 .386-1.185c.35-.208.714-.392 1.089-.552a.706.706 0 0 1 .436-.05c.108 0 .212.044.289.12.097.073.749.606 1.016.822l1.929-1.401-2.297-.05c-.266 0-.51.123-.51-.047 0-.266.46-.363 1.282-.772a4.88 4.88 0 0 1 1.957-.482c1.304-.124 2.416.023 4.35-.073 1.838-.074 3.404-.363 3.574-.363a5.06 5.06 0 0 1-1.015 1.157c-.891.896-1.521 1.112-2.632 1.815a19.023 19.023 0 0 0 5.434-2.343c.602-.34 1.714-1.089 2.779-1.815 3.455-2.342 5.798-4.47 8.481-6.523 2.099-1.617 4.635-2.412 6.592-.965 1.957 1.448 1.911 4.594 1.934 4.884a35.517 35.517 0 0 1-.189 5.976v.019z"/>
    </g>
    <defs>
        <clipPath id="0mht3h8pea">
            <path fill="#fff" transform="translate(567.646 15.566)" d="M0 0h304.707v38H0z"/>
        </clipPath>
    </defs>
</svg>
