<?xml version="1.0" encoding="UTF-8" standalone="no" ?>
<!DOCTYPE svg PUBLIC "-//W3C//DTD SVG 1.1//EN" "http://www.w3.org/Graphics/SVG/1.1/DTD/svg11.dtd">
<svg xmlns="http://www.w3.org/2000/svg" xmlns:xlink="http://www.w3.org/1999/xlink" version="1.1" width="320" height="50" viewBox="0 0 320 50" xml:space="preserve">
<desc>Created with Fabric.js 3.6.6</desc>
<defs>
</defs>
<g transform="matrix(1 0 0 1 163 25.07)"  >
<g style=""   >
		<g transform="matrix(1 0 0 1 0 0)" id="svg_2"  >
<path style="stroke: rgb(0,0,0); stroke-width: 1; stroke-dasharray: none; stroke-linecap: butt; stroke-dashoffset: 0; stroke-linejoin: miter; stroke-miterlimit: 4; fill: rgb(0,100,85); fill-rule: nonzero; opacity: 1;"  transform=" translate(-726, -34.07)" d="m 561.00001 9 l 329.99999 0 l 0 50.134 l -329.99999 0 l 0 -50.134 z" stroke-linecap="round" />
</g>
		<g transform="matrix(1 0 0 1 0.61 3.04)" id="svg_5" clip-path="url(#CLIPPATH_9)"  >
<clipPath id="CLIPPATH_9" >
	<path transform="matrix(1 0 0 1 -6.61 -2.54) translate(-720, -34.57)" id="svg_1" d="m 567.646 15.566 l 304.707 0 l 0 38 l -304.707 0 l 0 -38 z" stroke-linecap="round" />
</clipPath>
<path style="stroke: none; stroke-width: 1; stroke-dasharray: none; stroke-linecap: butt; stroke-dashoffset: 0; stroke-linejoin: miter; stroke-miterlimit: 4; fill: rgb(255,255,255); fill-rule: evenodd; opacity: 1;"  transform=" translate(-726.61, -37.11)" d="m 841.328 38.972 l 0 -0.661 a 1.944 1.944 0 0 0 1.401 -0.588 c 0.364 -0.398 0.626 -0.88 0.762 -1.401 c 0.14 -0.488 0.214 -0.991 0.221 -1.498 a 4.018 4.018 0 0 0 -0.299 -1.599 a 2.488 2.488 0 0 0 -0.781 -1.107 a 2.105 2.105 0 0 0 -1.208 -0.39 l -0.096 0 l 0 -0.639 l 0.022 0 a 5.35 5.35 0 0 1 1.866 0.322 c 0.496 0.18 0.943 0.474 1.304 0.859 c 0.355 0.346 0.617 0.776 0.763 1.25 c 0.178 0.479 0.27 0.986 0.271 1.497 a 3.97 3.97 0 0 1 -0.345 1.65 a 3.253 3.253 0 0 1 -0.918 1.226 a 3.904 3.904 0 0 1 -1.379 0.762 a 6.322 6.322 0 0 1 -1.584 0.317 z m 0 -7.883 l 0 0.639 a 2.042 2.042 0 0 0 -1.769 1.033 a 4.948 4.948 0 0 0 -0.616 2.628 c 0.007 0.55 0.131 1.092 0.363 1.59 c 0.167 0.407 0.45 0.757 0.813 1.006 c 0.333 0.224 0.725 0.344 1.126 0.344 l 0.101 0 l 0 0.662 l -0.124 0 a 5.205 5.205 0 0 1 -1.769 -0.317 a 3.436 3.436 0 0 1 -1.621 -1.153 a 3.492 3.492 0 0 1 -0.712 -2.297 a 0.26 0.26 0 0 0 0.027 -0.143 c 0.005 -0.478 0.087 -0.953 0.244 -1.405 c 0.174 -0.469 0.432 -0.902 0.762 -1.278 a 3.452 3.452 0 0 1 1.3 -0.918 a 4.515 4.515 0 0 1 1.893 -0.368 l -0.018 -0.023 z m -19.997 7.883 l 0 -0.661 a 2.032 2.032 0 0 0 1.424 -0.588 c 0.368 -0.396 0.63 -0.878 0.762 -1.401 c 0.122 -0.49 0.188 -0.993 0.198 -1.498 a 4.607 4.607 0 0 0 -0.271 -1.599 a 2.753 2.753 0 0 0 -0.809 -1.107 a 2.04 2.04 0 0 0 -1.208 -0.39 l -0.096 0 l 0 -0.639 l 0.059 0 a 5.236 5.236 0 0 1 1.838 0.322 a 3.426 3.426 0 0 1 2.09 2.108 c 0.169 0.481 0.251 0.988 0.244 1.498 a 3.895 3.895 0 0 1 -0.322 1.65 a 3.413 3.413 0 0 1 -0.919 1.226 a 3.935 3.935 0 0 1 -1.378 0.762 a 6.267 6.267 0 0 1 -1.622 0.317 l 0.01 0 z m 9.922 -1.865 l 0.244 0 c 0.065 0.333 0.238 0.635 0.491 0.86 c 0.292 0.232 0.656 0.354 1.029 0.344 c 0.336 0.014 0.664 -0.1 0.919 -0.317 a 1.15 1.15 0 0 0 0 -1.622 a 3.5 3.5 0 0 0 -1.102 -0.666 a 4.16 4.16 0 0 1 -1.011 -0.565 a 2.088 2.088 0 0 1 -0.611 -0.712 a 2.176 2.176 0 0 1 -0.221 -1.006 a 2.303 2.303 0 0 1 0.294 -1.153 c 0.184 -0.366 0.476 -0.666 0.837 -0.86 c 0.45 -0.218 0.946 -0.328 1.447 -0.32 c 0.325 0 0.649 0.05 0.96 0.146 c 0.267 0.071 0.517 0.197 0.735 0.368 a 4.872 4.872 0 0 1 -0.17 0.542 c -0.051 0.197 -0.124 0.367 -0.175 0.565 l -0.17 0 a 1.38 1.38 0 0 0 -0.459 -0.69 a 1.242 1.242 0 0 0 -0.809 -0.27 c -0.808 0 -1.203 0.367 -1.203 1.107 c 0 0.418 0.321 0.786 0.96 1.107 l 0.808 0.39 a 2.84 2.84 0 0 1 1.254 1.007 c 0.213 0.383 0.323 0.815 0.317 1.254 c 0.005 0.355 -0.088 0.705 -0.271 1.01 a 2.148 2.148 0 0 1 -0.661 0.758 c -0.278 0.205 -0.589 0.36 -0.919 0.46 a 4.129 4.129 0 0 1 -1.079 0.142 a 3.463 3.463 0 0 1 -1.746 -0.46 c 0.134 -0.465 0.239 -0.94 0.312 -1.419 z m -9.922 -6.018 l 0 0.639 a 2.11 2.11 0 0 0 -1.769 1.029 a 5.244 5.244 0 0 0 -0.588 2.632 c -0.005 0.54 0.103 1.075 0.317 1.571 c 0.184 0.404 0.473 0.752 0.836 1.006 c 0.328 0.22 0.712 0.34 1.107 0.345 l 0.097 0 l 0 0.661 l -0.124 0 a 5.395 5.395 0 0 1 -1.764 -0.317 a 3.671 3.671 0 0 1 -1.622 -1.153 a 3.632 3.632 0 0 1 -0.717 -2.297 a 0.261 0.261 0 0 0 0.028 -0.142 a 4.33 4.33 0 0 1 0.271 -1.406 c 0.173 -0.463 0.421 -0.894 0.735 -1.277 c 0.365 -0.405 0.82 -0.72 1.328 -0.919 a 4.385 4.385 0 0 1 1.865 -0.367 l 0 -0.005 z m -8.729 5.577 l 0 -1.915 c 0.565 -0.175 0.859 -0.666 0.887 -1.475 a 1.72 1.72 0 0 0 -0.198 -0.887 a 0.843 0.843 0 0 0 -0.459 -0.413 a 0.767 0.767 0 0 1 -0.22 -0.05 l 0 -0.64 l 0.243 0 c 0.39 -0.012 0.78 0.03 1.158 0.125 c 0.272 0.104 0.516 0.271 0.712 0.487 a 1.536 1.536 0 0 1 0.459 1.18 a 1.827 1.827 0 0 1 -0.537 1.379 a 2.78 2.78 0 0 1 -1.181 0.615 c 0.248 0.436 0.492 0.832 0.712 1.149 c 0.221 0.317 0.492 0.79 0.887 1.378 c 0.395 0.588 0.638 1.033 0.785 1.254 a 7.242 7.242 0 0 0 -0.983 -0.074 a 7.888 7.888 0 0 0 -1.033 0.074 c -0.198 -0.372 -0.46 -0.836 -0.763 -1.35 a 13.86 13.86 0 0 0 -0.459 -0.837 l -0.01 0 z m 0 -5.38 l 0 0.64 a 2.643 2.643 0 0 0 -0.491 -0.028 l -0.368 0 l 0 2.949 l 0.244 0 c 0.209 0.01 0.419 -0.023 0.615 -0.096 l 0 1.915 c -0.073 -0.147 -0.174 -0.294 -0.22 -0.395 a 21.692 21.692 0 0 0 -0.565 -0.955 l -0.074 0 l 0 3.537 a 5.626 5.626 0 0 0 -0.836 -0.074 a 5.89 5.89 0 0 0 -0.836 0.074 l 0 -7.566 l 2.531 0 l 0 -0.001 z m -55.727 7.466 l 0 -0.712 c 1.203 -0.317 1.814 -1.378 1.814 -3.193 c 0 -1.057 -0.22 -1.837 -0.684 -2.26 a 2.394 2.394 0 0 0 -1.13 -0.588 l 0 -0.712 l 0.317 0 a 3.406 3.406 0 0 1 1.621 0.39 c 0.528 0.259 0.965 0.67 1.255 1.18 a 3.83 3.83 0 0 1 0.459 1.916 a 4.734 4.734 0 0 1 -0.496 2.063 a 3.136 3.136 0 0 1 -1.378 1.429 c -0.543 0.3 -1.149 0.466 -1.769 0.487 l -0.009 0 z m 5.793 0.027 l 0 -7.492 l 4.203 0 a 26.25 26.25 0 0 1 -0.096 0.491 c 0 0.124 0.046 0.271 0.073 0.46 c -0.717 -0.1 -1.44 -0.15 -2.164 -0.152 l -0.367 0 l 0 2.334 l 1.424 0 c 0.355 0.012 0.71 -0.02 1.057 -0.097 l 0 0.317 a 0.61 0.61 0 0 0 -0.028 0.22 c 0.033 0.152 0.05 0.306 0.051 0.46 a 6.439 6.439 0 0 0 -1.328 -0.124 l -1.153 0 l 0 2.802 c 0.853 0 1.706 -0.048 2.554 -0.147 a 4.73 4.73 0 0 0 -0.096 0.515 c 0.035 0.137 0.059 0.277 0.073 0.418 l -4.203 -0.005 z m 6.266 -7.492 l 0.836 0.073 c 0.107 -0.008 0.214 -0.008 0.321 0 c 0.17 -0.028 0.342 -0.045 0.515 -0.05 l 0 6.707 c 0.712 0 1.548 -0.05 2.531 -0.147 c -0.028 0.12 -0.074 0.294 -0.101 0.487 c -0.028 0.193 0.05 0.27 0.073 0.46 l -4.175 0 l 0 -7.53 z m 9.973 5.82 l 0.22 0 c 0.071 0.33 0.243 0.63 0.492 0.86 c 0.294 0.231 0.659 0.353 1.033 0.344 c 0.336 0.017 0.666 -0.096 0.919 -0.317 a 1.02 1.02 0 0 0 0.368 -0.813 a 1.108 1.108 0 0 0 -0.345 -0.809 a 3.325 3.325 0 0 0 -1.102 -0.661 a 4.733 4.733 0 0 1 -1.011 -0.57 a 2.172 2.172 0 0 1 -0.616 -0.712 a 2.231 2.231 0 0 1 -0.192 -1.006 c -0.012 -0.401 0.081 -0.8 0.271 -1.153 c 0.185 -0.372 0.487 -0.674 0.859 -0.86 c 0.441 -0.22 0.93 -0.33 1.424 -0.32 c 0.325 0.001 0.649 0.05 0.96 0.146 c 0.273 0.078 0.529 0.204 0.758 0.372 a 4.817 4.817 0 0 0 -0.17 0.538 c -0.074 0.197 -0.124 0.367 -0.198 0.565 l -0.147 0 a 1.588 1.588 0 0 0 -0.459 -0.69 c -0.22 -0.182 -0.5 -0.278 -0.786 -0.27 c -0.808 0 -1.226 0.372 -1.226 1.107 c 0 0.418 0.321 0.786 0.96 1.107 l 0.808 0.395 c 0.508 0.205 0.945 0.555 1.255 1.006 c 0.213 0.382 0.322 0.813 0.317 1.25 c 0 0.351 -0.083 0.698 -0.244 1.01 a 2.565 2.565 0 0 1 -0.689 0.758 a 3.071 3.071 0 0 1 -0.919 0.46 a 4.007 4.007 0 0 1 -1.056 0.147 a 3.6 3.6 0 0 1 -1.769 -0.46 c 0.136 -0.46 0.241 -0.928 0.317 -1.4 l -0.032 -0.024 z m 6.339 1.672 l 0 -7.492 l 4.222 0 c 0 0.124 -0.069 0.27 -0.096 0.491 c 0.032 0.152 0.056 0.306 0.073 0.46 a 16.285 16.285 0 0 0 -2.159 -0.152 l -0.349 0 l 0 2.334 l 1.428 0 c 0.355 0.012 0.71 -0.02 1.057 -0.097 a 1.26 1.26 0 0 1 -0.05 0.317 a 0.74 0.74 0 0 1 0 0.22 c 0 0.125 0.045 0.3 0.073 0.46 a 6.432 6.432 0 0 0 -1.328 -0.124 l -1.18 0 l 0 2.802 c 0.853 0 1.706 -0.049 2.554 -0.147 c -0.046 0.193 -0.069 0.368 -0.097 0.515 c -0.027 0.147 0.051 0.27 0.074 0.418 l -4.222 -0.005 z m 5.871 -3.537 c 0.007 -0.492 0.089 -0.98 0.244 -1.447 c 0.146 -0.492 0.397 -0.946 0.735 -1.332 a 3.8 3.8 0 0 1 1.405 -0.979 a 5.927 5.927 0 0 1 2.136 -0.395 a 5.27 5.27 0 0 1 2.674 0.662 a 3.97 3.97 0 0 0 -0.193 0.592 a 4.703 4.703 0 0 0 -0.124 0.538 l -0.147 0 a 2.194 2.194 0 0 0 -0.983 -0.86 a 2.96 2.96 0 0 0 -1.176 -0.27 a 2.333 2.333 0 0 0 -1.107 0.248 a 2.445 2.445 0 0 0 -0.859 0.689 c -0.258 0.33 -0.45 0.705 -0.565 1.107 c -0.13 0.48 -0.205 0.973 -0.225 1.47 a 3.754 3.754 0 0 0 0.321 1.622 c 0.209 0.432 0.526 0.804 0.919 1.08 a 2.59 2.59 0 0 0 1.277 0.394 c 0.468 -0.03 0.926 -0.147 1.351 -0.344 l 0 -2.577 c 0.277 0.037 0.556 0.052 0.836 0.046 c 0.279 0.005 0.559 -0.01 0.836 -0.046 l 0 3.045 a 9.476 9.476 0 0 1 -2.949 0.492 a 5.59 5.59 0 0 1 -1.548 -0.198 a 4.056 4.056 0 0 1 -1.379 -0.615 a 3.25 3.25 0 0 1 -1.065 -1.185 a 3.774 3.774 0 0 1 -0.395 -1.746 l -0.019 0.01 l 0 -0.001 z m 9.826 0.735 l 0 -4.69 c 0.267 0.047 0.538 0.072 0.809 0.073 c 0.28 -0.001 0.56 -0.026 0.836 -0.073 l 0 4.221 a 5.34 5.34 0 0 0 0.096 1.108 c 0.039 0.266 0.123 0.524 0.248 0.762 a 1.842 1.842 0 0 0 1.594 0.836 c 0.33 0.017 0.658 -0.043 0.961 -0.174 c 0.274 -0.126 0.511 -0.32 0.689 -0.565 c 0.215 -0.324 0.35 -0.694 0.395 -1.08 c 0.072 -0.463 0.104 -0.932 0.096 -1.401 l 0 -3.707 a 0.927 0.927 0 0 1 0.221 0.023 l 0.193 0 a 0.6 0.6 0 0 1 0.225 0 c 0.096 0 0.17 -0.023 0.243 -0.023 l 0 4.001 a 6.672 6.672 0 0 1 -0.17 1.672 a 2.061 2.061 0 0 1 -0.615 1.13 c -0.208 0.18 -0.43 0.344 -0.662 0.492 c -0.249 0.13 -0.512 0.228 -0.785 0.294 c -0.34 0.073 -0.687 0.105 -1.034 0.096 a 3.677 3.677 0 0 1 -2.651 -0.882 a 3.032 3.032 0 0 1 -0.689 -2.113 z m -44.068 -4.69 l 0 0.712 a 6.054 6.054 0 0 0 -0.689 -0.05 l -1.13 0 l 0 6.192 l 1.033 0 c 0.266 0.005 0.531 -0.029 0.786 -0.101 l 0 0.712 a 2.81 2.81 0 0 1 -0.492 0.027 l -2.949 0 l 0 -7.492 l 3.441 0 z m -13.515 7.69 l 0 -0.666 a 1.937 1.937 0 0 0 1.401 -0.588 c 0.366 -0.397 0.628 -0.878 0.763 -1.401 c 0.14 -0.488 0.214 -0.991 0.22 -1.498 a 4.015 4.015 0 0 0 -0.294 -1.599 a 2.46 2.46 0 0 0 -0.785 -1.102 a 2.001 2.001 0 0 0 -1.204 -0.395 l -0.101 0 l 0 -0.639 l 0.027 0 a 5.374 5.374 0 0 1 1.866 0.322 c 0.495 0.181 0.942 0.475 1.304 0.859 c 0.352 0.354 0.621 0.783 0.786 1.254 c 0.16 0.483 0.244 0.989 0.248 1.498 a 4.436 4.436 0 0 1 -0.322 1.644 c -0.211 0.472 -0.525 0.891 -0.919 1.227 a 3.862 3.862 0 0 1 -1.378 0.762 a 6.48 6.48 0 0 1 -1.612 0.322 z m 0 -7.888 l 0 0.639 a 2.059 2.059 0 0 0 -1.769 1.033 a 5.015 5.015 0 0 0 -0.611 2.628 c 0.001 0.542 0.119 1.078 0.345 1.571 c 0.163 0.408 0.445 0.759 0.808 1.006 a 2.01 2.01 0 0 0 1.13 0.345 l 0.097 0 l 0 0.666 l -0.12 0 a 5.192 5.192 0 0 1 -1.768 -0.322 a 3.528 3.528 0 0 1 -1.622 -1.153 a 3.48 3.48 0 0 1 -0.712 -2.297 a 0.303 0.303 0 0 0 0.023 -0.142 c 0.003 -0.48 0.095 -0.955 0.271 -1.401 a 3.613 3.613 0 0 1 2.026 -2.196 a 4.513 4.513 0 0 1 1.888 -0.367 l 0.014 -0.01 z m -18.715 5.453 l 0 -0.684 l 1.006 0 l -0.983 -2.554 l -0.023 0.073 l 0 -2.14 l 0.023 -0.047 c 0.073 0 0.124 0.023 0.197 0.023 l 0.221 0 c 0.139 0 0.279 -0.008 0.418 -0.023 l 3.091 7.626 c -0.119 0 -0.294 -0.028 -0.514 -0.028 a 3.043 3.043 0 0 1 -0.492 -0.022 a 2.247 2.247 0 0 1 -0.459 0.023 c -0.152 0.02 -0.306 0.03 -0.459 0.027 a 47.88 47.88 0 0 0 -0.763 -2.297 l -1.263 0.023 z m 5.788 2.274 l 0 -7.53 l 1.107 0 c 0.322 0.345 0.689 0.763 1.107 1.204 c 0.418 0.441 0.809 0.92 1.254 1.379 c 0.446 0.459 0.832 0.886 1.227 1.327 c 0.395 0.441 0.762 0.836 1.13 1.254 l 0 -5.163 c 0.046 0 0.124 0.023 0.197 0.023 a 0.498 0.498 0 0 1 0.221 0.027 a 0.48 0.48 0 0 1 0.22 -0.027 c 0.097 0 0.17 -0.023 0.221 -0.023 l 0 7.566 l -0.919 -0.023 c -1.226 -1.355 -2.164 -2.384 -2.756 -3.073 c -0.593 -0.69 -1.351 -1.447 -2.136 -2.26 l 0 5.32 c -0.074 0 -0.147 -0.029 -0.244 -0.029 a 0.674 0.674 0 0 1 -0.248 -0.022 a 0.458 0.458 0 0 1 -0.197 0.023 c -0.078 0.027 -0.152 0.027 -0.184 0.027 z m -5.788 -7.58 l 0 2.136 l -1.011 2.486 l 1.011 0 l 0 0.684 l -1.305 0 c -0.046 0.12 -0.119 0.368 -0.266 0.758 c -0.147 0.39 -0.248 0.666 -0.322 0.887 c -0.077 0.209 -0.143 0.422 -0.197 0.638 c -0.046 0 -0.147 -0.027 -0.267 -0.027 a 0.88 0.88 0 0 1 -0.271 -0.023 a 0.67 0.67 0 0 1 -0.248 0.023 a 0.806 0.806 0 0 1 -0.243 0.027 l 3.119 -7.593 l 0 0.004 z m -49.205 7.74 l 0 -0.665 a 2.042 2.042 0 0 0 1.425 -0.588 a 3.26 3.26 0 0 0 0.762 -1.401 c 0.122 -0.49 0.189 -0.993 0.198 -1.498 a 4.513 4.513 0 0 0 -0.271 -1.599 a 2.694 2.694 0 0 0 -0.814 -1.102 a 2.016 2.016 0 0 0 -1.199 -0.395 l -0.101 0 l 0 -0.639 l 0.051 0 a 5.325 5.325 0 0 1 1.837 0.322 c 0.503 0.177 0.957 0.472 1.323 0.859 c 0.349 0.352 0.611 0.782 0.763 1.254 c 0.173 0.48 0.257 0.987 0.248 1.498 a 3.937 3.937 0 0 1 -0.321 1.644 c -0.205 0.478 -0.52 0.9 -0.919 1.231 a 3.797 3.797 0 0 1 -1.378 0.758 a 6.247 6.247 0 0 1 -1.594 0.322 l -0.01 0 l 0 -0.001 z m 9.505 -0.123 c 0.198 -1.103 0.395 -2.334 0.593 -3.675 c 0.197 -1.342 0.39 -2.628 0.537 -3.905 c 0.078 0 0.175 0.023 0.248 0.023 c 0.074 0 0.17 0.028 0.221 0.05 c 0.15 -0.039 0.304 -0.063 0.459 -0.073 c 0.565 1.227 1.401 2.95 2.531 5.182 c 0.244 -0.46 0.46 -0.919 0.689 -1.35 c 0.23 -0.432 0.46 -0.837 0.616 -1.181 c 0.156 -0.345 0.367 -0.758 0.611 -1.25 l 0.666 -1.401 c 0.164 0.011 0.327 0.036 0.487 0.073 c 0.152 -0.032 0.305 -0.057 0.459 -0.073 c 0.097 0.813 0.17 1.498 0.221 2.012 c 0.05 0.515 0.124 1.084 0.197 1.7 c 0.074 0.615 0.17 1.203 0.244 1.814 c 0.073 0.611 0.17 1.305 0.294 2.04 a 5.281 5.281 0 0 0 -0.919 -0.073 c -0.308 0 -0.615 0.024 -0.919 0.073 a 11.426 11.426 0 0 0 -0.073 -1.254 c -0.028 -0.413 -0.051 -0.786 -0.101 -1.08 c -0.051 -0.294 -0.074 -0.762 -0.12 -1.327 s -0.124 -1.057 -0.174 -1.475 a 198.056 198.056 0 0 0 -2.43 5.053 l -0.418 0 c -0.124 -0.294 -0.345 -0.74 -0.639 -1.327 c -0.294 -0.588 -0.519 -1.057 -0.666 -1.35 a 59.525 59.525 0 0 1 -0.565 -1.181 c -0.221 -0.469 -0.418 -0.832 -0.538 -1.103 c -0.073 0.492 -0.151 1.08 -0.22 1.741 c -0.069 0.662 -0.124 1.305 -0.175 1.87 c -0.05 0.565 -0.073 1.033 -0.073 1.424 a 1.086 1.086 0 0 0 -0.248 -0.023 a 1.745 1.745 0 0 0 -0.267 -0.05 a 2.97 2.97 0 0 1 -0.519 0.073 l -0.009 0.023 z m 11.025 -0.074 l 0 -7.492 l 4.204 0 a 4.29 4.29 0 0 0 -0.074 0.491 c 0.017 0.155 0.041 0.308 0.074 0.46 a 16.72 16.72 0 0 0 -2.187 -0.147 l -0.345 0 l 0 2.333 l 1.424 0 c 0.355 0.01 0.71 -0.023 1.057 -0.1 c 0 0.123 0 0.22 -0.051 0.316 c -0.05 0.097 -0.023 0.152 -0.023 0.225 c 0 0.074 0.051 0.294 0.074 0.46 a 6.425 6.425 0 0 0 -1.328 -0.124 l -1.153 0 l 0 2.802 c 0.846 0 1.691 -0.05 2.532 -0.147 c -0.028 0.193 -0.051 0.367 -0.074 0.514 c -0.023 0.148 0.046 0.272 0.074 0.419 l -4.204 -0.01 z m 8.035 -3.44 l -2.237 -4.052 c 0.395 0.023 0.712 0.05 0.96 0.073 l 0.983 -0.073 l 1.378 2.678 l 1.644 -2.678 c 0.079 0 0.175 0.023 0.271 0.023 c 0.092 -0.01 0.184 0 0.272 0.027 a 0.916 0.916 0 0 1 0.294 -0.027 c 0.124 0 0.225 -0.023 0.271 -0.023 l -2.334 3.316 a 297.736 297.736 0 0 1 2.297 4.25 c -0.175 -0.023 -0.492 -0.023 -0.919 -0.074 c -0.459 0.05 -0.785 0.05 -0.978 0.074 l -1.429 -2.825 c -0.538 0.836 -0.919 1.4 -1.13 1.745 c -0.211 0.345 -0.391 0.69 -0.588 1.057 c -0.051 0 -0.147 -0.028 -0.271 -0.028 a 0.716 0.716 0 0 1 -0.244 -0.023 a 0.916 0.916 0 0 1 -0.294 0.023 c -0.098 0.021 -0.198 0.03 -0.298 0.028 c 0.248 -0.322 0.615 -0.86 1.13 -1.622 c 0.514 -0.762 0.919 -1.35 1.254 -1.87 l -0.032 0 l 0 0.001 z m 5.871 -4.052 c 0.174 0.023 0.459 0.023 0.813 0.073 c 0.367 -0.05 0.638 -0.05 0.808 -0.073 l 0 7.566 a 5.132 5.132 0 0 0 -0.859 -0.074 c -0.256 0 -0.511 0.025 -0.762 0.074 l 0 -7.566 z m 3.675 4.029 a 4.302 4.302 0 0 1 0.762 -2.605 a 3.645 3.645 0 0 1 1.695 -1.277 a 5.664 5.664 0 0 1 1.838 -0.345 c 0.489 -0.003 0.976 0.063 1.447 0.198 c 0.323 0.063 0.634 0.18 0.919 0.344 c -0.097 0.294 -0.175 0.685 -0.271 1.13 l -0.147 0 a 2.647 2.647 0 0 0 -0.836 -0.74 a 2.059 2.059 0 0 0 -0.983 -0.27 a 2.3 2.3 0 0 0 -1.324 0.418 c -0.411 0.289 -0.73 0.69 -0.918 1.158 a 4.454 4.454 0 0 0 -0.322 1.814 a 4.128 4.128 0 0 0 0.294 1.622 c 0.174 0.459 0.483 0.855 0.887 1.134 c 0.431 0.278 0.934 0.422 1.447 0.414 a 3.106 3.106 0 0 0 1.966 -0.809 l 0.147 0.05 l -0.248 0.956 c -0.677 0.341 -1.43 0.5 -2.187 0.46 a 4.828 4.828 0 0 1 -1.718 -0.294 a 4.466 4.466 0 0 1 -1.323 -0.786 a 3.644 3.644 0 0 1 -1.107 -2.582 l -0.018 0.01 z m -96.011 -4.03 c 0.17 0.024 0.459 0.024 0.809 0.074 c 0.367 -0.05 0.638 -0.05 0.813 -0.073 l 0 7.566 a 4.94 4.94 0 0 0 -0.859 -0.074 c -0.256 0 -0.512 0.025 -0.763 0.074 l 0 -7.566 l 0 -0.001 z m 57.923 -0.197 l 0 0.639 a 2.116 2.116 0 0 0 -1.768 1.033 a 5.227 5.227 0 0 0 -0.588 2.628 c -0.008 0.54 0.1 1.076 0.317 1.571 c 0.174 0.411 0.465 0.762 0.836 1.01 c 0.328 0.22 0.713 0.338 1.107 0.34 l 0.096 0 l 0 0.667 l -0.156 0 a 5.431 5.431 0 0 1 -1.768 -0.322 a 3.671 3.671 0 0 1 -1.622 -1.153 a 3.676 3.676 0 0 1 -0.712 -2.297 a 0.287 0.287 0 0 0 0.027 -0.147 a 4.44 4.44 0 0 1 0.267 -1.4 c 0.162 -0.47 0.413 -0.904 0.74 -1.278 a 3.414 3.414 0 0 1 1.327 -0.919 a 4.313 4.313 0 0 1 1.865 -0.372 l 0.032 0 z m -53.623 7.727 l 0 -7.53 l 1.098 0 c 0.317 0.345 0.684 0.763 1.102 1.204 c 0.418 0.441 0.836 0.92 1.277 1.379 c 0.441 0.459 0.836 0.882 1.232 1.323 c 0.395 0.44 0.757 0.836 1.13 1.254 l 0 -5.16 c 0.046 0 0.119 0.024 0.22 0.024 a 0.46 0.46 0 0 1 0.198 0.027 a 0.457 0.457 0 0 1 0.22 -0.027 c 0.097 0 0.17 -0.023 0.244 -0.023 l 0 7.566 l -0.919 -0.023 c -1.227 -1.35 -2.164 -2.384 -2.756 -3.073 c -0.593 -0.69 -1.351 -1.447 -2.141 -2.26 l 0 5.32 c -0.074 0 -0.147 -0.029 -0.244 -0.029 a 0.626 0.626 0 0 1 -0.243 -0.022 a 0.461 0.461 0 0 1 -0.198 0.023 c -0.073 0 -0.147 0.027 -0.197 0.027 l -0.023 0 z m 9.164 -1.723 l 0.203 0 c 0.067 0.333 0.239 0.636 0.491 0.864 c 0.293 0.23 0.657 0.35 1.029 0.34 c 0.326 0.016 0.645 -0.098 0.887 -0.317 a 1.014 1.014 0 0 0 0.367 -0.808 a 1.087 1.087 0 0 0 -0.321 -0.814 a 3.59 3.59 0 0 0 -1.103 -0.661 a 4.355 4.355 0 0 1 -1.006 -0.565 a 2.15 2.15 0 0 1 -0.615 -0.712 a 2.196 2.196 0 0 1 -0.221 -1.01 a 2.303 2.303 0 0 1 0.294 -1.154 c 0.183 -0.366 0.475 -0.666 0.836 -0.859 a 3.216 3.216 0 0 1 1.447 -0.321 c 0.326 0 0.65 0.052 0.96 0.151 c 0.268 0.071 0.518 0.196 0.735 0.368 a 4.817 4.817 0 0 1 -0.17 0.537 c -0.05 0.198 -0.124 0.372 -0.174 0.565 l -0.17 0 a 1.413 1.413 0 0 0 -0.46 -0.689 a 1.254 1.254 0 0 0 -0.813 -0.266 c -0.808 0 -1.203 0.367 -1.203 1.102 c 0 0.418 0.321 0.786 0.96 1.107 l 0.808 0.395 a 2.84 2.84 0 0 1 1.254 1.006 c 0.215 0.383 0.324 0.816 0.317 1.255 c 0.004 0.353 -0.088 0.7 -0.266 1.005 c -0.16 0.303 -0.388 0.564 -0.666 0.763 a 3.069 3.069 0 0 1 -0.919 0.46 a 4.133 4.133 0 0 1 -1.079 0.146 a 3.511 3.511 0 0 1 -1.746 -0.459 c 0.137 -0.46 0.244 -0.928 0.322 -1.401 l 0.022 -0.028 z m 7.759 1.723 l 0 -6.744 a 10.85 10.85 0 0 0 -2.062 0.175 a 0.863 0.863 0 0 1 0.027 -0.248 l 0 -0.46 a 0.99 0.99 0 0 1 -0.027 -0.27 l 5.673 0 c -0.023 0.174 -0.046 0.344 -0.073 0.519 c -0.028 0.174 0.05 0.317 0.073 0.459 c -0.659 -0.1 -1.323 -0.158 -1.989 -0.175 l 0 6.744 c -0.096 0 -0.243 -0.028 -0.418 -0.028 c -0.153 0.008 -0.307 0 -0.459 -0.022 c -0.121 0.022 -0.245 0.03 -0.368 0.023 c -0.174 0 -0.294 0.027 -0.395 0.027 l 0.018 0 z m 5.628 -7.543 c 0.17 0.023 0.459 0.023 0.808 0.073 c 0.345 -0.05 0.639 -0.05 0.813 -0.073 l 0 7.566 a 5.123 5.123 0 0 0 -0.859 -0.073 c -0.256 0 -0.511 0.025 -0.762 0.073 l 0 -7.566 z m 5.673 7.543 l 0 -6.744 a 10.85 10.85 0 0 0 -2.062 0.175 a 0.985 0.985 0 0 1 0.023 -0.248 l 0 -0.46 a 1.174 1.174 0 0 1 -0.023 -0.27 l 5.65 0 c -0.003 0.172 -0.02 0.344 -0.051 0.514 c 0.029 0.152 0.046 0.305 0.051 0.46 c -0.651 -0.1 -1.308 -0.159 -1.966 -0.175 l 0 6.748 c -0.101 0 -0.244 -0.028 -0.418 -0.028 c -0.154 0.008 -0.308 0 -0.46 -0.022 c -0.121 0.022 -0.244 0.03 -0.367 0.023 c -0.175 0 -0.322 0.027 -0.395 0.027 l 0.018 0 z m 5.577 -2.848 l 0 -4.681 c 0.269 0.047 0.541 0.072 0.813 0.073 c 0.279 -0.001 0.557 -0.026 0.832 -0.073 l 0 4.226 c -0.005 0.372 0.029 0.743 0.101 1.107 a 1.808 1.808 0 0 0 1.865 1.594 c 0.315 0.012 0.63 -0.047 0.919 -0.174 c 0.278 -0.118 0.517 -0.313 0.689 -0.56 c 0.225 -0.32 0.359 -0.695 0.39 -1.085 c 0.075 -0.455 0.109 -0.917 0.101 -1.378 l 0 -3.712 a 0.893 0.893 0 0 1 0.221 0.023 c 0.096 0 0.174 0 0.197 0.028 a 0.46 0.46 0 0 1 0.221 -0.028 c 0.096 0 0.197 -0.023 0.243 -0.023 l 0 4.006 a 6.635 6.635 0 0 1 -0.17 1.668 c -0.076 0.433 -0.292 0.83 -0.615 1.13 c -0.2 0.19 -0.422 0.355 -0.662 0.491 c -0.24 0.132 -0.496 0.231 -0.762 0.294 a 4.666 4.666 0 0 1 -1.057 0.101 a 3.677 3.677 0 0 1 -2.651 -0.886 a 3.025 3.025 0 0 1 -0.689 -2.109 l 0.014 -0.032 z m 10.612 2.848 l 0 -6.744 a 10.86 10.86 0 0 0 -2.063 0.175 c 0 -0.074 0.023 -0.147 0.023 -0.248 s 0.028 -0.147 0.028 -0.198 a 2.211 2.211 0 0 1 -0.028 -0.243 c 0 -0.101 -0.023 -0.198 -0.023 -0.271 l 5.674 0 c 0 0.174 -0.046 0.344 -0.074 0.519 c -0.028 0.174 0.051 0.317 0.074 0.46 a 15.89 15.89 0 0 0 -1.99 -0.175 l 0 6.725 c -0.096 0 -0.243 -0.028 -0.418 -0.028 c -0.153 0.009 -0.307 0 -0.459 -0.022 c -0.121 0.022 -0.245 0.03 -0.368 0.023 c -0.156 0.027 -0.28 0.027 -0.376 0.027 z m 196.174 -2.274 l 0 -0.69 l 1.011 0 l -0.983 -2.549 l -0.028 0.074 l 0 -2.141 l 0.028 -0.05 c 0.073 0 0.119 0.023 0.197 0.023 l 0.216 0 c 0.248 0 0.395 -0.023 0.423 -0.023 l 3.068 7.63 c -0.124 0 -0.294 -0.028 -0.514 -0.028 a 3.032 3.032 0 0 1 -0.492 -0.023 c -0.152 0.023 -0.306 0.031 -0.459 0.023 c -0.152 0.021 -0.306 0.03 -0.459 0.028 c -0.221 -0.763 -0.492 -1.525 -0.758 -2.297 l -1.25 0.023 z m 5.724 -5.255 c 0.294 0.023 0.565 0.046 0.813 0.073 c 0.114 -0.017 0.229 -0.026 0.345 -0.027 c 0.193 0 0.367 -0.046 0.487 -0.046 l 0 6.706 c 0.739 0 1.575 -0.05 2.558 -0.147 a 2.188 2.188 0 0 0 -0.101 0.488 c 0.028 0.123 0.051 0.27 0.074 0.459 l -4.176 0 l 0 -7.506 z m -21.223 4.028 a 4.132 4.132 0 0 1 0.739 -2.604 a 3.776 3.776 0 0 1 1.691 -1.277 a 5.808 5.808 0 0 1 1.869 -0.345 c 0.482 -0.004 0.962 0.063 1.424 0.198 c 0.325 0.058 0.636 0.174 0.919 0.344 c -0.073 0.294 -0.17 0.685 -0.271 1.126 l -0.124 0 a 2.703 2.703 0 0 0 -0.859 -0.735 a 2.007 2.007 0 0 0 -0.983 -0.271 a 2.3 2.3 0 0 0 -1.328 0.418 c -0.413 0.287 -0.733 0.69 -0.918 1.157 a 4.517 4.517 0 0 0 -0.345 1.815 a 4.128 4.128 0 0 0 0.294 1.621 c 0.177 0.466 0.499 0.862 0.919 1.13 c 0.428 0.284 0.933 0.43 1.447 0.418 a 2.799 2.799 0 0 0 1.034 -0.22 c 0.343 -0.132 0.655 -0.332 0.918 -0.588 l 0.17 0.046 l -0.271 0.96 c -0.666 0.341 -1.411 0.5 -2.159 0.46 a 4.895 4.895 0 0 1 -1.745 -0.295 a 3.992 3.992 0 0 1 -1.314 -0.776 a 3.598 3.598 0 0 1 -0.836 -1.176 a 3.977 3.977 0 0 1 -0.271 -1.401 l 0 -0.005 z m 15.499 -4.079 l 0 2.136 l -1.006 2.48 l 1.006 0 l 0 0.69 l -1.3 0 c -0.05 0.124 -0.124 0.367 -0.271 0.762 c -0.147 0.395 -0.243 0.662 -0.317 0.887 c -0.08 0.208 -0.146 0.422 -0.197 0.639 c -0.051 0 -0.147 -0.028 -0.272 -0.028 a 0.922 0.922 0 0 1 -0.271 -0.023 a 0.668 0.668 0 0 1 -0.248 0.023 a 0.726 0.726 0 0 1 -0.216 0.028 l 3.092 -7.594 z m -6.656 0.05 c 0.174 0.023 0.459 0.023 0.813 0.074 c 0.367 -0.05 0.638 -0.05 0.808 -0.073 l 0 7.566 a 4.911 4.911 0 0 0 -0.859 -0.074 c -0.256 0 -0.511 0.025 -0.762 0.074 l 0 -7.566 l 0 -0.001 z m -103.747 15.702 l 0 -0.524 l 0.749 0 l -0.749 -1.893 l 0 -1.57 a 0.273 0.273 0 0 1 0.147 0.027 l 0.151 0 c 0.108 0 0.216 -0.01 0.322 -0.028 l 2.297 5.683 a 1.564 1.564 0 0 0 -0.395 -0.028 c -0.117 0.007 -0.234 0 -0.349 -0.023 c -0.108 0.023 -0.217 0.03 -0.326 0.023 a 1.214 1.214 0 0 0 -0.35 0.028 a 22.11 22.11 0 0 0 -0.574 -1.695 l -0.923 0 z m 3.675 -3.914 c 0.225 0.027 0.422 0.027 0.625 0.05 c 0.075 -0.002 0.15 -0.01 0.225 -0.023 c 0.147 0 0.271 -0.027 0.372 -0.027 l 0 4.984 c 0.546 0 1.171 -0.05 1.892 -0.124 c -0.023 0.101 -0.05 0.225 -0.073 0.377 c 0.03 0.105 0.047 0.212 0.05 0.321 l -3.091 0 l 0 -5.558 z m -3.675 0 l 0 1.57 l -0.749 1.839 l 0.749 0 l 0 0.523 l -0.974 0 a 5.312 5.312 0 0 0 -0.198 0.547 c -0.101 0.276 -0.197 0.5 -0.248 0.675 c -0.05 0.175 -0.101 0.299 -0.151 0.46 c -0.023 -0.028 -0.097 -0.028 -0.198 -0.028 a 0.546 0.546 0 0 1 -0.202 -0.023 c -0.023 0.023 -0.096 0.023 -0.17 0.023 a 0.323 0.323 0 0 0 -0.174 0.028 l 2.296 -5.633 l 0.019 0.019 z m -13.984 5.71 l 0 -0.5 a 1.343 1.343 0 0 0 1.048 -0.423 c 0.267 -0.302 0.463 -0.66 0.574 -1.048 a 4.56 4.56 0 0 0 0.147 -1.12 c 0.005 -0.4 -0.062 -0.797 -0.198 -1.172 a 2.078 2.078 0 0 0 -0.597 -0.822 a 1.415 1.415 0 0 0 -0.896 -0.299 l -0.078 0 l 0 -0.45 l 0.028 0 c 0.472 -0.015 0.941 0.07 1.378 0.248 a 2.563 2.563 0 0 1 1.543 1.543 c 0.131 0.36 0.2 0.739 0.203 1.121 a 2.67 2.67 0 0 1 -0.253 1.222 c -0.148 0.355 -0.378 0.67 -0.671 0.919 a 3.805 3.805 0 0 1 -1.02 0.574 a 4.806 4.806 0 0 1 -1.199 0.225 l -0.009 -0.018 z m 3.588 -2.72 a 3.26 3.26 0 0 1 0.551 -1.915 a 2.905 2.905 0 0 1 1.268 -0.974 a 4.64 4.64 0 0 1 1.378 -0.248 c 0.364 -0.004 0.726 0.046 1.075 0.147 c 0.238 0.054 0.464 0.147 0.671 0.276 c -0.051 0.197 -0.124 0.5 -0.198 0.822 l -0.101 0 a 1.864 1.864 0 0 0 -0.62 -0.547 a 1.635 1.635 0 0 0 -0.749 -0.202 c -0.347 0 -0.686 0.104 -0.973 0.299 c -0.308 0.222 -0.55 0.523 -0.699 0.872 c -0.166 0.43 -0.25 0.886 -0.248 1.346 c -0.009 0.41 0.068 0.817 0.225 1.195 c 0.131 0.346 0.365 0.643 0.671 0.85 c 0.318 0.205 0.692 0.309 1.07 0.298 c 0.266 -0.004 0.528 -0.053 0.777 -0.147 c 0.248 -0.113 0.475 -0.269 0.67 -0.46 l 0.124 0.051 l -0.197 0.699 c -0.49 0.26 -1.041 0.38 -1.594 0.349 a 3.585 3.585 0 0 1 -1.296 -0.225 a 2.715 2.715 0 0 1 -0.973 -0.575 a 2.398 2.398 0 0 1 -0.598 -0.895 a 2.514 2.514 0 0 1 -0.225 -1.025 l -0.009 0.01 l 0 -0.001 z m 6.004 -2.99 c 0.129 0 0.326 0.027 0.602 0.05 c 0.276 0.023 0.459 -0.05 0.597 -0.05 l 0 5.609 a 4.846 4.846 0 0 0 -0.625 -0.05 c -0.192 0.003 -0.384 0.02 -0.574 0.05 l 0 -5.61 l 0 0.001 z m -9.592 -0.124 l 0 0.46 a 1.532 1.532 0 0 0 -1.318 0.748 a 3.753 3.753 0 0 0 -0.46 1.943 c 0.012 0.402 0.096 0.8 0.249 1.172 c 0.14 0.299 0.355 0.557 0.624 0.748 c 0.241 0.169 0.529 0.255 0.823 0.248 l 0.073 0 l 0 0.501 l -0.096 0 a 4.273 4.273 0 0 1 -1.3 -0.225 a 2.78 2.78 0 0 1 -1.218 -0.873 a 2.833 2.833 0 0 1 -0.524 -1.695 a 0.145 0.145 0 0 0 0 -0.096 c 0 -0.36 0.069 -0.715 0.203 -1.048 a 2.76 2.76 0 0 1 0.546 -0.946 c 0.262 -0.308 0.595 -0.548 0.97 -0.698 c 0.438 -0.176 0.905 -0.27 1.378 -0.276 l 0.05 0.037 z m -12.83 5.705 l 0 -0.546 c 0.896 -0.225 1.346 -1.025 1.346 -2.37 a 2.207 2.207 0 0 0 -0.524 -1.668 a 1.61 1.61 0 0 0 -0.822 -0.423 l 0 -0.551 l 0.225 0 c 0.425 0 0.845 0.102 1.222 0.298 c 0.384 0.196 0.703 0.5 0.919 0.873 c 0.237 0.435 0.358 0.924 0.349 1.42 a 3.326 3.326 0 0 1 -0.349 1.52 c -0.241 0.45 -0.604 0.823 -1.048 1.075 a 3.57 3.57 0 0 1 -1.318 0.372 z m 5.93 -1.245 l 0.147 0 c 0.067 0.246 0.197 0.47 0.377 0.648 c 0.223 0.166 0.494 0.254 0.772 0.248 a 0.99 0.99 0 0 0 0.671 -0.225 a 0.789 0.789 0 0 0 0.248 -0.62 a 0.797 0.797 0 0 0 -0.221 -0.574 a 2.981 2.981 0 0 0 -0.822 -0.501 a 2.496 2.496 0 0 1 -0.749 -0.423 a 1.509 1.509 0 0 1 -0.634 -1.295 c 0.005 -0.293 0.074 -0.582 0.202 -0.845 c 0.149 -0.268 0.375 -0.486 0.648 -0.625 c 0.332 -0.165 0.699 -0.25 1.07 -0.248 c 0.238 0.005 0.473 0.047 0.699 0.124 c 0.208 0.051 0.403 0.145 0.574 0.276 a 7.225 7.225 0 0 0 -0.152 0.395 c -0.05 0.147 -0.073 0.275 -0.124 0.4 l -0.124 0 a 1.102 1.102 0 0 0 -0.321 -0.497 a 1.046 1.046 0 0 0 -0.602 -0.202 c -0.597 0 -0.896 0.276 -0.896 0.822 c 0 0.303 0.225 0.575 0.698 0.822 l 0.62 0.3 c 0.378 0.146 0.699 0.408 0.919 0.748 c 0.154 0.281 0.232 0.598 0.225 0.919 a 1.52 1.52 0 0 1 -0.67 1.295 a 2.532 2.532 0 0 1 -0.726 0.35 c -0.252 0.069 -0.511 0.103 -0.772 0.1 a 2.5 2.5 0 0 1 -1.318 -0.349 c 0.123 -0.345 0.21 -0.702 0.261 -1.066 l 0 0.023 z m -5.93 -4.313 l 0 0.551 a 1.615 1.615 0 0 0 -0.501 -0.078 l -0.845 0 l 0 4.594 l 0.749 0 c 0.201 0.003 0.402 -0.021 0.597 -0.074 l 0 0.547 l -2.541 0 l 0 -5.559 l 2.541 0.019 z m -6.262 3.89 l 0 -0.523 l 0.749 0 l -0.749 -1.893 l -0.027 0.051 l 0 -1.571 l 0.027 -0.05 a 0.279 0.279 0 0 1 0.147 0.027 l 0.152 0 c 0.108 -0.002 0.215 -0.011 0.322 -0.028 l 2.269 5.683 a 1.503 1.503 0 0 0 -0.372 -0.028 a 1.847 1.847 0 0 1 -0.377 -0.023 c -0.106 0.022 -0.214 0.03 -0.321 0.023 c -0.11 -0.008 -0.22 0.001 -0.327 0.028 c -0.174 -0.574 -0.372 -1.121 -0.574 -1.695 l -0.919 0 l 0 -0.001 z m 0 -3.936 l 0 1.571 l -0.744 1.837 l 0.744 0 l 0 0.524 l -0.969 0 l -0.202 0.552 a 8.984 8.984 0 0 0 -0.221 0.67 a 2.391 2.391 0 0 0 -0.151 0.46 a 0.462 0.462 0 0 0 -0.198 -0.028 a 0.46 0.46 0 0 1 -0.202 -0.023 a 0.379 0.379 0 0 1 -0.174 0.023 a 0.383 0.383 0 0 0 -0.198 0.027 l 2.297 -5.632 l 0.018 0.019 z m -5.512 5.581 l 0 -0.546 c 0.896 -0.225 1.346 -1.025 1.346 -2.366 a 2.216 2.216 0 0 0 -0.524 -1.672 a 1.625 1.625 0 0 0 -0.822 -0.423 l 0 -0.547 l 0.225 0 c 0.424 -0.003 0.843 0.1 1.217 0.3 c 0.386 0.19 0.706 0.493 0.919 0.867 c 0.229 0.438 0.339 0.927 0.322 1.42 a 3.084 3.084 0 0 1 -0.345 1.525 a 2.53 2.53 0 0 1 -1.024 1.07 a 3.606 3.606 0 0 1 -1.314 0.372 z m 0 -5.553 l 0 0.546 a 1.655 1.655 0 0 0 -0.524 -0.078 l -0.822 0 l 0 4.594 l 0.744 0 c 0.203 0.003 0.406 -0.022 0.602 -0.074 l 0 0.547 l -2.545 0 l 0 -5.535 l 2.545 0 z m -8.48 4.005 l 0 -1.42 a 0.984 0.984 0 0 0 0.647 -1.07 a 1.53 1.53 0 0 0 -0.124 -0.67 a 0.726 0.726 0 0 0 -0.376 -0.303 a 1.355 1.355 0 0 1 -0.147 -0.051 l 0 -0.46 l 0.17 0 c 0.294 -0.016 0.589 0.017 0.872 0.097 c 0.196 0.082 0.374 0.2 0.524 0.35 a 1.111 1.111 0 0 1 0.326 0.872 a 1.293 1.293 0 0 1 -0.376 1.02 a 2.1 2.1 0 0 1 -0.896 0.46 c 0.202 0.32 0.376 0.596 0.523 0.845 c 0.147 0.248 0.4 0.597 0.671 1.02 c 0.271 0.422 0.46 0.748 0.574 0.918 a 7.147 7.147 0 0 0 -0.721 -0.05 c -0.225 0 -0.459 0.022 -0.749 0.05 c -0.174 -0.276 -0.349 -0.597 -0.569 -0.997 l -0.349 -0.624 l 0 0.013 z m 3.261 -3.983 c 0.124 0 0.326 0.023 0.597 0.051 c 0.271 0.027 0.46 -0.05 0.602 -0.05 l 0 5.604 a 4.832 4.832 0 0 0 -0.625 -0.05 c -0.192 0.002 -0.384 0.02 -0.574 0.05 l 0 -5.606 l 0 0.001 z m -3.261 0 l 0 0.46 a 1.686 1.686 0 0 0 -0.349 -0.023 l -0.299 0 l 0 2.168 l 0.197 0 c 0.157 0.004 0.313 -0.023 0.46 -0.078 l 0 1.456 c -0.051 -0.096 -0.129 -0.197 -0.175 -0.298 c -0.128 -0.225 -0.275 -0.46 -0.427 -0.699 l -0.046 0 l 0 2.619 a 5.642 5.642 0 0 0 -0.602 -0.05 a 6.085 6.085 0 0 0 -0.62 0.05 l 0 -5.606 l 1.861 0 l 0 0.001 z m -5.513 3.91 l 0 -0.524 l 0.749 0 l -0.726 -1.893 l -0.023 0.05 l 0 -1.57 l 0.023 -0.05 a 0.302 0.302 0 0 1 0.152 0.027 l 0.151 0 c 0.108 -0.004 0.215 -0.013 0.322 -0.028 l 2.265 5.683 a 1.47 1.47 0 0 0 -0.373 -0.028 a 1.792 1.792 0 0 1 -0.372 -0.023 c -0.107 0.023 -0.217 0.03 -0.326 0.023 a 1 1 0 0 0 -0.321 0.028 c -0.175 -0.574 -0.377 -1.121 -0.575 -1.695 l -0.946 0 z m 0 -3.937 l 0 1.57 l -0.749 1.839 l 0.749 0 l 0 0.523 l -0.974 0 c -0.023 0.074 -0.096 0.276 -0.197 0.551 c -0.101 0.276 -0.175 0.496 -0.225 0.671 a 2.65 2.65 0 0 0 -0.147 0.46 a 0.465 0.465 0 0 0 -0.203 -0.028 a 0.457 0.457 0 0 1 -0.197 -0.023 a 0.406 0.406 0 0 1 -0.175 0.023 a 0.41 0.41 0 0 0 -0.202 0.028 l 2.32 -5.633 l 0 0.019 z m -5.513 5.581 l 0 -0.546 c 0.896 -0.225 1.346 -1.025 1.346 -2.366 a 2.213 2.213 0 0 0 -0.519 -1.672 a 1.638 1.638 0 0 0 -0.827 -0.423 l 0 -0.547 l 0.226 0 c 0.425 -0.003 0.845 0.1 1.222 0.299 c 0.391 0.183 0.713 0.488 0.918 0.868 c 0.249 0.43 0.37 0.923 0.349 1.42 a 3.064 3.064 0 0 1 -0.349 1.525 c -0.226 0.45 -0.581 0.822 -1.02 1.07 c -0.419 0.201 -0.872 0.32 -1.336 0.35 l -0.01 0.022 z m 0 -5.554 l 0 0.547 a 1.595 1.595 0 0 0 -0.519 -0.078 l -0.822 0 l 0 4.594 l 0.744 0 a 2.14 2.14 0 0 0 0.597 -0.074 l 0 0.547 l -2.544 0 l 0 -5.559 l 2.544 0.023 z m -13.418 5.683 l 0 -0.5 a 1.339 1.339 0 0 0 1.047 -0.423 c 0.266 -0.303 0.46 -0.66 0.57 -1.048 a 4.61 4.61 0 0 0 0.152 -1.12 a 2.79 2.79 0 0 0 -0.226 -1.172 a 1.837 1.837 0 0 0 -0.569 -0.822 a 1.416 1.416 0 0 0 -0.919 -0.299 l -0.073 0 l 0 -0.45 l 0.023 0 c 0.471 -0.015 0.941 0.07 1.378 0.248 c 0.368 0.128 0.7 0.342 0.969 0.625 a 2.4 2.4 0 0 1 0.574 0.918 c 0.13 0.361 0.197 0.742 0.198 1.126 c 0.015 0.42 -0.071 0.837 -0.248 1.217 c -0.15 0.354 -0.38 0.668 -0.671 0.919 a 3.773 3.773 0 0 1 -1.024 0.574 a 4.748 4.748 0 0 1 -1.195 0.225 l 0.014 -0.018 z m 4.038 -5.706 c 0.225 0.023 0.423 0.023 0.597 0.051 a 1.29 1.29 0 0 0 0.248 -0.028 c 0.152 0 0.276 -0.023 0.372 -0.023 l 0 4.98 c 0.552 0 1.172 -0.05 1.898 -0.124 a 4.722 4.722 0 0 0 -0.079 0.377 c 0.033 0.104 0.05 0.212 0.051 0.321 l -3.087 0 l 0 -5.552 l 0 -0.002 z m 4.185 0 c 0.124 0 0.321 0.023 0.597 0.051 c 0.276 0.028 0.459 -0.05 0.597 -0.05 l 0 5.604 a 4.686 4.686 0 0 0 -0.62 -0.05 c -0.192 0.002 -0.384 0.02 -0.574 0.05 l 0 -5.605 z m -8.223 -0.151 l 0 0.482 a 1.532 1.532 0 0 0 -1.318 0.749 a 3.753 3.753 0 0 0 -0.46 1.943 c 0.007 0.403 0.091 0.8 0.248 1.172 c 0.14 0.299 0.355 0.557 0.625 0.748 c 0.241 0.169 0.529 0.255 0.822 0.248 l 0.074 0 l 0 0.501 l -0.101 0 a 4.255 4.255 0 0 1 -1.296 -0.225 a 2.795 2.795 0 0 1 -1.222 -0.873 a 2.86 2.86 0 0 1 -0.519 -1.695 a 0.15 0.15 0 0 0 0.023 -0.096 c 0.001 -0.359 0.067 -0.714 0.198 -1.048 c 0.118 -0.349 0.306 -0.67 0.551 -0.946 c 0.263 -0.307 0.595 -0.546 0.969 -0.698 c 0.439 -0.176 0.906 -0.27 1.378 -0.276 l 0.028 0.014 z m -20.057 5.705 l 0 -0.546 c 0.896 -0.225 1.346 -1.025 1.346 -2.366 a 2.296 2.296 0 0 0 -0.5 -1.672 a 1.782 1.782 0 0 0 -0.846 -0.423 l 0 -0.547 l 0.226 0 a 2.49 2.49 0 0 1 1.217 0.3 c 0.391 0.183 0.713 0.487 0.919 0.867 c 0.238 0.435 0.358 0.924 0.349 1.42 a 3.346 3.346 0 0 1 -0.349 1.525 a 2.586 2.586 0 0 1 -1.048 1.07 c -0.41 0.211 -0.858 0.338 -1.318 0.372 l 0.004 0 z m 7.249 -2.296 a 12.008 12.008 0 0 0 -0.459 -0.8 c -0.161 -0.253 -0.299 -0.57 -0.459 -0.896 c -0.161 -0.326 -0.349 -0.62 -0.46 -0.895 c -0.11 -0.276 -0.275 -0.497 -0.372 -0.671 c 0.248 0.023 0.496 0.05 0.744 0.05 c 0.234 -0.003 0.467 -0.02 0.699 -0.05 c 0.122 0.187 0.222 0.387 0.298 0.597 c 0.124 0.248 0.225 0.46 0.349 0.721 c 0.11 0.194 0.21 0.393 0.299 0.597 c 0.081 0.18 0.173 0.355 0.276 0.524 c 0.125 -0.164 0.234 -0.339 0.326 -0.523 c 0.124 -0.226 0.22 -0.46 0.321 -0.648 c 0.101 -0.189 0.198 -0.423 0.322 -0.721 c 0.124 -0.3 0.225 -0.46 0.253 -0.547 c 0.174 0.023 0.298 0.05 0.372 0.05 c 0.141 -0.01 0.282 -0.026 0.422 -0.05 a 4.944 4.944 0 0 1 -0.349 0.597 a 9.915 9.915 0 0 1 -0.524 0.919 l -0.459 0.822 c -0.124 0.225 -0.248 0.46 -0.4 0.726 l 0 2.54 c -0.1 0.001 -0.2 -0.008 -0.298 -0.027 a 1.243 1.243 0 0 1 -0.326 -0.023 a 5.16 5.16 0 0 1 -0.598 0.05 l 0 -2.342 l 0.023 0 z m 5.931 1.047 l 0.152 0 c 0.062 0.246 0.19 0.47 0.372 0.648 c 0.223 0.165 0.494 0.252 0.771 0.248 c 0.245 0.006 0.484 -0.074 0.676 -0.226 a 0.876 0.876 0 0 0 0.023 -1.194 a 2.802 2.802 0 0 0 -0.85 -0.5 a 2.737 2.737 0 0 1 -0.721 -0.423 a 1.421 1.421 0 0 1 -0.46 -0.524 a 1.544 1.544 0 0 1 -0.174 -0.772 c 0.003 -0.292 0.071 -0.58 0.197 -0.845 a 1.58 1.58 0 0 1 0.648 -0.625 a 2.296 2.296 0 0 1 1.07 -0.248 c 0.231 0.004 0.459 0.046 0.676 0.124 c 0.206 0.053 0.4 0.146 0.569 0.276 c -0.046 0.124 -0.096 0.248 -0.147 0.395 c -0.05 0.147 -0.073 0.276 -0.124 0.4 l -0.087 0 a 1.297 1.297 0 0 0 -0.299 -0.496 a 1.029 1.029 0 0 0 -0.62 -0.212 c -0.602 0 -0.919 0.276 -0.919 0.822 c 0 0.304 0.226 0.575 0.699 0.823 l 0.624 0.303 c 0.366 0.143 0.672 0.405 0.869 0.744 c 0.174 0.274 0.262 0.594 0.252 0.919 a 1.83 1.83 0 0 1 -0.174 0.749 a 1.776 1.776 0 0 1 -0.501 0.546 a 2.291 2.291 0 0 1 -0.698 0.35 c -0.251 0.07 -0.511 0.104 -0.772 0.1 a 2.501 2.501 0 0 1 -1.318 -0.349 c 0.122 -0.333 0.211 -0.678 0.266 -1.028 l 0 -0.005 z m -13.18 -4.31 l 0 0.547 a 1.607 1.607 0 0 0 -0.5 -0.078 l -0.846 0 l 0 4.594 l 0.749 0 c 0.202 0.004 0.403 -0.02 0.597 -0.073 l 0 0.546 l -2.54 0 l 0 -5.53 l 2.54 -0.005 l 0 -0.001 z m -6.279 3.915 l 0 -0.524 l 0.748 0 l -0.721 -1.893 l -0.027 0.051 l 0 -1.571 l 0.027 -0.05 a 0.279 0.279 0 0 1 0.147 0.027 l 0.152 0 c 0.108 -0.002 0.215 -0.011 0.321 -0.028 l 2.27 5.683 a 1.503 1.503 0 0 0 -0.372 -0.028 a 1.843 1.843 0 0 1 -0.377 -0.023 c -0.107 0.023 -0.217 0.03 -0.326 0.023 a 1.012 1.012 0 0 0 -0.322 0.028 c -0.174 -0.574 -0.372 -1.121 -0.574 -1.695 l -0.946 0 z m 0 -3.937 l 0 1.571 l -0.745 1.837 l 0.745 0 l 0 0.524 l -0.97 0 l -0.202 0.552 a 9.39 9.39 0 0 0 -0.22 0.67 c -0.046 0.175 -0.101 0.299 -0.152 0.46 a 0.458 0.458 0 0 0 -0.197 -0.028 a 0.462 0.462 0 0 1 -0.203 -0.023 a 0.388 0.388 0 0 1 -0.174 0.023 c -0.074 0 -0.147 0 -0.175 0.027 l 2.297 -5.632 l -0.004 0.019 z m -5.513 5.581 l 0 -0.546 c 0.919 -0.225 1.346 -1.02 1.346 -2.366 a 2.216 2.216 0 0 0 -0.524 -1.672 a 1.625 1.625 0 0 0 -0.822 -0.423 l 0 -0.547 l 0.221 0 c 0.425 -0.003 0.845 0.1 1.222 0.3 c 0.384 0.192 0.704 0.494 0.918 0.867 c 0.239 0.437 0.359 0.927 0.349 1.424 a 3.34 3.34 0 0 1 -0.376 1.52 c -0.224 0.453 -0.58 0.826 -1.02 1.071 c -0.41 0.207 -0.856 0.333 -1.314 0.372 z m 0 -5.553 l 0 0.546 a 1.655 1.655 0 0 0 -0.524 -0.078 l -0.822 0 l 0 4.594 l 0.744 0 a 2.18 2.18 0 0 0 0.602 -0.074 l 0 0.547 l -2.545 0 l 0 -5.535 l 2.545 0 z m -8.462 4.005 l 0 -1.424 a 0.98 0.98 0 0 0 0.648 -1.07 c 0.009 -0.23 -0.033 -0.46 -0.124 -0.67 a 0.74 0.74 0 0 0 -0.354 -0.3 c -0.046 -0.027 -0.119 -0.027 -0.17 -0.055 l 0 -0.459 l 0.193 0 c 0.295 -0.017 0.59 0.016 0.873 0.096 c 0.195 0.082 0.373 0.2 0.524 0.35 a 1.13 1.13 0 0 1 0.349 0.872 a 1.328 1.328 0 0 1 -0.4 1.025 a 2.008 2.008 0 0 1 -0.896 0.46 c 0.203 0.32 0.377 0.596 0.547 0.845 c 0.17 0.248 0.377 0.597 0.648 1.02 c 0.271 0.422 0.459 0.748 0.574 0.918 a 6.708 6.708 0 0 0 -0.721 -0.05 c -0.225 0 -0.46 0.022 -0.749 0.05 c -0.175 -0.276 -0.349 -0.597 -0.57 -0.997 l -0.349 -0.62 l -0.023 0.01 l 0 -0.001 z m 3.262 -3.987 c 0.124 0 0.321 0.023 0.597 0.05 c 0.276 0.028 0.459 -0.05 0.597 -0.05 l 0 5.603 a 4.686 4.686 0 0 0 -0.62 -0.05 a 4.349 4.349 0 0 0 -0.574 0.05 l 0 -5.604 l 0 0.001 z m -26.01 4.309 l 0.174 0 c 0.043 0.253 0.175 0.483 0.372 0.648 c 0.212 0.17 0.478 0.257 0.749 0.248 c 0.244 0.01 0.483 -0.07 0.671 -0.225 a 0.8 0.8 0 0 0 0.276 -0.62 a 0.725 0.725 0 0 0 -0.249 -0.574 a 2.322 2.322 0 0 0 -0.822 -0.497 a 3.558 3.558 0 0 1 -0.749 -0.427 a 1.51 1.51 0 0 1 -0.459 -0.52 a 1.932 1.932 0 0 1 -0.147 -0.776 a 1.726 1.726 0 0 1 0.198 -0.845 a 1.49 1.49 0 0 1 0.624 -0.625 c 0.333 -0.165 0.699 -0.25 1.071 -0.248 c 0.245 0.006 0.488 0.047 0.721 0.124 c 0.201 0.053 0.388 0.147 0.551 0.276 c -0.05 0.124 -0.078 0.248 -0.128 0.4 c -0.05 0.129 -0.092 0.26 -0.125 0.395 l -0.124 0 a 1.138 1.138 0 0 0 -0.349 -0.496 a 0.917 0.917 0 0 0 -0.597 -0.198 c -0.597 0 -0.896 0.271 -0.896 0.818 c 0 0.303 0.248 0.574 0.722 0.826 l 0.597 0.3 c 0.378 0.143 0.7 0.404 0.919 0.743 c 0.17 0.276 0.256 0.595 0.248 0.92 c -0.001 0.262 -0.069 0.52 -0.198 0.748 a 1.778 1.778 0 0 1 -0.501 0.547 a 2.161 2.161 0 0 1 -0.698 0.349 c -0.259 0.07 -0.526 0.104 -0.795 0.1 a 2.427 2.427 0 0 1 -1.295 -0.348 c 0.099 -0.344 0.174 -0.694 0.225 -1.048 l 0.014 0.005 z m 22.748 -4.31 l 0 0.46 a 1.677 1.677 0 0 0 -0.349 -0.023 l -0.303 0 l 0 2.173 l 0.202 0 c 0.157 0.004 0.313 -0.023 0.459 -0.078 l 0 1.456 c -0.05 -0.1 -0.128 -0.202 -0.179 -0.303 c -0.124 -0.225 -0.248 -0.46 -0.395 -0.698 l -0.078 0 l 0 2.617 a 5.495 5.495 0 0 0 -0.597 -0.05 a 5.973 5.973 0 0 0 -0.62 0.05 l 0 -5.604 l 1.86 0 z m -18.591 5.555 l 0 -5.573 l 3.115 0 a 3.131 3.131 0 0 0 -0.074 0.373 c 0.035 0.105 0.052 0.215 0.051 0.326 a 11.397 11.397 0 0 0 -1.594 -0.101 l -0.276 0 l 0 1.745 l 1.047 0 c 0.269 0.006 0.537 -0.02 0.8 -0.078 c 0 0.078 -0.028 0.147 -0.028 0.225 l 0 0.152 c 0 0.124 0 0.22 0.051 0.344 a 5.872 5.872 0 0 0 -0.997 -0.073 l -0.85 0 l 0 2.067 a 15.973 15.973 0 0 0 1.893 -0.124 a 3.444 3.444 0 0 1 -0.074 0.377 c 0.033 0.104 0.05 0.212 0.051 0.321 l -3.115 0.019 z m 3.79 -2.614 a 3.36 3.36 0 0 1 0.175 -1.098 c 0.102 -0.364 0.289 -0.697 0.546 -0.974 a 2.523 2.523 0 0 1 1.048 -0.721 a 4.593 4.593 0 0 1 1.571 -0.299 a 4 4 0 0 1 2.007 0.464 c -0.059 0.15 -0.11 0.304 -0.151 0.46 c -0.051 0.174 -0.074 0.298 -0.101 0.372 l -0.097 0 a 1.64 1.64 0 0 0 -0.749 -0.62 a 2.137 2.137 0 0 0 -0.873 -0.198 a 1.673 1.673 0 0 0 -0.799 0.175 c -0.251 0.123 -0.472 0.3 -0.648 0.519 a 2.736 2.736 0 0 0 -0.422 0.822 a 4.978 4.978 0 0 0 -0.175 1.098 c 0.001 0.411 0.087 0.818 0.253 1.194 c 0.159 0.315 0.389 0.588 0.671 0.8 c 0.286 0.174 0.611 0.276 0.946 0.298 c 0.356 -0.017 0.704 -0.11 1.02 -0.276 l 0 -1.887 c 0.198 0.04 0.4 0.056 0.602 0.05 c 0.208 0.007 0.416 -0.01 0.62 -0.05 l 0 2.264 a 7.136 7.136 0 0 1 -2.192 0.377 a 4.643 4.643 0 0 1 -1.148 -0.152 a 3.137 3.137 0 0 1 -1.043 -0.459 a 2.52 2.52 0 0 1 -0.767 -0.882 a 3.016 3.016 0 0 1 -0.276 -1.295 l -0.018 0.018 z m 6.725 0.5 l 0 -3.459 c 0.225 0.023 0.423 0.051 0.598 0.051 c 0.174 0 0.399 -0.028 0.624 -0.05 l 0 3.137 c -0.002 0.268 0.022 0.536 0.074 0.8 c 0.026 0.21 0.093 0.412 0.197 0.596 a 1.383 1.383 0 0 0 1.172 0.62 c 0.248 0.009 0.495 -0.041 0.721 -0.146 c 0.198 -0.099 0.37 -0.244 0.501 -0.423 a 1.95 1.95 0 0 0 0.298 -0.8 c 0.052 -0.337 0.076 -0.678 0.074 -1.02 l 0 -2.755 c 0.051 0 0.102 0.007 0.151 0.023 l 0.322 0 a 0.553 0.553 0 0 1 0.175 -0.023 l 0 2.963 a 5.66 5.66 0 0 1 -0.124 1.245 c -0.059 0.317 -0.22 0.606 -0.46 0.822 a 3.018 3.018 0 0 1 -0.496 0.377 a 2.074 2.074 0 0 1 -0.574 0.22 a 3.453 3.453 0 0 1 -0.772 0.078 a 2.638 2.638 0 0 1 -1.966 -0.675 a 2.212 2.212 0 0 1 -0.515 -1.58 l 0 -0.001 z m -39.047 -19.091 a 5.871 5.871 0 0 0 -0.216 1.667 c 0.058 0.72 0.247 1.424 0.556 2.077 c 1.231 2.416 2.224 3.914 2.848 6.643 c 0.46 1.883 0.676 3 0.579 4.929 a 10.25 10.25 0 0 1 -0.193 1.57 a 22.873 22.873 0 0 0 -1.787 -6.546 a 25.53 25.53 0 0 0 -1.713 -3.454 c -0.579 -1.015 -2.274 -3.335 -2.463 -3.625 a 3.408 3.408 0 0 1 -0.606 -1.764 c 0.046 -0.748 0.34 -1.111 0.965 -1.667 c 1.571 -1.277 3.215 -2.462 4.52 -3.625 c 0.009 0.005 -2.288 2.876 -2.49 3.795 z m -3.276 15.605 a 5.907 5.907 0 0 1 -0.505 2.899 a 3.26 3.26 0 0 1 -0.822 1.162 c -0.317 0.218 -0.668 0.38 -1.039 0.482 c -0.941 0.216 -1.548 -0.17 -2.007 -0.22 a 2.758 2.758 0 0 0 -1.498 0.197 c -0.386 0.216 -0.868 0.653 -1.571 0.602 a 2.063 2.063 0 0 1 -1.231 -0.602 a 1.599 1.599 0 0 0 0.992 1.447 c 0.342 0.12 0.71 0.137 1.061 0.051 c 0.244 -0.074 0.46 -0.34 0.846 -0.386 c 0.386 -0.046 0.51 -0.073 0.583 0.069 c 0.12 0.22 -0.487 0.266 -0.459 0.533 c 0.023 0.409 1.497 0 2.003 0 a 0.164 0.164 0 0 1 0.106 0.056 a 0.164 0.164 0 0 1 0.041 0.114 c 0.023 0.239 -0.34 0.409 -0.584 0.556 a 1.777 1.777 0 0 1 -1.203 0.17 c 0.661 0.26 1.366 0.391 2.076 0.386 a 5.216 5.216 0 0 0 2.32 -0.823 a 6.8 6.8 0 0 0 1.787 -2.682 a 7.027 7.027 0 0 0 0.312 -4.3 a 7.197 7.197 0 0 0 -1.254 -2.876 a 7.487 7.487 0 0 0 -1.594 -1.64 a 7.355 7.355 0 0 0 -1.791 -0.992 a 4.026 4.026 0 0 0 -2.509 -0.193 a 2.478 2.478 0 0 0 -1.332 0.941 c -0.18 0.253 -0.304 0.541 -0.363 0.846 c -0.165 0.703 0.607 2.32 0.46 3.091 a 4.95 4.95 0 0 1 -0.529 1.452 c -0.413 0.822 -0.482 0.795 -0.872 1.64 c -0.151 0.251 -0.272 0.52 -0.359 0.8 a 1.642 1.642 0 0 1 1.135 -0.749 c 0.328 -0.037 0.661 0.012 0.965 0.142 c 0.176 0.078 0.333 0.194 0.459 0.34 c 0.108 0.097 0.198 0.212 0.266 0.34 a 0.746 0.746 0 0 1 0.46 0.096 c 0.09 0.056 0.158 0.14 0.193 0.24 c 0.051 0.134 0.093 0.272 0.124 0.413 a 1.048 1.048 0 0 0 -0.074 -0.676 a 0.958 0.958 0 0 0 -0.266 -0.385 a 0.696 0.696 0 0 1 -0.46 -0.584 a 0.53 0.53 0 0 1 0.29 -0.505 a 1.355 1.355 0 0 0 -0.046 -0.124 c 0 -0.046 -0.051 -0.143 -0.051 -0.12 a 0.878 0.878 0 0 1 -0.578 0.363 c -0.193 0.05 -0.46 -0.142 -0.772 -0.17 a 1 1 0 0 0 -0.533 0.028 a 3.414 3.414 0 0 1 1.231 -1.838 a 4.031 4.031 0 0 1 1.236 -0.533 c 0.459 -0.12 0.721 -0.073 1.157 -0.17 c 0.227 -0.028 0.447 -0.093 0.653 -0.193 c 0.397 -0.23 0.716 -0.575 0.918 -0.987 a 2.257 2.257 0 0 1 -1.571 0.794 a 3.41 3.41 0 0 1 -1.86 -0.725 c -0.335 -0.29 -1.084 -1.204 -1.015 -1.884 a 1.38 1.38 0 0 1 0.68 -1.084 a 2.234 2.234 0 0 1 1.713 -0.17 a 7.15 7.15 0 0 1 1.328 0.483 c 0.516 0.276 0.995 0.617 1.424 1.015 a 6.53 6.53 0 0 1 1.258 1.69 c 0.367 0.672 0.595 1.411 0.671 2.173 z" stroke-linecap="round" />
</g>
		<g transform="matrix(1 0 0 1 -137.65 0.5)" id="svg_6" clip-path="url(#CLIPPATH_10)"  >
<clipPath id="CLIPPATH_10" >
	<path transform="matrix(1 0 0 1 131.65 0) translate(-720, -34.57)" id="svg_1" d="m 567.646 15.566 l 304.707 0 l 0 38 l -304.707 0 l 0 -38 z" stroke-linecap="round" />
</clipPath>
<path style="stroke: none; stroke-width: 1; stroke-dasharray: none; stroke-linecap: butt; stroke-dashoffset: 0; stroke-linejoin: miter; stroke-miterlimit: 4; fill: rgb(255,255,255); fill-rule: evenodd; opacity: 1;"  transform=" translate(-588.35, -34.56)" d="m 608.862 25.755 c -0.17 -3.188 -0.579 -5.604 -1.061 -6.569 a 4.699 4.699 0 0 0 -2.32 -2.393 a 10.215 10.215 0 0 0 -3.142 -0.726 c -2.582 -0.17 -4.975 -0.193 -7.295 -0.363 a 71.588 71.588 0 0 0 -4.516 -0.12 a 53.031 53.031 0 0 0 -2.706 0 c -1.015 0.028 -1.474 0.028 -2.756 0.028 c -1.061 0 -2.995 0.046 -4.135 0.046 c -1.254 0 -6.206 0 -8.503 0.652 a 6.888 6.888 0 0 0 -1.69 0.676 c -0.415 0.267 -0.783 0.6 -1.089 0.987 a 6.66 6.66 0 0 0 -1.378 3.483 c -0.294 2.439 -0.267 2.995 -0.317 3.601 c 0 0.165 -0.097 1.81 -0.193 2.99 c -0.096 1.668 -0.142 4.254 -0.119 6.189 c 0.046 3.215 0 4.566 0.046 6.33 c 0.05 1.06 0.169 1.81 0.22 3.427 c 0.046 0.969 0.193 2.467 0.363 3.601 c 0.112 0.637 0.265 1.267 0.459 1.884 c 0.085 0.282 0.192 0.557 0.322 0.822 a 5.21 5.21 0 0 0 1.378 1.64 a 5.421 5.421 0 0 0 2.026 0.919 c 1.213 0.251 2.44 0.429 3.675 0.533 c 1.378 0.096 2.922 0.073 3.404 0.096 c 3.046 0.05 5.825 0.05 8.241 0.074 c 1.061 0 5.214 -0.023 9.032 -0.216 c 3.817 -0.193 6.256 -0.22 7.589 -0.63 c 1.332 -0.409 1.47 -0.505 2.173 -1.065 a 4.748 4.748 0 0 0 1.304 -1.93 c 0.329 -0.879 0.548 -1.795 0.652 -2.728 c 0.097 -1.26 0.216 -1.958 0.313 -3.193 a 39.38 39.38 0 0 0 0.147 -2.389 c 0.069 -2.2 0.069 -4.663 0.069 -6.767 c 0.023 -2.416 -0.023 -5.893 -0.193 -8.889 z m -37.251 -3.675 a 5.677 5.677 0 0 1 0.918 -2.852 c 0.136 -0.195 0.29 -0.377 0.46 -0.543 c 0.329 -0.3 0.706 -0.542 1.116 -0.716 a 4.134 4.134 0 0 1 1.906 -0.216 c 0.586 0.097 1.145 0.31 1.645 0.63 c 0.505 0.289 2.609 1.906 4.64 3.477 a 51.377 51.377 0 0 1 4.295 3.794 c -0.988 0.12 -3.675 0.363 -5.604 0.506 c -1.787 0.124 -3.675 -0.023 -5.651 0.147 a 6.559 6.559 0 0 0 -1.713 0.459 c -0.687 0.32 -1.31 0.762 -1.838 1.305 c -0.073 -0.8 -0.05 -1.066 -0.073 -1.86 c -0.124 -1.544 -0.101 -2.486 -0.101 -4.15 l 0 0.02 l 0 -0.001 z m 14.521 30.145 c -1.741 0 -3.675 -0.07 -5.219 -0.749 a 9.261 9.261 0 0 1 -4.18 -4.033 a 30.247 30.247 0 0 1 -2.247 -5.582 c -0.675 -2.173 -1.015 -3.307 -1.474 -5.241 c -0.239 -1.112 -0.46 -2.054 -0.625 -3.188 a 26.71 26.71 0 0 1 5.191 0.045 c 0.907 0.05 1.81 0.148 2.706 0.295 c 0.919 0.165 1.957 0.528 2.053 1.787 a 2.675 2.675 0 0 1 -0.386 1.548 a 7.112 7.112 0 0 1 1.81 -0.8 a 5.67 5.67 0 0 1 2.444 -0.096 a 7.19 7.19 0 0 1 2.655 1.015 a 7.947 7.947 0 0 1 2.343 1.81 a 9.188 9.188 0 0 1 2.32 5.972 c 0 1.475 -0.142 3.698 -1.98 5.512 c -1.621 1.64 -4.736 1.686 -5.411 1.686 l 0 0.019 z m 19.422 -22.877 a 56.488 56.488 0 0 1 -1.281 7.465 a 48.092 48.092 0 0 1 -1.447 5.218 c -0.487 1.328 -1.259 3.721 -2.127 5.315 c -1.328 2.417 -2.683 3.018 -3.381 3.381 a 10.86 10.86 0 0 1 -4.401 1.135 c 1.065 -1.686 1.548 -2.366 2.081 -4.033 a 9.34 9.34 0 0 0 0.17 -4.346 a 12.65 12.65 0 0 0 -2.513 -5.292 a 16.726 16.726 0 0 0 -7.079 -4.906 a 26.464 26.464 0 0 0 -6.183 -1.254 c -1.889 -0.17 -2.637 -0.244 -4.254 -0.29 c -1.305 -0.023 -2.706 -0.147 -3.262 0.12 c -0.253 0.093 -0.46 0.28 -0.579 0.523 l -0.629 -1.208 a 0.918 0.918 0 0 1 0.386 -1.185 c 0.35 -0.208 0.714 -0.392 1.089 -0.552 a 0.706 0.706 0 0 1 0.436 -0.05 c 0.108 0 0.212 0.044 0.289 0.12 c 0.097 0.073 0.749 0.606 1.016 0.822 l 1.929 -1.401 l -2.297 -0.05 c -0.266 0 -0.51 0.123 -0.51 -0.047 c 0 -0.266 0.46 -0.363 1.282 -0.772 a 4.88 4.88 0 0 1 1.957 -0.482 c 1.304 -0.124 2.416 0.023 4.35 -0.073 c 1.838 -0.074 3.404 -0.363 3.574 -0.363 a 5.06 5.06 0 0 1 -1.015 1.157 c -0.891 0.896 -1.521 1.112 -2.632 1.815 a 19.023 19.023 0 0 0 5.434 -2.343 c 0.602 -0.34 1.714 -1.089 2.779 -1.815 c 3.455 -2.342 5.798 -4.47 8.481 -6.523 c 2.099 -1.617 4.635 -2.412 6.592 -0.965 c 1.957 1.448 1.911 4.594 1.934 4.884 a 35.517 35.517 0 0 1 -0.189 5.976 l 0 0.019 z" stroke-linecap="round" />
</g>
</g>
</g>
</svg>