<svg width="71" height="70" viewBox="0 0 71 70" fill="none" xmlns="http://www.w3.org/2000/svg">
    <g clip-path="url(#34vfk49kfa)">
        <path d="M49.93 29.168c-11.257 0-20.417 9.157-20.417 20.417C29.513 60.845 38.673 70 49.93 70c11.258 0 20.418-9.157 20.418-20.418 0-11.26-9.158-20.414-20.418-20.414zm0 35c-8.05 0-14.582-6.533-14.582-14.583S41.88 35 49.93 35s14.583 6.532 14.583 14.582S57.98 64.168 49.93 64.168z" fill="#96CFD9"/>
        <path d="M49.93 46.668a4.375 4.375 0 1 0 0-8.75 4.375 4.375 0 0 0 0 8.75zM52.848 52.5v5.832a2.926 2.926 0 0 1-2.918 2.918 2.926 2.926 0 0 1-2.917-2.918V52.5a2.926 2.926 0 0 1 2.917-2.918 2.926 2.926 0 0 1 2.918 2.918z" fill="#96CFD9"/>
        <path d="M26.598 61.25a2.926 2.926 0 0 1-2.918 2.918h-8.75C6.88 64.168.348 57.632.348 49.582v-35C.348 6.532 6.88 0 14.93 0h16.8c3.063 0 6.068 1.255 8.255 3.413l9.45 9.45a11.728 11.728 0 0 1 3.383 7.292 2.952 2.952 0 0 1-2.683 3.15h-.232c-1.518 0-2.77-1.168-2.918-2.682v-.233h-8.692c-3.208 0-5.833-2.625-5.833-5.832V5.893c-.232 0-.467-.058-.7-.058H14.93c-4.812 0-8.75 3.938-8.75 8.75v35c0 4.813 3.938 8.75 8.75 8.75h8.75a2.921 2.921 0 0 1 2.918 2.915z" fill="#E7E9EE"/>
    </g>
    <defs>
        <clipPath id="34vfk49kfa">
            <path fill="#fff" transform="translate(.348)" d="M0 0h70v70H0z"/>
        </clipPath>
    </defs>
</svg>
