<svg width="56" height="50" viewBox="0 0 56 50" fill="none" xmlns="http://www.w3.org/2000/svg">
    <g clip-path="url(#2m0j8csb5a)">
        <path d="M44.008 4.545H29.172a2.301 2.301 0 0 1-1.016-.228L20.982.718A6.843 6.843 0 0 0 17.935 0H12.19C5.916.009.835 5.09.826 11.363v27.272c.009 6.273 5.09 11.357 11.363 11.363h31.817c6.273-.009 11.356-5.09 11.363-11.363V15.91c-.007-6.273-5.088-11.357-11.36-11.365zM5.371 11.363a6.819 6.819 0 0 1 6.818-6.818h5.746c.352 0 .7.083 1.017.238l7.171 3.588c.946.471 1.99.718 3.047.718h14.836a6.82 6.82 0 0 1 6.4 4.545H5.371v-2.271zm45.455 27.272a6.819 6.819 0 0 1-6.818 6.818h-31.82a6.819 6.819 0 0 1-6.817-6.818V18.181h45.453v20.454h.002z" fill="#717C98"/>
        <path d="M21.28 34.09h4.545v4.545a2.274 2.274 0 0 0 4.547 0v-4.544h4.544a2.274 2.274 0 0 0 0-4.547h-4.544v-4.545a2.274 2.274 0 0 0-4.547 0v4.545H21.28a2.274 2.274 0 0 0 0 4.546z" fill="#42A6B8"/>
    </g>
    <defs>
        <clipPath id="2m0j8csb5a">
            <path fill="#fff" transform="translate(.826)" d="M0 0h54.545v50H0z"/>
        </clipPath>
    </defs>
</svg>
