<svg width="449" height="421" viewBox="0 0 449 421" fill="none" xmlns="http://www.w3.org/2000/svg">
    <g clip-path="url(#sbfsj7o18a)">
        <path d="M400.251 368.082H28.711L6.557 116.283h371.54l22.154 251.799z" fill="#F0F0F0"/>
        <path d="m22.142 376.094 6.569-8.012L6.556 116.283 0 124.431l22.142 251.663z" fill="#E0E0E0"/>
        <path d="M33.618 358.52 13.211 126.581a4.184 4.184 0 0 1 4.17-4.547h351.637a4.194 4.194 0 0 1 4.17 3.81l20.408 231.939a4.184 4.184 0 0 1-4.17 4.547H37.788c-2.165 0-3.985-1.659-4.17-3.81z" fill="#FAFAFA"/>
        <path d="M80.929 368.082H24.947l-3.949 11.306h55.97l3.96-11.306z" fill="#E0E0E0"/>
        <path d="M80.929 368.082H449l-3.948 11.306H76.968l3.96-11.306z" fill="#F5F5F5"/>
        <path d="M232.502 368.082h70.559l-.763 7.398h-70.559l.763-7.398zM339.41 99.766h89.146c7.393 48.863-26.78 89.062-75.676 89.062-15.647 0-31.638-4.117-46.375-11.933l32.905-77.13z" fill="#E0E0E0"/>
        <path d="m339.41 99.766 46.99-68.219c11.231 8.357 20.838 18.803 28.12 30.588 7.282 11.786 12.08 24.64 14.048 37.643H339.41v-.012z" fill="#EBEBEB"/>
        <path d="m339.409 99.766-13.457-89.062c10.395 0 20.998 1.819 31.306 5.37 10.309 3.552 20.174 8.788 29.154 15.46l-47.003 68.232z" fill="#E6E6E6"/>
        <path d="m339.41 99.766-32.906 77.128c-29.953-15.89-51.43-45.348-56.228-77.128-7.392-48.863 26.78-89.062 75.676-89.062l13.458 89.062z" fill="#F0F0F0"/>
        <path d="M229.365 258.693h79.071c1.046 6.907 1.181 13.777.394 20.45-.775 6.673-2.473 13.076-5.019 19.048l-74.446-39.498z" fill="#EBEBEB"/>
        <path d="m229.365 258.693 1.968-77.804c18.796 3.219 36.83 12.793 50.927 27.024 14.097 14.219 23.372 32.211 26.176 50.78h-79.071z" fill="#E0E0E0"/>
        <path d="m229.365 258.693-70.227 27.025c-4.465-8.664-7.466-17.808-8.856-27.025-6.557-43.345 23.753-79.009 67.126-79.009 4.601 0 9.263.406 13.913 1.205l-1.956 77.804z" fill="#F0F0F0"/>
        <path d="m229.365 258.693 74.458 39.498c-10.419 24.42-34.295 39.499-62.513 39.499-33.164 0-66.118-20.843-82.171-51.985l70.226-27.012zM215.133 203.636H104.337c-7.036 0-13.248-5.751-13.826-12.768l-5.548-68.072c-.578-7.029 4.712-12.768 11.748-12.768h110.807c7.037 0 13.249 5.751 13.827 12.768l5.547 68.072c.554 7.017-4.723 12.768-11.759 12.768z" fill="#fff"/>
        <path d="M215.132 204.165H104.337c-7.32 0-13.765-5.948-14.356-13.261l-5.547-68.071c-.296-3.551.836-6.907 3.173-9.438 2.325-2.519 5.56-3.908 9.103-3.908h110.808c7.319 0 13.765 5.948 14.355 13.26l5.548 68.071c.295 3.552-.837 6.907-3.174 9.439-2.337 2.519-5.572 3.908-9.115 3.908zM96.698 110.556c-3.248 0-6.2 1.266-8.316 3.564-2.128 2.31-3.161 5.383-2.89 8.627l5.547 68.071c.554 6.772 6.52 12.29 13.298 12.29h110.808c3.247 0 6.199-1.266 8.315-3.564 2.128-2.31 3.161-5.383 2.891-8.627l-5.548-68.072c-.554-6.771-6.52-12.289-13.297-12.289H96.698z" fill="#6BA3B5"/>
        <path d="M185.069 183.764c-4.343 4.732-9.964 8.124-16.287 9.857l-1.833-5.248c13.642-3.724 22.88-16.431 21.65-31.535-.738-9.02-5.056-17.181-11.452-23.092l3.53-3.846c15.992 14.772 17.972 39.092 4.392 53.864z" fill="#D7E8ED"/>
        <path d="m180.678 129.9-3.531 3.846c-6.396-5.911-14.86-9.561-23.888-9.561-9.029 0-16.902 3.662-22.315 9.574l-4.17-3.859c6.569-7.141 15.943-11.159 26.042-11.159 10.111.012 20.124 4.018 27.862 11.159z" fill="#A6CDD7"/>
        <path d="M168.782 193.621c-12.854 3.514-27.222-.259-37.629-9.857-15.979-14.772-17.959-39.08-4.391-53.864l4.17 3.859c-5.437 5.911-8.426 14.059-7.688 23.079 1.464 18.017 17.283 32.629 35.328 32.629 2.916 0 5.733-.381 8.365-1.094l1.845 5.248z" fill="#42A6B8"/>
        <path d="M64.199 0h-8.882v1.07H64.2V0zM46.707 0H26.484v1.07h20.223V0z" fill="#6BA3B5"/>
        <path d="M140.785 97.836H29.977c-7.036 0-13.248-5.751-13.826-12.768l-5.535-68.072c-.579-7.03 4.71-12.78 11.735-12.78h110.807c7.037 0 13.249 5.75 13.827 12.768l5.548 68.071c.565 7.03-4.712 12.781-11.748 12.781z" fill="#fff"/>
        <path d="M140.785 98.365H29.977c-7.319 0-13.764-5.948-14.355-13.26l-5.548-68.072c-.295-3.551.837-6.906 3.174-9.438 2.325-2.52 5.56-3.908 9.103-3.908h110.807c7.32 0 13.765 5.948 14.356 13.26l5.548 68.072c.295 3.551-.837 6.906-3.174 9.438-2.325 2.52-5.56 3.908-9.103 3.908zM22.351 4.756c-3.248 0-6.2 1.266-8.316 3.564-2.128 2.31-3.161 5.37-2.89 8.627l5.547 68.072c.554 6.771 6.52 12.289 13.298 12.289h110.807c3.248 0 6.2-1.266 8.316-3.564 2.128-2.31 3.161-5.383 2.891-8.627l-5.548-68.072c-.554-6.771-6.52-12.289-13.298-12.289H22.351z" fill="#6BA3B5"/>
        <path d="M20.629 23.756H79.34l-.467-5.801H20.161l.468 5.8z" fill="#E0E0E0"/>
        <path d="M138.067 23.756H79.341l-.467-5.801h58.713l.48 5.8z" fill="#42A6B8"/>
        <path d="M21.859 38.835h16.754l-.48-5.789H21.392l.467 5.789z" fill="#E0E0E0"/>
        <path d="M139.297 38.835H38.613l-.48-5.789h100.684l.48 5.789z" fill="#8FBFCB"/>
        <path d="M23.088 53.926h52.268l-.48-5.8H22.62l.468 5.8z" fill="#E0E0E0"/>
        <path d="M140.527 53.926H75.356l-.48-5.8h65.171l.48 5.8z" fill="#42A6B8"/>
        <path d="M24.319 69.005h89.195l-.468-5.788H23.852l.467 5.788z" fill="#E0E0E0"/>
        <path d="M141.744 69.005h-28.231l-.467-5.788h28.231l.467 5.788z" fill="#8FBFCB"/>
        <path d="M25.55 84.097h41.257l-.48-5.8H25.082l.467 5.8z" fill="#E0E0E0"/>
        <path d="M142.975 84.097H66.807l-.48-5.8h76.18l.468 5.8z" fill="#42A6B8"/>
        <path d="M292.26 97.837H181.453c-7.037 0-13.249-5.752-13.827-12.77l-5.548-68.07c-.578-7.03 4.712-12.77 11.748-12.77h110.808c7.036 0 13.248 5.752 13.826 12.77l5.548 68.07c.566 7.018-4.724 12.77-11.748 12.77z" fill="#fff"/>
        <path d="M292.26 98.365H181.452c-7.319 0-13.765-5.948-14.355-13.26l-5.548-68.072c-.295-3.551.836-6.906 3.174-9.438 2.325-2.52 5.56-3.908 9.102-3.908h110.808c7.319 0 13.765 5.948 14.355 13.26l5.548 68.072c.295 3.551-.836 6.906-3.173 9.438-2.338 2.52-5.561 3.908-9.103 3.908zM173.825 4.756c-3.247 0-6.199 1.266-8.315 3.564-2.128 2.31-3.161 5.37-2.891 8.627l5.548 68.072c.553 6.771 6.519 12.289 13.297 12.289h110.808c3.248 0 6.2-1.266 8.316-3.564 2.128-2.31 3.161-5.37 2.89-8.627l-5.547-68.072c-.554-6.771-6.52-12.289-13.298-12.289H173.825z" fill="#6BA3B5"/>
        <path d="M236.709 84.097h-1.956l-5.388-66.142h1.956l5.388 66.142z" fill="#E0E0E0"/>
        <path d="M239.661 56.605h-12.338l-2.103-25.832h12.338l2.103 25.832z" fill="#747B95"/>
        <path d="M212.427 84.097h-1.956l-5.388-66.142h1.956l5.388 66.142z" fill="#E0E0E0"/>
        <path d="M215.846 62.344h-12.338l-1.845-22.649h12.338l1.845 22.65z" fill="#747B95"/>
        <path d="M188.144 84.097h-1.955l-5.388-66.142h1.956l5.387 66.142z" fill="#E0E0E0"/>
        <path d="M190.039 43.714h-12.338l-1.267-15.546h12.338l1.267 15.546z" fill="#ACB0C0"/>
        <path d="M261.003 84.097h-1.956l-5.388-66.142h1.956l5.388 66.142z" fill="#E0E0E0"/>
        <path d="M265.149 71.279h-12.338l-3.309-40.506h12.35l3.297 40.506z" fill="#ACB0C0"/>
        <path d="M285.285 84.097h-1.956l-5.388-66.142h1.956l5.388 66.142z" fill="#E0E0E0"/>
        <path d="M289.824 76.133h-12.337l-2.645-32.444h12.338l2.644 32.444z" fill="#747B95"/>
        <path d="M173.679 308.564H62.883c-7.036 0-13.248-5.752-13.826-12.769l-5.548-68.071c-.578-7.03 4.711-12.769 11.748-12.769h110.807c7.036 0 13.248 5.751 13.827 12.769l5.547 68.071c.566 7.03-4.723 12.769-11.759 12.769z" fill="#fff"/>
        <path d="M173.678 309.105H62.883c-7.32 0-13.765-5.949-14.356-13.261l-5.547-68.071c-.296-3.552.836-6.907 3.173-9.438 2.325-2.52 5.56-3.908 9.103-3.908h110.808c7.319 0 13.765 5.948 14.355 13.26l5.548 68.071c.295 3.552-.837 6.907-3.174 9.438-2.337 2.52-5.56 3.909-9.115 3.909zM55.256 215.483c-3.247 0-6.2 1.266-8.315 3.564-2.129 2.311-3.162 5.383-2.891 8.628l5.548 68.071c.553 6.771 6.52 12.289 13.297 12.289h110.808c3.247 0 6.199-1.265 8.315-3.564 2.128-2.31 3.162-5.37 2.891-8.627l-5.548-68.071c-.553-6.772-6.519-12.29-13.297-12.29H55.256z" fill="#6BA3B5"/>
        <path d="m70.239 260.143 23.888 27.566 27.382-42.215 16.939 21.814 4.133-6.366 27.677 33.145-106.318-.037 6.299-33.907z" fill="#747B95"/>
        <path d="m149.962 261.852-11.096 23.743-35.402-56.163-16.668 35.664-5.339-8.467-17.517 37.458 106.318-.049-20.296-32.186z" fill="#E0E0E0"/>
        <path d="M377.863 104.915c2.965 5.555 5.511 11.048 7.91 16.763 2.337 5.727 4.502 11.54 6.187 17.672.431 1.524.8 3.097 1.156 4.67.148.541.492 2.249.492 3.331.062 1.204-.037 2.298-.184 3.33-.664 4.08-2.104 7.214-3.654 10.176-3.186 5.862-7.023 10.716-11.501 15.3a3.48 3.48 0 0 1-4.92.062 3.47 3.47 0 0 1-.665-4.08l.086-.173c2.633-5.087 5.253-10.458 7.012-15.546.849-2.519 1.525-5.1 1.513-7.005-.012-.454-.025-.872-.098-1.167a1.438 1.438 0 0 0-.099-.357l-.234-.725a74.576 74.576 0 0 0-1.328-3.981c-1.857-5.334-4.17-10.692-6.556-16.014a493.177 493.177 0 0 0-7.48-15.816l-.049-.098a6.965 6.965 0 0 1 3.162-9.34c3.395-1.647 7.491-.308 9.25 2.998z" fill="#8FBFCB"/>
        <path d="m374.026 171.463-5.868 1.843 6.913 8.086s2.67-2.347 3.629-5.739c.32-1.143-.147-2.372-1.119-3.072l-.984-.713a2.985 2.985 0 0 0-2.571-.405zM360.063 178.295l7.406 5.875 7.589-2.778-6.913-8.074-8.082 4.977z" fill="#7F3E3B"/>
        <path d="M334.785 63.807c-.148.725-.652 1.241-1.132 1.143-.479-.099-.738-.762-.59-1.487.148-.725.652-1.241 1.132-1.143.467.098.738.762.59 1.487z" fill="#263238"/>
        <path d="M334.195 65.06s-2.51 3.86-4.736 5.518c1.046 1.463 3.346 1.352 3.346 1.352l1.39-6.87z" fill="#F2A792"/>
        <path d="M338.267 60.317a.44.44 0 0 0 .295-.11.442.442 0 0 0 .025-.615c-1.636-1.77-3.629-1.45-3.715-1.438a.442.442 0 0 0-.357.504.443.443 0 0 0 .504.356c.062-.012 1.624-.233 2.928 1.18a.492.492 0 0 0 .32.123z" fill="#263238"/>
        <path d="M354.996 77.043c-1.316 6.734-2.116 16.05 2.596 20.548 0 0-1.845 6.82-14.356 6.82-13.765 0-6.618-5.985-6.618-5.985 5.72-1.77 5.671-8.283 4.367-13.518l14.011-7.865z" fill="#F2A792"/>
        <path d="M334.194 97.37s2.005-4.757 4.06-5.568c2.054-.823 15.105-2.962 18.107-1.069 3.001 1.893 5.043 7.964 5.043 7.964l-27.21-1.328z" fill="#8FBFCB"/>
        <path d="M347.985 412.053c-1.181 0-2.325-.159-2.707-.688-.135-.184-.233-.504.013-.946.147-.258.381-.43.688-.504 1.538-.418 4.749 1.413 4.884 1.499.074.049.123.135.111.221a.24.24 0 0 1-.173.185c-.578.098-1.709.233-2.816.233zm-1.452-1.782c-.148 0-.295.013-.418.05a.67.67 0 0 0-.431.307c-.16.27-.098.405-.037.479.431.59 2.756.602 4.466.369-.862-.443-2.51-1.205-3.58-1.205z" fill="#595F74"/>
        <path d="M350.764 411.795a.227.227 0 0 1-.086-.024c-1.107-.504-3.309-2.483-3.149-3.527.037-.246.209-.553.812-.615.442-.049.848.086 1.205.369 1.169.958 1.415 3.441 1.427 3.539a.215.215 0 0 1-.086.197c-.025.049-.074.061-.123.061zm-2.239-3.724c-.037 0-.086 0-.135.013-.394.037-.418.196-.431.246-.098.626 1.39 2.187 2.534 2.863-.123-.725-.443-2.212-1.217-2.839a1.107 1.107 0 0 0-.751-.283z" fill="#595F74"/>
        <path d="M360.901 411.586h-9.214l-.922-21.31h9.213l.923 21.31z" fill="#F2A792"/>
        <path d="M351.748 410.517h10.05c.382 0 .701.258.787.627l1.821 8.172a1.34 1.34 0 0 1-1.328 1.635c-3.629-.062-8.87-.271-13.433-.271-5.327 0-5.979.295-12.227.295-3.777 0-4.835-3.822-3.248-4.166 7.209-1.573 9.127-1.745 15.352-5.579.689-.418 1.427-.713 2.226-.713zM374.075 97.615c8.635 1.979 14.318 25.243 14.318 25.243l-14.404 10.814s-7.86-4.866-10.69-15.878c-2.964-11.527 1.944-22.194 10.776-20.179z" fill="#263238"/>
        <path opacity=".2" d="M366.67 113.8c4.687 4.634 7.713 11.946 8.082 19.283l-.763.589s-7.873-4.866-10.702-15.878a43.929 43.929 0 0 1-.455-2.052l3.838-1.942z" fill="#000"/>
        <path d="m405.101 132.236-69.908 27.911 20.775 51.936 69.907-27.911-20.774-51.936z" fill="#595F74"/>
        <path d="m404.071 132.65-68.879 27.501 20.775 51.936 68.879-27.501-20.775-51.936z" fill="#747B95"/>
        <g opacity=".5">
            <path d="m347.807 160.437-6.523 2.604 1.849 4.622 6.522-2.604-1.848-4.622zM358.586 156.144l-6.523 2.604 1.849 4.622 6.523-2.604-1.849-4.622z" fill="#407BFF"/>
            <path d="m369.349 151.844-6.523 2.604 1.849 4.622 6.522-2.604-1.848-4.622zM380.111 147.544l-6.522 2.605 1.849 4.621 6.522-2.604-1.849-4.622zM390.874 143.245l-6.522 2.604 1.848 4.621 6.523-2.604-1.849-4.621zM401.648 138.947l-6.522 2.604 1.849 4.622 6.522-2.604-1.849-4.622z" fill="#ACB0C0"/>
            <path d="m350.86 168.065-6.522 2.605 1.849 4.621 6.522-2.604-1.849-4.622zM361.634 163.764l-6.523 2.604 1.849 4.622 6.522-2.605-1.848-4.621z" fill="#407BFF"/>
            <path d="m372.397 159.464-6.522 2.604 1.849 4.622 6.522-2.604-1.849-4.622zM383.16 155.164l-6.522 2.604 1.848 4.622 6.523-2.604-1.849-4.622zM393.928 150.876l-6.523 2.604 1.849 4.622 6.522-2.604-1.848-4.622zM404.702 146.572l-6.522 2.604 1.848 4.622 6.523-2.605-1.849-4.621z" fill="#ACB0C0"/>
            <path d="m353.908 175.688-6.522 2.604 1.849 4.622 6.522-2.605-1.849-4.621zM364.676 171.397l-6.523 2.604 1.849 4.622 6.522-2.604-1.848-4.622z" fill="#407BFF"/>
            <path d="m375.45 167.095-6.522 2.604 1.849 4.622 6.522-2.604-1.849-4.622zM386.213 162.795l-6.523 2.604 1.849 4.622 6.523-2.604-1.849-4.622zM396.976 158.502l-6.523 2.604 1.849 4.622 6.522-2.604-1.848-4.622zM407.75 154.198l-6.522 2.604 1.848 4.622 6.523-2.604-1.849-4.622z" fill="#ACB0C0"/>
            <path d="m356.962 183.319-6.523 2.604 1.849 4.622 6.523-2.604-1.849-4.622zM367.725 179.019l-6.523 2.604 1.849 4.622 6.522-2.604-1.848-4.622z" fill="#407BFF"/>
            <path d="m378.499 174.712-6.522 2.604 1.848 4.622 6.523-2.604-1.849-4.622zM389.262 170.415l-6.523 2.604 1.849 4.622 6.522-2.604-1.848-4.622zM400.029 166.127l-6.522 2.604 1.849 4.622 6.522-2.605-1.849-4.621zM410.804 161.822l-6.523 2.604 1.849 4.622 6.522-2.604-1.848-4.622z" fill="#ACB0C0"/>
            <path d="m360.011 190.936-6.523 2.604 1.849 4.622 6.522-2.604-1.848-4.622zM370.773 186.639l-6.522 2.604 1.849 4.622 6.522-2.604-1.849-4.622z" fill="#407BFF"/>
            <path d="m381.552 182.346-6.523 2.604 1.849 4.622 6.522-2.604-1.848-4.622zM392.314 178.05l-6.522 2.604 1.849 4.622 6.522-2.604-1.849-4.622zM403.077 173.754l-6.522 2.604 1.848 4.622 6.523-2.605-1.849-4.621zM413.852 169.442l-6.522 2.604 1.849 4.622 6.522-2.604-1.849-4.622z" fill="#ACB0C0"/>
            <path d="m363.063 198.57-6.522 2.604 1.849 4.622 6.522-2.604-1.849-4.622zM373.826 194.27l-6.522 2.604 1.848 4.622 6.523-2.604-1.849-4.622z" fill="#407BFF"/>
            <path d="m384.6 189.966-6.522 2.604 1.849 4.622 6.522-2.605-1.849-4.621zM395.363 185.666l-6.522 2.604 1.849 4.622 6.522-2.604-1.849-4.622zM406.127 181.363l-6.523 2.604 1.849 4.622 6.523-2.604-1.849-4.622zM416.905 177.073l-6.522 2.604 1.849 4.622 6.522-2.604-1.849-4.622z" fill="#ACB0C0"/>
        </g>
        <path d="M399.304 148.715c-.393-.996.087-2.139 1.083-2.532a1.945 1.945 0 0 1 2.534 1.082 1.941 1.941 0 0 1-1.083 2.531 1.939 1.939 0 0 1-2.534-1.081zM397.692 175.887a1.942 1.942 0 0 1 1.083-2.532 1.945 1.945 0 0 1 2.534 1.082 1.941 1.941 0 0 1-1.083 2.531 1.939 1.939 0 0 1-2.534-1.081zM373.115 176.87a1.942 1.942 0 0 1 1.083-2.532 1.945 1.945 0 0 1 2.534 1.082 1.941 1.941 0 0 1-1.083 2.531 1.94 1.94 0 0 1-2.534-1.081zM357.677 200.712c-.393-.996.087-2.139 1.083-2.532a1.945 1.945 0 0 1 2.534 1.081 1.942 1.942 0 0 1-1.082 2.532 1.946 1.946 0 0 1-2.535-1.081z" fill="#fff"/>
        <path d="M359.486 200.711a.759.759 0 0 1-.393-.11.717.717 0 0 1-.21-.996l15.438-23.853a.729.729 0 0 1 .578-.332l23.926-.947 1.574-26.52a.734.734 0 0 1 .763-.676.726.726 0 0 1 .677.762l-1.612 27.172a.72.72 0 0 1-.689.676l-24.208.958-15.229 23.535a.733.733 0 0 1-.615.331z" fill="#fff"/>
        <path d="M319.545 106.845c-1.882 9.942-3.063 30.342 2.398 70.762h49.241c-.885-7.005-4.416-44.389 2.879-79.98 0 0-8.439-1.695-16.484-2.076-6.298-.308-15.4-.504-20.936 0-2.313.209-4.576.54-6.593.897a12.999 12.999 0 0 0-10.505 10.397z" fill="#263238"/>
        <path opacity=".2" d="m327.282 122.145-9.25.737c-.332 11.958.492 29.409 3.911 54.713h.443c5.548-18.225 12.904-44.279 4.896-55.45zM350.776 390.289l.468 10.974h9.213l-.479-10.974h-9.202z" fill="#000"/>
        <path d="M359.363 67.199c-2.362 8.824-3.297 14.096-8.746 17.77-8.193 5.518-18.39-.81-18.71-10.163-.283-8.418 3.629-21.42 13.1-23.203 9.337-1.745 16.73 6.784 14.356 15.596z" fill="#F2A792"/>
        <path d="m338.697 67.26-4.785 1.241 4.453-11.54c-.48-.884-1.747-4.89-.406-8.897a2.63 2.63 0 0 1 2.436-1.794c9.914-.197 20.284 5.37 25.5 9.573a2.563 2.563 0 0 1 .578 3.343c-1.144 1.868-2.62 3.306-4.49 5.199-.098 3.232-5.376 17.82-8.303 19.466-2.928 1.635-8.512.97-9.989-1.696-1.476-2.654-6.495-6.194-4.994-14.895z" fill="#263238"/>
        <path d="M343.126 67.445c-.542 2.335-2.005 4.362-3.568 5.591-2.349 1.844-4.182.148-4.084-2.568.087-2.446 1.415-6.342 4.035-7.14 2.583-.787 4.232 1.45 3.617 4.117z" fill="#F2A792"/>
        <path d="M427.326 408.883c-.012-1.18.147-2.323.676-2.704.185-.135.505-.246.948.012.258.148.43.369.516.688.431 1.524-1.39 4.756-1.464 4.892-.049.073-.135.123-.221.11-.086-.012-.16-.086-.185-.172a15.663 15.663 0 0 1-.27-2.826zm1.771-1.475c0-.148-.012-.295-.049-.418-.062-.197-.16-.344-.308-.43-.27-.148-.405-.098-.479-.037-.591.43-.591 2.753-.332 4.461.418-.848 1.18-2.507 1.168-3.576z" fill="#595F74"/>
        <path d="M427.597 411.66c0-.025 0-.061.024-.086.492-1.118 2.473-3.33 3.506-3.158.246.036.554.209.615.811.049.442-.074.848-.369 1.204-.959 1.18-3.432 1.438-3.543 1.45-.073.013-.147-.024-.196-.086a.313.313 0 0 1-.037-.135zm3.715-2.274c0-.036 0-.086-.013-.135-.037-.393-.196-.418-.246-.418-.627-.098-2.177 1.414-2.854 2.544.726-.123 2.202-.454 2.83-1.229.196-.233.283-.479.283-.762z" fill="#595F74"/>
        <path d="m427.732 411.721-8.98.627-5.056-21.469 8.992-.639 5.044 21.481z" fill="#F2A792"/>
        <path d="m427.707 409.657-10.013-.885a.8.8 0 0 0-.836.553l-2.534 7.988a1.34 1.34 0 0 0 1.181 1.745c3.616.258 8.856.504 13.395.91 5.314.467 1.87.454 8.094 1.007 3.765.332 5.142-3.379 3.605-3.858-7.037-2.2-8.316-3.724-10.739-6.551-.529-.602-1.366-.848-2.153-.909z" fill="#263238"/>
        <path opacity=".2" d="m413.709 390.891 2.595 11.06 8.993-.639-2.608-11.06-8.98.639z" fill="#000"/>
        <path d="M339.41 177.595s21.183 70.652 29.215 96.878c8.795 28.72 42.279 124 42.279 124l16.237-3.563s-22.929-81.861-32.45-121.924c-7.307-30.773-23.507-95.403-23.507-95.403H339.41v.012z" fill="#8FBFCB"/>
        <path d="M408.063 393.472c-.074.012 1.599 6.329 1.599 6.329l19.522-2.089-.086-5.801-21.035 1.561z" fill="#263238"/>
        <path opacity=".3" d="M351.146 210.346c11.723 1.549 16.385 42.35 18.144 66.29-.221-.762-.455-1.475-.664-2.163-4.392-14.317-12.695-41.92-19.325-64.004.541-.172 1.168-.209 1.845-.123z" fill="#000"/>
        <path d="M321.943 177.595s7.098 68.809 10.161 96.829c3.186 29.138 15.13 124.713 15.13 124.713h15.598s-1.894-93.83-2.522-122.489c-.689-31.24-6.003-99.053-6.003-99.053h-32.364z" fill="#8FBFCB"/>
        <path d="M344.811 392.931c-.074 0 .885 6.464.885 6.464h18.969l.516-5.776-20.37-.688zM255.333 242.348c8.131 12.879 25.18 16.738 38.072 8.615 12.891-8.123 16.754-25.144 8.623-38.036-8.131-12.879-25.168-16.75-38.072-8.627-12.892 8.123-16.754 25.156-8.623 38.048zm43.004-27.086c6.84 10.839 3.592 25.181-7.257 32.014-10.862 6.833-25.205 3.589-32.045-7.251-6.839-10.851-3.591-25.181 7.27-32.014 10.838-6.845 25.193-3.6 32.032 7.251z" fill="#263238"/>
        <path opacity=".2" d="M299.444 232.332c-2.595 11.454-13.998 18.643-25.475 16.038-11.465-2.593-18.661-13.985-16.065-25.451 2.595-11.454 13.998-18.644 25.475-16.05 11.477 2.617 18.673 14.009 16.065 25.463z" fill="#747B95"/>
        <path d="m302.79 209.584 2.584 4.105a1.337 1.337 0 0 1-2.264 1.426l-2.583-4.105a1.333 1.333 0 0 1 .418-1.843 1.336 1.336 0 0 1 1.845.417z" fill="#263238"/>
        <path d="M319.532 197.934a361.775 361.775 0 0 0-8.893 6.255c-2.928 2.139-5.831 4.314-8.66 6.624a1.822 1.822 0 0 0-.492 2.188 1.829 1.829 0 0 0 2.435.885c3.309-1.549 6.52-3.22 9.718-4.941a339.301 339.301 0 0 0 9.484-5.321 423.397 423.397 0 0 0 7.934-4.731 1.6 1.6 0 0 0 .517-2.212l-2.128-3.38a1.599 1.599 0 0 0-2.214-.492 397.083 397.083 0 0 0-7.701 5.125z" fill="#263238"/>
        <path d="M333.248 110.286c-1.501 7.373-3.125 14.735-4.798 22.059l-5.105 21.949c-1.648 7.153-3.063 14.403-4.354 21.765l-3.875 22.121-.012.049a3.465 3.465 0 0 1-4.023 2.814c-1.648-.282-2.817-1.696-2.878-3.293-.271-7.681-.148-15.276.283-22.92.455-7.62 1.168-15.313 2.423-22.957 1.193-7.521 2.546-14.956 3.986-22.379a637.143 637.143 0 0 1 4.699-22.17c.873-3.748 4.612-6.096 8.364-5.223a6.976 6.976 0 0 1 5.29 8.185z" fill="#8FBFCB"/>
        <path d="M314.058 196.189a2.543 2.543 0 0 0-2.435-.725l-2.005.479a2.546 2.546 0 0 0-1.932 2.139l-.578 4.436a5.791 5.791 0 0 0 .763 3.662l2.743 4.535a3.07 3.07 0 0 0 3.112 1.155l2.866-.602a3.084 3.084 0 0 0 2.301-3.969l-.751-2.311c0-.012-.037-4.535-4.084-8.799z" fill="#F2A792"/>
        <path d="M342.831 106.021c4.477 11.86-11.01 28.782-11.01 28.782l-19.595-6.476s1.5-16.186 8.303-25.317c8.401-11.27 18.894-6.022 22.302 3.011z" fill="#263238"/>
    </g>
    <defs>
        <clipPath id="sbfsj7o18a">
            <path fill="#fff" d="M0 0h449v421H0z"/>
        </clipPath>
    </defs>
</svg>
