<svg width="26" height="25" viewBox="0 0 26 25" fill="none" xmlns="http://www.w3.org/2000/svg">
    <path d="M20.351 0H5.768A5.215 5.215 0 0 0 .56 5.208v14.584A5.215 5.215 0 0 0 5.768 25h14.584a5.215 5.215 0 0 0 5.208-5.209V5.21A5.216 5.216 0 0 0 20.351 0zm-12.5 22.916v-1.041a5.209 5.209 0 0 1 10.417 0v1.041H7.851zm15.625-3.125a3.125 3.125 0 0 1-3.125 3.125v-1.041a7.292 7.292 0 0 0-14.583 0v1.041a3.125 3.125 0 0 1-3.125-3.125V5.21a3.125 3.125 0 0 1 3.125-3.125h14.584a3.125 3.125 0 0 1 3.125 3.124v14.583z" fill="#565F76"/>
    <path d="M13.06 4.165a4.167 4.167 0 1 0 0 8.333 4.167 4.167 0 0 0 0-8.333zm0 6.25a2.084 2.084 0 1 1 0-4.167 2.084 2.084 0 0 1 0 4.167z" fill="#565F76"/>
</svg>
