<svg width="21" height="21" viewBox="0 0 21 21" fill="none" xmlns="http://www.w3.org/2000/svg">
    <path d="M16.625 1.75h-.875V.875a.875.875 0 0 0-1.75 0v.875H7V.875a.875.875 0 0 0-1.75 0v.875h-.875A4.38 4.38 0 0 0 0 6.125v10.5A4.38 4.38 0 0 0 4.375 21h12.25A4.38 4.38 0 0 0 21 16.625v-10.5a4.38 4.38 0 0 0-4.375-4.375zM4.375 3.5h12.25a2.628 2.628 0 0 1 2.625 2.625V7H1.75v-.875A2.628 2.628 0 0 1 4.375 3.5zm12.25 15.75H4.375a2.628 2.628 0 0 1-2.625-2.625V8.75h17.5v7.875a2.629 2.629 0 0 1-2.625 2.625zm0-7a.875.875 0 0 1-.875.875H5.25a.875.875 0 1 1 0-1.75h10.5c.484 0 .875.392.875.875zm-6.125 3.5a.875.875 0 0 1-.875.875H5.25a.875.875 0 1 1 0-1.75h4.375c.484 0 .875.392.875.875z" fill="#42A6B8"/>
</svg>
