<svg width="47" height="50" viewBox="0 0 47 50" fill="none" xmlns="http://www.w3.org/2000/svg">
    <g clip-path="url(#67g9nv4zaa)">
        <path d="M29.558 12.5a2.085 2.085 0 0 1 0 4.168H12.892a2.085 2.085 0 0 1 0-4.168h16.666zm-6.25 33.334h-12.5a6.25 6.25 0 0 1-6.25-6.25V10.416a6.25 6.25 0 0 1 6.25-6.25h25c1.15 0 2.084.934 2.084 2.084v16.666a2.085 2.085 0 0 0 4.168 0V6.25A6.25 6.25 0 0 0 35.81 0h-25C5.058.008.4 4.666.392 10.416v29.166c.008 5.75 4.666 10.41 10.416 10.416h12.5a2.083 2.083 0 1 0 0-4.164z" fill="#717C98"/>
        <path d="M39.727 37.683h-4.04a1.715 1.715 0 0 1-1.714-1.715v-4.05a2.575 2.575 0 0 0-1-2.044 2.456 2.456 0 0 0-2.127-.457c-5.04 1.25-8.11 6.35-6.857 11.389a9.4 9.4 0 0 0 7.332 6.963 9.426 9.426 0 0 0 10.912-6.953 2.46 2.46 0 0 0-.457-2.13 2.608 2.608 0 0 0-2.05-1.003zm.846 2.715a7.687 7.687 0 1 1-9.307-9.315.751.751 0 0 1 .654.147c.215.164.342.42.344.691v4.047a3.428 3.428 0 0 0 3.428 3.428h4.037a.89.89 0 0 1 .699.343c.15.184.201.428.145.659z" fill="#42A6B8" stroke="#42A6B8" stroke-width="2" stroke-miterlimit="10"/>
        <path d="M44.79 32.948a8.632 8.632 0 0 0-6.058-6.063 1.793 1.793 0 0 0-.467-.062 1.714 1.714 0 0 0-1.73 1.697v4.043a2.57 2.57 0 0 0 2.57 2.57h4.045a1.722 1.722 0 0 0 1.64-2.185zm-2.14.475h-3.547a.857.857 0 0 1-.857-.858l-.008-4.021a.04.04 0 0 1 .021-.008h.022a6.912 6.912 0 0 1 4.863 4.887h-.494z" fill="#42A6B8" stroke="#42A6B8" stroke-width="2" stroke-miterlimit="10"/>
    </g>
    <defs>
        <clipPath id="67g9nv4zaa">
            <path fill="#fff" transform="translate(.392)" d="M0 0h45.885v50H0z"/>
        </clipPath>
    </defs>
</svg>
